<?xml version="1.0" encoding="UTF-8" standalone="no"?>
<!-- Created with Inkscape (http://www.inkscape.org/) -->

<svg
   xmlns:dc="http://purl.org/dc/elements/1.1/"
   xmlns:cc="http://creativecommons.org/ns#"
   xmlns:rdf="http://www.w3.org/1999/02/22-rdf-syntax-ns#"
   xmlns:svg="http://www.w3.org/2000/svg"
   xmlns="http://www.w3.org/2000/svg"
   xmlns:sodipodi="http://sodipodi.sourceforge.net/DTD/sodipodi-0.dtd"
   xmlns:inkscape="http://www.inkscape.org/namespaces/inkscape"
   width="703.22864"
   height="322.05872"
   viewBox="0 0 703.22863 322.05873"
   id="svg2"
   version="1.1"
   inkscape:version="0.91 r13725"
   sodipodi:docname="sampling1.svg">
  <defs
     id="defs4" />
  <sodipodi:namedview
     id="base"
     pagecolor="#ffffff"
     bordercolor="#666666"
     borderopacity="1.0"
     inkscape:pageopacity="0.0"
     inkscape:pageshadow="2"
     inkscape:zoom="1.979899"
     inkscape:cx="547.49834"
     inkscape:cy="168.00207"
     inkscape:document-units="px"
     inkscape:current-layer="layer1"
     showgrid="false"
     inkscape:window-width="1920"
     inkscape:window-height="1004"
     inkscape:window-x="0"
     inkscape:window-y="24"
     inkscape:window-maximized="1"
     fit-margin-top="0"
     fit-margin-left="0"
     fit-margin-right="0"
     fit-margin-bottom="0"
     units="px" />
  <metadata
     id="metadata7">
    <rdf:RDF>
      <cc:Work
         rdf:about="">
        <dc:format>image/svg+xml</dc:format>
        <dc:type
           rdf:resource="http://purl.org/dc/dcmitype/StillImage" />
        <dc:title></dc:title>
      </cc:Work>
    </rdf:RDF>
  </metadata>
  <g
     inkscape:label="Layer 1"
     inkscape:groupmode="layer"
     id="layer1"
     transform="translate(-150.75702,-34.547465)">
    <path
       style="fill:none;fill-rule:evenodd;stroke:#000000;stroke-width:7.50798464;stroke-linecap:butt;stroke-linejoin:miter;stroke-miterlimit:4;stroke-dasharray:none;stroke-opacity:1"
       d="m 161.7665,218.97298 603.7031,0"
       id="path4686"
       inkscape:connector-curvature="0" />
    <path
       style="fill:none;fill-rule:evenodd;stroke:#000000;stroke-width:7.50798464;stroke-linecap:butt;stroke-linejoin:miter;stroke-miterlimit:4;stroke-dasharray:none;stroke-opacity:1"
       d="m 159.49125,197.7372 0,37.92104"
       id="path4688"
       inkscape:connector-curvature="0" />
    <path
       style="fill:none;fill-rule:evenodd;stroke:#000000;stroke-width:7.50798464;stroke-linecap:butt;stroke-linejoin:miter;stroke-miterlimit:4;stroke-dasharray:none;stroke-opacity:1"
       d="m 767.74487,200.01245 0,37.92104"
       id="path4688-7"
       inkscape:connector-curvature="0" />
    <path
       style="fill:none;fill-rule:evenodd;stroke:#000000;stroke-width:7.50798464;stroke-linecap:butt;stroke-linejoin:miter;stroke-miterlimit:4;stroke-dasharray:none;stroke-opacity:1"
       d="m 465.1349,200.01246 0,37.92105"
       id="path4688-2"
       inkscape:connector-curvature="0" />
    <text
       xml:space="preserve"
       style="font-style:normal;font-weight:normal;font-size:47.52505875px;line-height:125%;font-family:sans-serif;letter-spacing:0px;word-spacing:0px;fill:#000000;fill-opacity:1;stroke:none;stroke-width:1px;stroke-linecap:butt;stroke-linejoin:miter;stroke-opacity:1"
       x="357.72693"
       y="346.72061"
       id="text4735"
       sodipodi:linespacing="125%"><tspan
         sodipodi:role="line"
         id="tspan4737"
         x="357.72693"
         y="346.72061">frequency</tspan></text>
    <text
       xml:space="preserve"
       style="font-style:normal;font-weight:normal;font-size:33.75515747px;line-height:125%;font-family:sans-serif;letter-spacing:0px;word-spacing:0px;fill:#000000;fill-opacity:1;stroke:none;stroke-width:1px;stroke-linecap:butt;stroke-linejoin:miter;stroke-opacity:1"
       x="760.82825"
       y="280.89398"
       id="text4739"
       sodipodi:linespacing="125%"><tspan
         sodipodi:role="line"
         id="tspan4741"
         x="760.82825"
         y="280.89398">f</tspan></text>
    <text
       xml:space="preserve"
       style="font-style:normal;font-weight:normal;font-size:30.76046562px;line-height:125%;font-family:sans-serif;letter-spacing:0px;word-spacing:0px;fill:#000000;fill-opacity:1;stroke:none;stroke-width:1px;stroke-linecap:butt;stroke-linejoin:miter;stroke-opacity:1"
       x="769.47528"
       y="287.91913"
       id="text4739-4"
       sodipodi:linespacing="125%"><tspan
         sodipodi:role="line"
         id="tspan4741-1"
         x="769.47528"
         y="287.91913">s</tspan></text>
    <text
       xml:space="preserve"
       style="font-style:normal;font-weight:normal;font-size:33.75515747px;line-height:125%;font-family:sans-serif;letter-spacing:0px;word-spacing:0px;fill:#000000;fill-opacity:1;stroke:none;stroke-width:1px;stroke-linecap:butt;stroke-linejoin:miter;stroke-opacity:1"
       x="453.16199"
       y="278.87985"
       id="text4739-5"
       sodipodi:linespacing="125%"><tspan
         sodipodi:role="line"
         id="tspan4741-2"
         x="453.16199"
         y="278.87985">f</tspan></text>
    <text
       xml:space="preserve"
       style="font-style:normal;font-weight:normal;font-size:30.76046562px;line-height:125%;font-family:sans-serif;letter-spacing:0px;word-spacing:0px;fill:#000000;fill-opacity:1;stroke:none;stroke-width:1px;stroke-linecap:butt;stroke-linejoin:miter;stroke-opacity:1"
       x="461.80902"
       y="285.90497"
       id="text4739-4-6"
       sodipodi:linespacing="125%"><tspan
         sodipodi:role="line"
         id="tspan4741-1-1"
         x="461.80902"
         y="285.90497">s</tspan></text>
    <text
       xml:space="preserve"
       style="font-style:normal;font-weight:normal;font-size:33.75515747px;line-height:125%;font-family:sans-serif;letter-spacing:0px;word-spacing:0px;fill:#000000;fill-opacity:1;stroke:none;stroke-width:1px;stroke-linecap:butt;stroke-linejoin:miter;stroke-opacity:1"
       x="478.96176"
       y="278.81808"
       id="text4739-5-5"
       sodipodi:linespacing="125%"><tspan
         sodipodi:role="line"
         id="tspan4741-2-8"
         x="478.96176"
         y="278.81808">/2</tspan></text>
    <text
       xml:space="preserve"
       style="font-style:normal;font-weight:normal;font-size:33.75515747px;line-height:125%;font-family:sans-serif;letter-spacing:0px;word-spacing:0px;fill:#000000;fill-opacity:1;stroke:none;stroke-width:1px;stroke-linecap:butt;stroke-linejoin:miter;stroke-opacity:1"
       x="148.53195"
       y="277.71402"
       id="text4739-5-5-9"
       sodipodi:linespacing="125%"><tspan
         sodipodi:role="line"
         id="tspan4741-2-8-1"
         x="148.53195"
         y="277.71402">0</tspan></text>
    <path
       style="fill:none;fill-rule:evenodd;stroke:#000000;stroke-width:6.00638771;stroke-linecap:butt;stroke-linejoin:miter;stroke-miterlimit:4;stroke-dasharray:none;stroke-dashoffset:0;stroke-opacity:1"
       d="m 378.67491,216.69771 0,-71.29157"
       id="path4859"
       inkscape:connector-curvature="0" />
    <path
       style="fill:none;fill-rule:evenodd;stroke:#000000;stroke-width:6.00638771;stroke-linecap:butt;stroke-linejoin:miter;stroke-miterlimit:4;stroke-dasharray:none;stroke-dashoffset:0;stroke-opacity:1"
       d="m 555.47902,216.79735 0,-71.29158"
       id="path4859-0"
       inkscape:connector-curvature="0" />
    <path
       style="fill:none;fill-rule:evenodd;stroke:#000000;stroke-width:1.50159693px;stroke-linecap:butt;stroke-linejoin:miter;stroke-opacity:1"
       d="m 380.19175,105.96825 c -2.11908,2.9494 1.91773,2.36201 2.27526,3.79211 0.11323,0.45289 0,4.79891 0,5.30894 0,1.51684 0,3.03369 0,4.55053 0,0.75842 -0.10721,1.52446 0,2.27526 0.14746,1.03187 0.554,2.01158 0.75843,3.03368 0.19832,0.9916 -0.19833,2.0421 0,3.03369 0.11082,0.55431 0.5056,1.01123 0.75841,1.51684 0.25281,0.50561 0.50562,1.01123 0.75843,1.51684 0.25281,0.50562 0.57966,0.98056 0.75841,1.51685 0.15989,0.47966 -0.35751,1.15931 0,1.51684 0.17877,0.17875 0.50562,0 0.75843,0 0.25281,0 0.50562,0 0.75842,0 0.75842,0 1.51684,0 2.27527,0 0.63508,0 3.21534,0.14416 3.7921,0 1.09528,-0.27383 4.58559,-2.45501 5.30894,-3.03369 0.55836,-0.44668 0.92189,-1.1202 1.51684,-1.51684 0.94071,-0.62714 2.06422,-0.93516 3.03369,-1.51684 0.30657,-0.18395 0.47924,-0.53508 0.75841,-0.75842 0.98706,-0.78964 1.98195,-1.5741 3.0337,-2.27527 0.47034,-0.31356 1.0321,-0.46757 1.51683,-0.75842 0.78161,-0.46896 1.49366,-1.04787 2.27527,-1.51684 0.48473,-0.29084 1.04649,-0.44485 1.51684,-0.75842 0.29748,-0.19832 0.46094,-0.5601 0.75842,-0.75842 2.75494,-1.83662 0.53633,0.22209 2.27527,-1.51684"
       id="path4890"
       inkscape:connector-curvature="0" />
    <path
       style="fill:none;fill-rule:evenodd;stroke:#000000;stroke-width:1.50159693px;stroke-linecap:butt;stroke-linejoin:miter;stroke-opacity:1"
       d="m 387.01754,130.99614 c 0.40183,-2.32049 3.59119,-2.63185 4.55052,-4.55052 0.22612,-0.45224 -0.15989,-1.03718 0,-1.51685 0.11307,-0.33917 0.53508,-0.47924 0.75843,-0.75842 0.78963,-0.98704 1.77733,-1.87185 2.27526,-3.03368 0.29876,-0.6971 -0.29876,-1.57816 0,-2.27526 0.49793,-1.16183 1.48562,-2.04664 2.27526,-3.03369 0.22334,-0.27917 0.64536,-0.41924 0.75842,-0.75842 0.15989,-0.47967 -0.22611,-1.06461 0,-1.51684 0.31978,-0.63956 1.01123,-1.01123 1.51685,-1.51684 0.5056,-0.50562 1.01122,-1.01123 1.51684,-1.51684 0.50562,-0.50562 1.08781,-0.94481 1.51684,-1.51685 0.33918,-0.45223 0.50561,-1.01122 0.75842,-1.51684 0.9312,-1.8624 1.77019,-3.62428 3.03368,-5.30894 0.21452,-0.28602 0.53508,-0.47925 0.75843,-0.75843 0.78963,-0.98704 1.46605,-2.06262 2.27526,-3.033679 0.45776,-0.549314 1.01122,-1.011228 1.51684,-1.516843 1.26403,-1.264035 2.52807,-2.528069 3.7921,-3.792104 1.11537,-1.115371 4.10562,-4.346287 5.30896,-5.308947 0.44141,-0.353137 1.0646,-0.419244 1.51684,-0.758421 0.57203,-0.429028 0.9448,-1.087815 1.51683,-1.516842 1.32539,-0.994032 2.26256,-0.752069 3.79211,-1.516843 3.01026,-1.505127 -3.35197,-0.239709 3.03369,-1.516841 0.4958,-0.09917 1.02632,0.122635 1.51684,0 1.09682,-0.274208 1.96111,-1.159318 3.03369,-1.516843 1.915,-0.638333 -0.78986,1.540417 2.27525,-0.75842 0.57205,-0.429028 0.9037,-1.148953 1.51685,-1.516841 0.68551,-0.411312 1.56022,-0.400898 2.27526,-0.758423 0.31977,-0.159888 0.50561,-0.505613 0.75842,-0.75842 0.25281,-0.252807 0.50561,-0.505613 0.75842,-0.758421"
       id="path4892"
       inkscape:connector-curvature="0" />
    <path
       style="fill:none;fill-rule:evenodd;stroke:#000000;stroke-width:1.50159693px;stroke-linecap:butt;stroke-linejoin:miter;stroke-opacity:1"
       d="m 525.05016,114.31088 c -0.1771,2.24015 2.13575,2.44522 3.03368,3.79211 0.31358,0.47035 0.44486,1.04649 0.75842,1.51684 0.19832,0.29748 0.5601,0.46094 0.75843,0.75842 0.31356,0.47035 0.35869,1.11712 0.75841,1.51684 0.39973,0.39972 1.0465,0.44485 1.51684,0.75842 0.29748,0.19832 0.46095,0.5601 0.75843,0.75842 0.47036,0.31357 1.04649,0.44486 1.51684,0.75842 1.7355,1.157 -0.47424,0.60035 2.27526,1.51685 0.23984,0.0799 0.51859,-0.08 0.75843,0 0.53628,0.17876 0.96842,0.62131 1.51684,0.75842 0.49052,0.12263 1.03718,-0.15989 1.51683,0 0.33918,0.11305 0.41925,0.64536 0.75843,0.75842 0.47967,0.15989 1.01122,0 1.51684,0 0.25281,0 0.5323,-0.11306 0.75842,0 0.903,0.4515 1.05835,1.51684 0.75842,1.51684 -0.2528,0 0,-0.50561 0,-0.75842 0,-1.71682 1.00596,-2.25946 1.51685,-3.79211 0.0799,-0.23983 0,-0.50561 0,-0.75842 0,-0.50561 0,-1.01122 0,-1.51684 0,-0.50561 -0.12268,-1.02632 0,-1.51684 0.1371,-0.54842 0.57966,-0.98056 0.75841,-1.51684 0.26864,-0.80591 -0.26863,-2.22778 0,-3.03369 0.9165,-2.74949 0.35984,-0.53976 1.51685,-2.27526 0.31357,-0.47035 0.28807,-1.20327 0.75842,-1.51684 0.4207,-0.28047 1.09615,0.28046 1.51685,0 1.41961,-0.94641 0.36927,-1.86625 0.75841,-3.03369 0.11307,-0.33917 0.50562,-0.50561 0.75843,-0.75842 1.11594,-1.11594 0.75841,-0.40089 0.75841,-2.27526"
       id="path4898"
       inkscape:connector-curvature="0" />
    <path
       style="fill:none;fill-rule:evenodd;stroke:#000000;stroke-width:1.50159693px;stroke-linecap:butt;stroke-linejoin:miter;stroke-opacity:1"
       d="m 540.21857,127.96246 c 0.25281,-1.01123 0.554,-2.01158 0.75843,-3.03369 0.0496,-0.24789 0,-0.50561 0,-0.75842 0,-1.26403 0,-2.52807 0,-3.7921 0,-3.79211 0,-7.58421 0,-11.37632 0,-1.51684 0,-3.03368 0,-4.55052 0,-3.13829 0.25584,-6.058265 -0.75843,-9.101053 -0.11307,-0.339176 -0.64535,-0.419246 -0.75841,-0.758422 -0.15989,-0.479667 0.0991,-1.021047 0,-1.516841 -0.25141,-1.257026 -1.51215,-4.164284 -2.27526,-5.308947 -0.19832,-0.297477 -0.50562,-0.505615 -0.75843,-0.758421 -0.50562,-0.505614 -1.01122,-1.011228 -1.51684,-1.516842 -0.25281,-0.252808 -0.50562,-0.505613 -0.75842,-0.758421 -0.25281,-0.252807 -0.41925,-0.645362 -0.75842,-0.758422 -0.47967,-0.159888 -1.03718,0.15989 -1.51685,0 -0.33916,-0.113055 -0.46093,-0.560102 -0.75841,-0.75842 -0.47036,-0.313568 -1.04649,-0.444853 -1.51684,-0.758421 -0.29748,-0.198319 -0.46094,-0.560103 -0.75843,-0.758421 -0.47036,-0.313569 -1.01123,-0.505614 -1.51683,-0.758422 -1.01124,-0.505613 -1.98397,-1.096951 -3.03369,-1.516841 -1.09254,-0.437013 -2.77575,-0.754572 -3.79211,-1.516843 -0.57203,-0.429027 -0.95848,-1.070155 -1.51684,-1.516841 -0.37073,-0.29658 -2.93283,-2.060444 -3.7921,-2.275263 -0.49053,-0.122635 -1.02633,0.122636 -1.51685,0 -1.37269,0.457122 -1.41053,-1.228598 -2.27525,-1.516843 -0.47967,-0.159888 -1.01124,0 -1.51685,0 -0.25281,0 -0.75842,0.252808 -0.75842,0 0,-0.252805 0.75842,0.252808 0.75842,0 0,-3.524201 -0.14341,-3.033683 -2.27527,-3.033683"
       id="path4900"
       inkscape:connector-curvature="0" />
    <text
       xml:space="preserve"
       style="font-style:normal;font-weight:normal;font-size:34.58475876px;line-height:125%;font-family:sans-serif;letter-spacing:0px;word-spacing:0px;fill:#000000;fill-opacity:1;stroke:none;stroke-width:1px;stroke-linecap:butt;stroke-linejoin:miter;stroke-opacity:1"
       x="409.78354"
       y="60.823776"
       id="text4902"
       sodipodi:linespacing="125%"><tspan
         sodipodi:role="line"
         id="tspan4904"
         x="409.78354"
         y="60.823776">aliases</tspan></text>
    <text
       xml:space="preserve"
       style="font-style:normal;font-weight:normal;font-size:18.09830284px;line-height:125%;font-family:sans-serif;letter-spacing:0px;word-spacing:0px;fill:#000000;fill-opacity:1;stroke:none;stroke-width:1px;stroke-linecap:butt;stroke-linejoin:miter;stroke-opacity:1"
       x="662.12421"
       y="304.50064"
       id="text4739-0"
       sodipodi:linespacing="125%"><tspan
         sodipodi:role="line"
         id="tspan4741-8"
         x="662.12421"
         y="304.50064">(sampling frequency)</tspan></text>
  </g>
</svg>
