<?xml version="1.0" encoding="UTF-8" standalone="no"?>
<!-- Created with Inkscape (http://www.inkscape.org/) -->

<svg
   xmlns:dc="http://purl.org/dc/elements/1.1/"
   xmlns:cc="http://creativecommons.org/ns#"
   xmlns:rdf="http://www.w3.org/1999/02/22-rdf-syntax-ns#"
   xmlns:svg="http://www.w3.org/2000/svg"
   xmlns="http://www.w3.org/2000/svg"
   xmlns:sodipodi="http://sodipodi.sourceforge.net/DTD/sodipodi-0.dtd"
   xmlns:inkscape="http://www.inkscape.org/namespaces/inkscape"
   width="1041.2135"
   height="282.50031"
   viewBox="0 0 1041.2136 282.50032"
   id="svg2"
   version="1.1"
   inkscape:version="0.91 r13725"
   sodipodi:docname="sampling2.svg">
  <defs
     id="defs4" />
  <sodipodi:namedview
     id="base"
     pagecolor="#ffffff"
     bordercolor="#666666"
     borderopacity="1.0"
     inkscape:pageopacity="0.0"
     inkscape:pageshadow="2"
     inkscape:zoom="0.98994949"
     inkscape:cx="91.285259"
     inkscape:cy="46.661885"
     inkscape:document-units="px"
     inkscape:current-layer="layer1"
     showgrid="false"
     inkscape:window-width="1920"
     inkscape:window-height="1004"
     inkscape:window-x="0"
     inkscape:window-y="24"
     inkscape:window-maximized="1"
     fit-margin-top="0"
     fit-margin-left="0"
     fit-margin-right="0"
     fit-margin-bottom="0"
     units="px" />
  <metadata
     id="metadata7">
    <rdf:RDF>
      <cc:Work
         rdf:about="">
        <dc:format>image/svg+xml</dc:format>
        <dc:type
           rdf:resource="http://purl.org/dc/dcmitype/StillImage" />
        <dc:title></dc:title>
      </cc:Work>
    </rdf:RDF>
  </metadata>
  <g
     inkscape:label="Layer 1"
     inkscape:groupmode="layer"
     id="layer1"
     transform="translate(-150.75702,-24.547482)">
    <path
       style="fill:none;fill-rule:evenodd;stroke:#000000;stroke-width:6.18326664;stroke-linecap:butt;stroke-linejoin:miter;stroke-miterlimit:4;stroke-dasharray:none;stroke-opacity:1"
       d="m 159.82397,184.6683 497.18499,0"
       id="path4686"
       inkscape:connector-curvature="0" />
    <path
       style="fill:none;fill-rule:evenodd;stroke:#000000;stroke-width:6.18326664;stroke-linecap:butt;stroke-linejoin:miter;stroke-miterlimit:4;stroke-dasharray:none;stroke-opacity:1"
       d="m 157.95017,167.17939 0,31.23021"
       id="path4688"
       inkscape:connector-curvature="0" />
    <path
       style="fill:none;fill-rule:evenodd;stroke:#000000;stroke-width:6.18326664;stroke-linecap:butt;stroke-linejoin:miter;stroke-miterlimit:4;stroke-dasharray:none;stroke-opacity:1"
       d="m 658.88278,169.05319 0,31.23021"
       id="path4688-7"
       inkscape:connector-curvature="0" />
    <path
       style="fill:none;fill-rule:evenodd;stroke:#000000;stroke-width:6.18326664;stroke-linecap:butt;stroke-linejoin:miter;stroke-miterlimit:4;stroke-dasharray:none;stroke-opacity:1"
       d="m 409.66568,169.0532 0,31.23022"
       id="path4688-2"
       inkscape:connector-curvature="0" />
    <text
       xml:space="preserve"
       style="font-style:normal;font-weight:normal;font-size:39.13967896px;line-height:125%;font-family:sans-serif;letter-spacing:0px;word-spacing:0px;fill:#000000;fill-opacity:1;stroke:none;stroke-width:1px;stroke-linecap:butt;stroke-linejoin:miter;stroke-opacity:1"
       x="557.58459"
       y="298.90643"
       id="text4735"
       sodipodi:linespacing="125%"><tspan
         sodipodi:role="line"
         id="tspan4737"
         x="557.58459"
         y="298.90643">frequency</tspan></text>
    <text
       xml:space="preserve"
       style="font-style:normal;font-weight:normal;font-size:27.79935646px;line-height:125%;font-family:sans-serif;letter-spacing:0px;word-spacing:0px;fill:#000000;fill-opacity:1;stroke:none;stroke-width:1px;stroke-linecap:butt;stroke-linejoin:miter;stroke-opacity:1"
       x="653.18652"
       y="235.66389"
       id="text4739"
       sodipodi:linespacing="125%"><tspan
         sodipodi:role="line"
         id="tspan4741"
         x="653.18652"
         y="235.66389">f</tspan></text>
    <text
       xml:space="preserve"
       style="font-style:normal;font-weight:normal;font-size:25.33305168px;line-height:125%;font-family:sans-serif;letter-spacing:0px;word-spacing:0px;fill:#000000;fill-opacity:1;stroke:none;stroke-width:1px;stroke-linecap:butt;stroke-linejoin:miter;stroke-opacity:1"
       x="660.30786"
       y="241.44951"
       id="text4739-4"
       sodipodi:linespacing="125%"><tspan
         sodipodi:role="line"
         id="tspan4741-1"
         x="660.30786"
         y="241.44951">s</tspan></text>
    <text
       xml:space="preserve"
       style="font-style:normal;font-weight:normal;font-size:27.79935646px;line-height:125%;font-family:sans-serif;letter-spacing:0px;word-spacing:0px;fill:#000000;fill-opacity:1;stroke:none;stroke-width:1px;stroke-linecap:butt;stroke-linejoin:miter;stroke-opacity:1"
       x="399.8053"
       y="234.00514"
       id="text4739-5"
       sodipodi:linespacing="125%"><tspan
         sodipodi:role="line"
         id="tspan4741-2"
         x="399.8053"
         y="234.00514">f</tspan></text>
    <text
       xml:space="preserve"
       style="font-style:normal;font-weight:normal;font-size:25.33305168px;line-height:125%;font-family:sans-serif;letter-spacing:0px;word-spacing:0px;fill:#000000;fill-opacity:1;stroke:none;stroke-width:1px;stroke-linecap:butt;stroke-linejoin:miter;stroke-opacity:1"
       x="406.92664"
       y="239.79073"
       id="text4739-4-6"
       sodipodi:linespacing="125%"><tspan
         sodipodi:role="line"
         id="tspan4741-1-1"
         x="406.92664"
         y="239.79073">s</tspan></text>
    <text
       xml:space="preserve"
       style="font-style:normal;font-weight:normal;font-size:27.79935646px;line-height:125%;font-family:sans-serif;letter-spacing:0px;word-spacing:0px;fill:#000000;fill-opacity:1;stroke:none;stroke-width:1px;stroke-linecap:butt;stroke-linejoin:miter;stroke-opacity:1"
       x="421.05292"
       y="233.95427"
       id="text4739-5-5"
       sodipodi:linespacing="125%"><tspan
         sodipodi:role="line"
         id="tspan4741-2-8"
         x="421.05292"
         y="233.95427">/2</tspan></text>
    <text
       xml:space="preserve"
       style="font-style:normal;font-weight:normal;font-size:27.79935646px;line-height:125%;font-family:sans-serif;letter-spacing:0px;word-spacing:0px;fill:#000000;fill-opacity:1;stroke:none;stroke-width:1px;stroke-linecap:butt;stroke-linejoin:miter;stroke-opacity:1"
       x="148.92455"
       y="233.045"
       id="text4739-5-5-9"
       sodipodi:linespacing="125%"><tspan
         sodipodi:role="line"
         id="tspan4741-2-8-1"
         x="148.92455"
         y="233.045">0</tspan></text>
    <path
       style="fill:none;fill-rule:evenodd;stroke:#000000;stroke-width:4.94661331;stroke-linecap:butt;stroke-linejoin:miter;stroke-miterlimit:4;stroke-dasharray:none;stroke-dashoffset:0;stroke-opacity:1"
       d="m 338.4608,182.79449 0,-58.7128"
       id="path4859"
       inkscape:connector-curvature="0" />
    <path
       style="fill:none;fill-rule:evenodd;stroke:#000000;stroke-width:4.94661331;stroke-linecap:butt;stroke-linejoin:miter;stroke-miterlimit:4;stroke-dasharray:none;stroke-dashoffset:0;stroke-opacity:1"
       d="m 484.06938,182.87655 0,-58.71281"
       id="path4859-0"
       inkscape:connector-curvature="0" />
    <text
       xml:space="preserve"
       style="font-style:normal;font-weight:normal;font-size:28.48258209px;line-height:125%;font-family:sans-serif;letter-spacing:0px;word-spacing:0px;fill:#000000;fill-opacity:1;stroke:none;stroke-width:1px;stroke-linecap:butt;stroke-linejoin:miter;stroke-opacity:1"
       x="629.97241"
       y="46.187553"
       id="text4902"
       sodipodi:linespacing="125%"><tspan
         sodipodi:role="line"
         id="tspan4904"
         x="629.97241"
         y="46.187553">aliases</tspan></text>
    <text
       xml:space="preserve"
       style="font-style:normal;font-weight:normal;font-size:14.90501595px;line-height:125%;font-family:sans-serif;letter-spacing:0px;word-spacing:0px;fill:#000000;fill-opacity:1;stroke:none;stroke-width:1px;stroke-linecap:butt;stroke-linejoin:miter;stroke-opacity:1"
       x="571.89795"
       y="255.10536"
       id="text4739-0"
       sodipodi:linespacing="125%"><tspan
         sodipodi:role="line"
         id="tspan4741-8"
         x="571.89795"
         y="255.10536">(sampling frequency)</tspan></text>
    <path
       style="fill:none;fill-rule:evenodd;stroke:#000000;stroke-width:6.18326664;stroke-linecap:butt;stroke-linejoin:miter;stroke-miterlimit:4;stroke-dasharray:none;stroke-opacity:1"
       d="m 655.05212,184.04429 497.18498,0"
       id="path4686-3"
       inkscape:connector-curvature="0" />
    <text
       xml:space="preserve"
       style="font-style:normal;font-weight:normal;font-size:27.79935646px;line-height:125%;font-family:sans-serif;letter-spacing:0px;word-spacing:0px;fill:#000000;fill-opacity:1;stroke:none;stroke-width:1px;stroke-linecap:butt;stroke-linejoin:miter;stroke-opacity:1"
       x="867.24249"
       y="244.35954"
       id="text4739-5-6"
       sodipodi:linespacing="125%"><tspan
         sodipodi:role="line"
         id="tspan4741-2-1"
         x="867.24249"
         y="244.35954">3f</tspan></text>
    <text
       xml:space="preserve"
       style="font-style:normal;font-weight:normal;font-size:25.33305168px;line-height:125%;font-family:sans-serif;letter-spacing:0px;word-spacing:0px;fill:#000000;fill-opacity:1;stroke:none;stroke-width:1px;stroke-linecap:butt;stroke-linejoin:miter;stroke-opacity:1"
       x="890.82562"
       y="249.72919"
       id="text4739-4-6-9"
       sodipodi:linespacing="125%"><tspan
         sodipodi:role="line"
         id="tspan4741-1-1-8"
         x="890.82562"
         y="249.72919">s</tspan></text>
    <text
       xml:space="preserve"
       style="font-style:normal;font-weight:normal;font-size:27.79935646px;line-height:125%;font-family:sans-serif;letter-spacing:0px;word-spacing:0px;fill:#000000;fill-opacity:1;stroke:none;stroke-width:1px;stroke-linecap:butt;stroke-linejoin:miter;stroke-opacity:1"
       x="906.9519"
       y="243.89272"
       id="text4739-5-5-3"
       sodipodi:linespacing="125%"><tspan
         sodipodi:role="line"
         id="tspan4741-2-8-9"
         x="906.9519"
         y="243.89272">/2</tspan></text>
    <path
       style="fill:none;fill-rule:evenodd;stroke:#000000;stroke-width:6.18326664;stroke-linecap:butt;stroke-linejoin:miter;stroke-miterlimit:4;stroke-dasharray:none;stroke-opacity:1"
       d="m 904.31329,169.45703 0,31.23021"
       id="path4688-7-3"
       inkscape:connector-curvature="0" />
    <text
       xml:space="preserve"
       style="font-style:normal;font-weight:normal;font-size:27.79935646px;line-height:125%;font-family:sans-serif;letter-spacing:0px;word-spacing:0px;fill:#000000;fill-opacity:1;stroke:none;stroke-width:1px;stroke-linecap:butt;stroke-linejoin:miter;stroke-opacity:1"
       x="1125.432"
       y="241.59372"
       id="text4739-5-6-7"
       sodipodi:linespacing="125%"><tspan
         sodipodi:role="line"
         id="tspan4741-2-1-0"
         x="1125.432"
         y="241.59372">2f</tspan></text>
    <text
       xml:space="preserve"
       style="font-style:normal;font-weight:normal;font-size:25.33305168px;line-height:125%;font-family:sans-serif;letter-spacing:0px;word-spacing:0px;fill:#000000;fill-opacity:1;stroke:none;stroke-width:1px;stroke-linecap:butt;stroke-linejoin:miter;stroke-opacity:1"
       x="1151.0153"
       y="246.96336"
       id="text4739-4-6-9-8"
       sodipodi:linespacing="125%"><tspan
         sodipodi:role="line"
         id="tspan4741-1-1-8-4"
         x="1151.0153"
         y="246.96336">s</tspan></text>
    <path
       style="fill:none;fill-rule:evenodd;stroke:#000000;stroke-width:6.18326664;stroke-linecap:butt;stroke-linejoin:miter;stroke-miterlimit:4;stroke-dasharray:none;stroke-opacity:1"
       d="m 1150.7927,168.86877 0,31.23021"
       id="path4688-7-3-2"
       inkscape:connector-curvature="0" />
    <path
       style="fill:none;fill-rule:evenodd;stroke:#000000;stroke-width:4.11779404;stroke-linecap:butt;stroke-linejoin:miter;stroke-miterlimit:4;stroke-dasharray:4.1177939, 4.1177939;stroke-dashoffset:0;stroke-opacity:1"
       d="m 1153.1457,183.89562 38.825,0"
       id="path5044"
       inkscape:connector-curvature="0" />
    <path
       style="fill:none;fill-rule:evenodd;stroke:#000000;stroke-width:4.94661331;stroke-linecap:butt;stroke-linejoin:miter;stroke-miterlimit:4;stroke-dasharray:none;stroke-dashoffset:0;stroke-opacity:1"
       d="m 830.92077,182.62166 0,-58.7128"
       id="path4859-00"
       inkscape:connector-curvature="0" />
    <path
       style="fill:none;fill-rule:evenodd;stroke:#000000;stroke-width:4.94661331;stroke-linecap:butt;stroke-linejoin:miter;stroke-miterlimit:4;stroke-dasharray:none;stroke-dashoffset:0;stroke-opacity:1"
       d="m 976.52934,182.70372 0,-58.7128"
       id="path4859-0-1"
       inkscape:connector-curvature="0" />
    <path
       style="fill:none;fill-rule:evenodd;stroke:#000000;stroke-width:0.82355881px;stroke-linecap:butt;stroke-linejoin:miter;stroke-opacity:1"
       d="m 625.78334,51.769016 c -11.09227,0 -22.18454,0 -33.2768,0 -10.53765,0 -21.07531,0 -31.61296,0 -2.49576,0 -4.99152,0 -7.48728,0 -1.66384,0 -3.32768,0 -4.99152,0 -0.83192,0 -1.67516,-0.136767 -2.49576,0 -0.86499,0.144165 -1.64503,0.619236 -2.49576,0.831921 -1.38654,0.277306 -2.77306,0.554613 -4.1596,0.831919 -0.55462,0 -1.11677,-0.09118 -1.66384,0 -1.12781,0.187968 -2.24299,0.470357 -3.32768,0.831921 -5.45935,1.819783 4.83593,-0.169083 -5.82344,2.49576 -0.80708,0.20177 -1.68365,-0.180469 -2.49576,0 -2.56812,0.570692 -4.99152,1.66384 -7.48728,2.495759 -2.49576,0.831921 -4.99152,1.66384 -7.48728,2.495761 -1.66384,0.554613 -3.36312,1.012479 -4.99152,1.663839 -1.15146,0.460582 -2.18292,1.186858 -3.32768,1.66384 -2.80267,1.78857 -6.13748,2.122224 -9.15112,3.32768 -1.96085,0.784342 -3.86259,1.711419 -5.82344,2.495761 -0.8142,0.32568 -1.66384,0.554613 -2.49576,0.831919 -1.56259,0.520865 -5.92469,1.974897 -7.48728,2.49576 -2.49576,0.831921 -4.99152,1.66384 -7.48728,2.495761 -0.83192,0.277306 -1.63972,0.641689 -2.49576,0.831919 -1.64662,0.365916 -3.3449,0.466004 -4.99152,0.831921 -4.07277,0.90506 -1.66447,1.188726 -6.65536,3.327679 -0.50977,0.218473 -1.11999,-0.108768 -1.66384,0 -0.85989,0.171978 -1.63587,0.659942 -2.49576,0.831921 -0.54385,0.108768 -1.12579,-0.134514 -1.66384,0 -2.88039,-0.870532 -4.37721,1.84486 -6.65536,2.495759 -1.35959,0.388454 -2.78783,0.488977 -4.1596,0.831921 -0.51675,0.129186 -4.47478,1.53465 -4.99152,1.663842 -1.37178,0.342938 -2.75982,0.63195 -4.1596,0.831918 -5.04876,0.721248 3.9049,-1.947606 -5.82344,0.831918 -5.11805,1.462303 3.42127,0.462016 -4.99152,1.663844 -0.82356,0.117645 -1.75167,-0.372051 -2.49576,0 -1.05231,0.526147 -1.48691,1.890446 -2.49576,2.495762 -0.47558,0.285338 -1.11678,-0.09118 -1.66384,0 -2.14671,-0.860298 -3.27174,1.319876 -4.99152,1.663836 -0.81577,0.163155 -1.68,-0.163156 -2.49576,0 -0.60803,0.121606 -1.10923,0.554609 -1.66384,0.831918 -1.10923,0.277308 -2.19987,0.643957 -3.32768,0.831926 -0.54707,0.09118 -1.11677,-0.09118 -1.66384,0 -6.91828,1.15304 -0.68399,0.227994 -4.99152,1.663835 -0.98326,2.742794 -2.81817,0.384775 -4.1596,0.831918 -3.32768,1.109226 0.16821,0.798276 -4.1596,1.663846 -0.54384,0.10877 -1.13769,-0.17539 -1.66384,0 -0.37205,0.12401 -0.45146,0.7368 -0.83192,0.83192 -0.80708,0.20177 -1.67999,-0.16316 -2.49576,0 -0.60804,0.1216 -1.10923,0.55461 -1.66384,0.83191 -1.10922,0.55462 -2.21845,1.10923 -3.32768,1.66385 -0.55462,0.2773 -1.06227,0.68153 -1.66384,0.83192 -0.53806,0.13451 -1.13769,-0.17539 -1.66384,0 -0.37205,0.12402 -0.50561,0.61438 -0.83192,0.83191 -1.21234,0.80824 -1.73278,0.51937 -2.49576,1.66385 -0.34396,0.51593 -0.39346,1.22538 -0.83192,1.66383 -0.43846,0.43847 -1.22538,0.39347 -1.66384,0.83193 -0.43846,0.43845 -0.39346,1.22537 -0.83192,1.66384 -0.39742,0.39742 -2.14095,1.18673 -2.49576,0.83191 -0.19609,-0.19608 0,-0.55461 0,-0.83191 0,-1.94115 0,-3.8823 0,-5.82345 0,-0.66383 -0.16637,-3.66048 0,-4.15959 0.19608,-0.58826 0.68153,-1.06228 0.83192,-1.66384 0.13451,-0.538055 0,-1.109226 0,-1.663844 0,-0.277308 -0.12401,-0.583886 0,-0.831917 0.17538,-0.350771 0.61438,-0.505616 0.83192,-0.831918 0.34396,-0.515935 0.55461,-1.109227 0.83192,-1.663844 0.2773,-0.55461 0.63583,-1.075585 0.83192,-1.663836 0.0877,-0.263078 -0.19609,-0.635837 0,-0.831926 0.43846,-0.438455 1.1479,-0.487959 1.66384,-0.831918 0.32631,-0.217535 0.50561,-0.614383 0.83192,-0.831918 0.51594,-0.343959 1.1479,-0.487967 1.66384,-0.831926 0.32631,-0.217535 0.50561,-0.614375 0.83192,-0.831918 6.03191,-3.015951 -1.31538,0.876925 2.49576,-1.663836 0.51593,-0.343959 1.22538,-0.393463 1.66384,-0.831926 2.02057,-2.020565 -0.24739,-1.221606 1.66384,-2.495756 3.02192,-2.014609 0.58831,0.243615 2.49576,-1.66384"
       id="path5066"
       inkscape:connector-curvature="0" />
    <path
       style="fill:none;fill-rule:evenodd;stroke:#000000;stroke-width:0.82355881px;stroke-linecap:butt;stroke-linejoin:miter;stroke-opacity:1"
       d="m 363.72854,112.49917 c 1.37749,2.06609 3.39129,0.29852 4.99152,0.83193 0.37205,0.12401 0.45988,0.7079 0.83192,0.83192 0.52616,0.17538 1.13769,-0.17539 1.66384,0 0.37205,0.12401 0.45987,0.7079 0.83192,0.83192 0.52615,0.17537 1.10923,0 1.66384,0 0.55462,0 1.10922,0 1.66384,0 2.77306,0 5.54614,0 8.3192,0 2.30701,0 -1.32798,-0.12402 2.49576,0.83191 0.53806,0.13452 1.10923,0 1.66384,0 0.55461,0 1.10923,0 1.66384,0 2.49576,0 4.99152,0 7.48728,0"
       id="path5068"
       inkscape:connector-curvature="0" />
    <path
       style="fill:none;fill-rule:evenodd;stroke:#000000;stroke-width:0.82355881px;stroke-linecap:butt;stroke-linejoin:miter;stroke-opacity:1"
       d="m 507.6507,64.247817 c -0.57701,1.287104 0.3933,5.082142 0,6.65536 -0.15039,0.601562 -0.39346,1.225379 -0.83192,1.663839 -0.707,0.706997 -1.71501,1.039244 -2.49576,1.66384 -0.61247,0.489975 -1.10923,1.109227 -1.66384,1.66384 -0.55462,0.554614 -1.19324,1.036367 -1.66384,1.66384 -0.37204,0.496062 -0.45988,1.167779 -0.83192,1.66384 -0.47061,0.627474 -1.19324,1.036367 -1.66384,1.66384 -1.09036,1.453819 -0.82495,2.481825 -1.66384,4.1596 -0.17538,0.350769 -0.61438,0.505614 -0.83192,0.831921 -0.34396,0.515935 -0.48796,1.147907 -0.83192,1.663842 -0.21754,0.326302 -0.61439,0.505616 -0.83192,0.831918 -0.34396,0.515935 -0.48796,1.147901 -0.83192,1.663836 -0.21753,0.32631 -0.65654,0.481156 -0.83192,0.831926 -2.06298,0.785098 -0.47036,2.242987 -0.83192,3.32768 -0.19608,0.588251 -0.63583,1.075584 -0.83192,1.663836 -0.26308,0.789232 0.20177,1.688682 0,2.495761 -0.15039,0.601561 -0.68153,1.062276 -0.83192,1.663834 -0.13451,0.53806 0,1.10923 0,1.66385 -0.27731,0.55461 -0.68153,1.06227 -0.83192,1.66383 -0.13452,0.53806 0.10877,1.12 0,1.66385 -0.17198,0.85989 -0.65994,1.63586 -0.83192,2.49576 -0.10877,0.54384 0.13452,1.12578 0,1.66383 -0.15039,0.60157 -0.55461,1.10923 -0.83192,1.66385 -0.27731,0.83192 -0.65994,1.63587 -0.83192,2.49576 -0.10877,0.54384 0.17539,1.13768 0,1.66384 -0.12402,0.37204 -0.70791,0.45986 -0.83192,0.83191 -0.17538,0.52615 0.17538,1.13769 0,1.66384 -0.12402,0.37205 -0.55461,1.10923 -0.83192,0.83193 -0.2773,-0.27731 1.22409,-0.83193 0.83192,-0.83193 -0.62008,0 -1.06228,0.68154 -1.66384,0.83193 -0.53806,0.13451 -1.10923,0 -1.66384,0 -0.20176,0 -2.46901,0.0268 -2.49576,0 -1.71955,-1.71955 -0.49043,-1.12978 -0.83192,-2.49577 -0.21269,-0.85073 -0.65994,-1.63586 -0.83192,-2.49575 -0.10877,-0.54385 0.13451,-1.12579 0,-1.66384 -0.15039,-0.60156 -0.71031,-1.05581 -0.83192,-1.66384 -0.16316,-0.81577 0,-1.66384 0,-2.49576 0,-0.55462 0.17538,-1.13769 0,-1.66385 -0.12401,-0.37204 -0.70791,-0.45987 -0.83192,-0.83191 -0.17538,-0.52616 0.17539,-1.13769 0,-1.66385 -0.12402,-0.37204 -0.61438,-0.50561 -0.83192,-0.83192 -0.68792,-1.03187 -1.02579,-2.26426 -1.66384,-3.327676 -0.28727,-2.392644 -1.58211,-1.957195 -2.49576,-3.327679 -0.34395,-0.515935 -0.31599,-1.319885 -0.83192,-1.663836 -0.27065,-0.180434 -3.53132,0 -4.1596,0"
       id="path5070"
       inkscape:connector-curvature="0" />
    <path
       style="fill:none;fill-rule:evenodd;stroke:#000000;stroke-width:0.82355881px;stroke-linecap:butt;stroke-linejoin:miter;stroke-opacity:1"
       d="m 484.35694,118.32262 c 2.21845,0 4.43691,0 6.65536,0 0.55462,0 1.13769,0.17538 1.66384,0 0.37205,-0.12402 0.50561,-0.61439 0.83192,-0.83193 0.75995,-0.50663 2.0189,-0.7101 2.49576,-1.66384 0.12401,-0.24803 -0.15382,-0.60119 0,-0.83191 0.43507,-0.65262 1.19323,-1.03637 1.66384,-1.66384 0.37205,-0.49606 0.39346,-1.22538 0.83192,-1.66384 0.43846,-0.43847 1.22538,-0.39346 1.66384,-0.83192 0.43846,-0.43846 0.48796,-1.14791 0.83192,-1.66385 0.8161,-1.22414 2.51158,-2.10352 3.32768,-3.32768 0.34396,-0.51593 0.48796,-1.1479 0.83192,-1.66383 0.43507,-0.65261 1.10922,-1.10923 1.66384,-1.66385"
       id="path5072"
       inkscape:connector-curvature="0" />
    <path
       style="fill:none;fill-rule:evenodd;stroke:#000000;stroke-width:0.82355881px;stroke-linecap:butt;stroke-linejoin:miter;stroke-opacity:1"
       d="m 718.12646,60.920136 c 6.65536,0 13.31072,0 19.96608,0 11.09227,0 22.18453,0 33.2768,0 4.1596,0 8.31919,0 12.4788,0 0.86513,0 4.33712,-0.1636 4.99152,0 1.72004,0.430012 2.99306,2.161148 4.1596,3.327681 0.83192,0.831919 1.7608,1.577057 2.49576,2.495759 0.86616,1.082701 1.6296,2.24498 2.49576,3.32768 0.24498,0.306235 0.59662,0.518184 0.83192,0.831921 0.5999,0.799874 1.14942,1.638401 1.66384,2.49576 0.31902,0.531711 0.45988,1.167778 0.83192,1.66384 0.4706,0.627472 1.19324,1.036366 1.66384,1.66384 1.96941,2.625889 -0.6252,1.038642 2.49576,4.159599 0.43846,0.438461 1.13213,0.512894 1.66384,0.83192 0.85736,0.514416 1.78876,0.956845 2.49576,1.66384 0.70699,0.706997 1.03924,1.715014 1.66384,2.495761 1.36179,1.702245 3.70558,3.27693 4.99152,4.991522 0.74409,0.992116 0.97593,2.29581 1.66384,3.32768 0.21753,0.326302 0.65654,0.481147 0.83192,0.831918 0.21994,0.439895 -0.10133,2.922373 0,3.327679 0.15039,0.601561 0.71031,1.055803 0.83192,1.663844 0.16315,0.81576 -0.16315,1.67999 0,2.49575 0.12161,0.60805 0.63583,1.07559 0.83192,1.66385 0.0877,0.26308 -0.0877,0.56884 0,0.83192 0.19608,0.58826 0.63584,1.07558 0.83192,1.66383 0.0877,0.26308 0.27731,0.83193 0,0.83193 -0.27731,0 0,-1.10923 0,-0.83193 0,0.83193 0.74409,2.12372 0,2.49576 -0.70154,0.35077 -1.03637,-1.19323 -1.66384,-1.66383 -3.36216,-2.52162 -0.39518,-0.13173 -2.49576,-0.83193 -0.58826,-0.19608 -1.07559,-0.63583 -1.66384,-0.83192 -0.26307,-0.0877 -0.56885,0.0877 -0.83192,0 -0.58825,-0.19608 -1.06228,-0.68152 -1.66384,-0.83191 -0.53805,-0.13452 -1.13769,0.17538 -1.66384,0 -0.37205,-0.12402 -0.45988,-0.70791 -0.83192,-0.83192 -0.52616,-0.17539 -1.12579,0.13451 -1.66384,0 -0.60156,-0.15039 -1.06228,-0.68153 -1.66384,-0.83193 -0.53806,-0.13451 -1.12579,0.13452 -1.66384,0 -0.60156,-0.15039 -1.06228,-0.68153 -1.66384,-0.83192 -0.53806,-0.13451 -1.13769,0.17539 -1.66384,0 -0.37205,-0.12401 -0.50562,-0.61438 -0.83192,-0.83191 -2.5607,-1.707134 -0.76698,0.0433 -3.32768,-1.66385 -0.3263,-0.217533 -0.48115,-0.656531 -0.83192,-0.831916 -0.24803,-0.124011 -0.56885,0.08769 -0.83192,0 -0.58826,-0.196081 -1.06228,-0.681527 -1.66384,-0.831918 -0.53806,-0.134511 -1.13769,0.175386 -1.66384,0 -0.37205,-0.124019 -0.45987,-0.707906 -0.83192,-0.831917 -0.52615,-0.175386 -1.10923,0 -1.66384,0 -0.55462,0 -1.10923,0 -1.66384,0 -1.66384,0 -3.32768,0 -4.99152,0"
       id="path5074"
       inkscape:connector-curvature="0" />
    <path
       style="fill:none;fill-rule:evenodd;stroke:#000000;stroke-width:0.82355881px;stroke-linecap:butt;stroke-linejoin:miter;stroke-opacity:1"
       d="m 823.7803,110.00342 c 1.78785,-3.57571 1.66383,-2.08753 1.66383,-4.15961 0,-0.55461 -0.13451,-1.12578 0,-1.66383 0.15039,-0.60156 0.68154,-1.06228 0.83193,-1.66385 0.13451,-0.53804 0,-1.10922 0,-1.66383 0,-0.55462 0,-1.109228 0,-1.663846 0,-2.218453 0,-4.436906 0,-6.655359 0,-0.865132 -0.1636,-4.337116 0,-4.991516 0.15039,-0.601568 0.63583,-1.075587 0.83192,-1.663842 0.0877,-0.263077 0,-0.554614 0,-0.831921 0,-0.554613 0,-1.109226 0,-1.66384"
       id="path5076"
       inkscape:connector-curvature="0" />
    <path
       style="fill:none;fill-rule:evenodd;stroke:#000000;stroke-width:0.82355881px;stroke-linecap:butt;stroke-linejoin:miter;stroke-opacity:1"
       d="m 789.67157,60.920136 c 10.53766,0 21.07532,0 31.61297,0 3.05037,0 6.10075,0 9.15112,0 0.55461,0 1.1148,0.07844 1.66383,0 1.39979,-0.199968 2.75982,-0.631951 4.15961,-0.831919 0.54903,-0.07844 1.10923,0 1.66384,0 2.49576,0 4.99152,0 7.48728,0 0.83192,0 1.67515,0.136766 2.49576,0 1.12781,-0.187969 2.19987,-0.643952 3.32771,-0.831921 0.54701,-0.09118 1.10917,0 1.66383,0 1.38655,0 2.77301,0 4.15955,0 4.43693,0 8.87385,0 13.31077,0 4.15955,0 8.31918,0 12.47881,0 1.38654,0 2.77301,0 4.15955,0 0.55467,0 1.11683,-0.09118 1.66384,0 1.10925,0.277307 2.2185,0.554614 3.32767,0.831921 0.27737,0.277306 0.46786,0.686271 0.83196,0.831919 1.06156,0.424635 2.20647,0.607689 3.32767,0.831921 0.27194,0.05439 0.55458,0 0.83187,0 1.10926,0.277306 2.20657,0.607687 3.32776,0.831919 0.27185,0.05439 0.58382,-0.124015 0.83187,0 3.30198,1.650991 -3.67677,0.262941 3.32768,1.663841 0.54387,0.108768 1.13774,-0.175384 1.66383,0 0.37209,0.124015 0.45988,0.707904 0.83196,0.831919 0.52617,0.175385 1.12581,-0.134513 1.66384,0 0.60152,0.150391 1.08808,0.60163 1.66383,0.831921 0.81417,0.325679 1.71144,0.439749 2.49572,0.831919 0.35083,0.175385 0.50566,0.614383 0.83195,0.831921 0.51596,0.343956 1.10926,0.554613 1.66384,0.831919 0.55458,0.277307 1.08809,0.60163 1.66384,0.831921 0.81417,0.32568 1.7438,0.380747 2.49579,0.831919 6.1127,3.667628 0.16027,0.24038 1.66384,2.49576 0.87009,1.305224 2.34772,2.102745 3.32767,3.32768 0.62459,0.780747 1.06395,1.695886 1.66383,2.495761 0.70588,0.94121 1.66384,1.66384 2.49572,2.495759 0.27737,0.277307 0.51818,0.596618 0.83196,0.83192 0.79984,0.599906 1.72766,1.023756 2.49579,1.66384 0.90377,0.753185 1.66384,1.66384 2.49571,2.495761 0.55459,0.554613 1.03637,1.193236 1.66384,1.663842 0.49611,0.372043 1.22537,0.393455 1.66383,0.831918 0.43847,0.438463 0.3935,1.225381 0.83196,1.663836 0.43847,0.438462 1.14788,0.487967 1.66384,0.831926 0.32629,0.217535 0.50558,0.614383 0.83188,0.831918 0.65835,0.438866 4.25705,2.250942 4.9915,2.495762 2.47653,0.825494 -1.7069,-1.969879 2.4958,0.831918 0.32629,0.217534 0.55458,0.554617 0.83196,0.831918 0.55458,0.554617 1.10917,1.109226 1.66383,1.663844 0.83188,0.831917 1.8904,1.48691 2.49572,2.495761 0.45122,0.75195 0.38073,1.7438 0.83196,2.49575 0.40354,0.67257 1.19325,1.03637 1.66383,1.66385 0.372,0.49606 0.55459,1.10922 0.83188,1.66383 0.55466,1.10923 1.10925,2.21846 1.66383,3.32768 0.55467,1.10923 1.27174,2.15117 1.66384,3.32768 0.0877,0.26308 0,0.55462 0,0.83193 0,0.2773 0.24806,0.7079 0,0.83192 -0.49603,0.24803 -1.10917,0 -1.66384,0 -1.38654,0 -2.773,0 -4.15954,0 -0.86515,0 -4.33711,0.1636 -4.99151,0 -0.32498,-0.0812 -3.00278,-1.58261 -3.32776,-1.66385 -0.53803,-0.13451 -1.12572,0.13452 -1.66383,0 -1.65206,-0.41302 -3.33937,-2.08273 -4.99151,-2.49575 -0.53803,-0.13452 -1.12572,0.13451 -1.66384,0 -0.60152,-0.1504 -1.07556,-0.63584 -1.66383,-0.83193 -2.10057,-0.70019 0.86638,1.68971 -2.49571,-0.83191 -0.94125,-0.70591 -1.51692,-1.84315 -2.4958,-2.49577 -0.51596,-0.34395 -1.14787,-0.48795 -1.66383,-0.83191 -0.3263,-0.21754 -0.50559,-0.61439 -0.83196,-0.83192 -0.51588,-0.34396 -1.14788,-0.48797 -1.66384,-0.83193 -0.32629,-0.21753 -0.45987,-0.7079 -0.83188,-0.83192 -0.78921,-0.26307 -1.66383,0 -2.49579,0 -1.38654,0 -2.77301,0 -4.15955,0"
       id="path5078"
       inkscape:connector-curvature="0" />
    <path
       style="fill:none;fill-rule:evenodd;stroke:#000000;stroke-width:0.82355881px;stroke-linecap:butt;stroke-linejoin:miter;stroke-opacity:1"
       d="m 961.0471,112.49917 c 0,-9.72551 0,-16.015497 0,-24.125673 0,-1.663844 0,-3.327681 0,-4.991521 0,-0.277306 0.19609,-0.635834 0,-0.831919 -0.19609,-0.196086 -0.56883,0.08769 -0.83188,0 -0.55467,-0.277307 -1.10925,-0.554613 -1.66392,-0.831921 -0.27729,0 -0.56883,0.08769 -0.83187,0 -0.58827,-0.196085 -1.07557,-0.635834 -1.66384,-0.83192 -0.26304,-0.08769 -0.63587,0.196086 -0.83196,0 -0.19609,-0.196085 0.24806,-0.707904 0,-0.831919 -0.49603,-0.248031 -1.10917,0 -1.66383,0 -1.66384,0 -3.32768,0 -4.99151,0"
       id="path5082"
       inkscape:connector-curvature="0" />
  </g>
</svg>
