<?xml version="1.0" encoding="UTF-8" standalone="no"?>
<!-- Created with Inkscape (http://www.inkscape.org/) -->

<svg
   xmlns:dc="http://purl.org/dc/elements/1.1/"
   xmlns:cc="http://creativecommons.org/ns#"
   xmlns:rdf="http://www.w3.org/1999/02/22-rdf-syntax-ns#"
   xmlns:svg="http://www.w3.org/2000/svg"
   xmlns="http://www.w3.org/2000/svg"
   xmlns:sodipodi="http://sodipodi.sourceforge.net/DTD/sodipodi-0.dtd"
   xmlns:inkscape="http://www.inkscape.org/namespaces/inkscape"
   width="226.64456mm"
   height="67.234833mm"
   viewBox="0 0 803.07129 238.23366"
   id="svg5393"
   version="1.1"
   inkscape:version="0.91 r13725"
   sodipodi:docname="baseband2.svg">
  <defs
     id="defs5395" />
  <sodipodi:namedview
     id="base"
     pagecolor="#ffffff"
     bordercolor="#666666"
     borderopacity="1.0"
     inkscape:pageopacity="0.0"
     inkscape:pageshadow="2"
     inkscape:zoom="1.4"
     inkscape:cx="404.69257"
     inkscape:cy="61.251709"
     inkscape:document-units="px"
     inkscape:current-layer="layer1"
     showgrid="false"
     inkscape:window-width="1920"
     inkscape:window-height="1004"
     inkscape:window-x="0"
     inkscape:window-y="24"
     inkscape:window-maximized="1"
     fit-margin-top="0"
     fit-margin-left="0"
     fit-margin-right="0"
     fit-margin-bottom="0" />
  <metadata
     id="metadata5398">
    <rdf:RDF>
      <cc:Work
         rdf:about="">
        <dc:format>image/svg+xml</dc:format>
        <dc:type
           rdf:resource="http://purl.org/dc/dcmitype/StillImage" />
        <dc:title></dc:title>
      </cc:Work>
    </rdf:RDF>
  </metadata>
  <g
     inkscape:label="Layer 1"
     inkscape:groupmode="layer"
     id="layer1"
     transform="translate(-122.22846,-110.2998)">
    <path
       style="fill:none;fill-rule:evenodd;stroke:#000000;stroke-width:1.66317987px;stroke-linecap:butt;stroke-linejoin:miter;stroke-opacity:1"
       d="m 122.22846,252.42359 803.07127,0"
       id="path5941"
       inkscape:connector-curvature="0" />
    <path
       style="fill:none;fill-rule:evenodd;stroke:#000000;stroke-width:1.66317987px;stroke-linecap:butt;stroke-linejoin:miter;stroke-opacity:1"
       d="m 828.40296,251.37073 c 0,-5.54392 0,-11.08785 0,-16.6318 0,-1.58398 0,-3.16795 0,-4.75193 0,-0.79199 0.13023,-1.59476 0,-2.37597 -0.26842,-1.61051 -0.792,-3.16796 -1.18799,-4.75194 -0.198,-0.79199 -0.50384,-1.5646 -0.59399,-2.37597 -0.10927,-0.98394 0.0705,-1.98249 0,-2.96997 -0.82146,-11.50038 -0.0966,-1.17371 -1.18799,-7.72191 -0.26243,-1.57459 -0.33155,-3.17734 -0.59399,-4.75194 -0.47139,-2.82831 -0.98979,-2.77114 -1.78198,-5.93993 -0.096,-0.38416 0,-0.79199 0,-1.18798 0,-0.594 0,-1.18799 0,-1.78198 0,-0.396 0.12524,-0.81231 0,-1.18799 -1.68299,-5.04894 -0.2475,-0.84149 -2.37597,-2.96996 -0.70003,-0.70003 -1.25729,-1.53646 -1.78198,-2.37597 -0.4693,-0.75088 -0.73241,-1.61669 -1.18799,-2.37597 -1.28354,-2.13925 -2.49432,-3.56323 -3.56395,-5.34594 -0.22779,-0.37964 -0.37433,-0.80358 -0.594,-1.18799 -0.5728,-1.0024 -1.3766,-1.88896 -1.78196,-2.96996 -0.20858,-0.55617 0.18782,-1.21846 0,-1.78198 -0.22576,-0.67725 -0.8207,-1.16982 -1.188,-1.78198 -1.84154,-3.06922 1.42651,1.45693 -1.78198,-4.15795 -0.27785,-0.48623 -0.87734,-0.72202 -1.18797,-1.18798 -1.32915,-1.05652 -1.00618,-2.86494 -1.78199,-4.15795 -0.28812,-0.48022 -0.79199,-0.79199 -1.18799,-1.18799 -0.39598,-1.18798 -0.7483,-2.39144 -1.18797,-3.56396 -0.15551,-0.41453 -0.39601,-0.79199 -0.59401,-1.18798 -0.59399,-1.18799 -1.18798,-2.37597 -1.78198,-3.56396 -0.39599,-0.79199 -0.90796,-1.53593 -1.18798,-2.37597 -0.12523,-0.37568 0.15601,-0.82401 0,-1.18799 -0.45479,-1.06116 -1.20918,-1.96756 -1.78198,-2.96996 -0.21965,-0.38439 -0.28092,-0.87492 -0.59399,-1.18799 -0.31306,-0.31306 -0.79198,-0.39599 -1.18799,-0.59399 -0.39598,-0.59399 -0.68318,-1.27717 -1.18797,-1.78198 -0.31308,-0.31306 -0.80836,-0.3662 -1.188,-0.59399 -0.61215,-0.3673 -1.27719,-0.68318 -1.78198,-1.18799 -0.31306,-0.31306 -0.32834,-0.83379 -0.59399,-1.18798 -0.50402,-0.67202 -1.18799,-1.18799 -1.78198,-1.78198 -0.396,-0.39599 -0.79199,-0.79199 -1.18799,-1.18799 -0.19798,-0.19799 -0.36101,-0.43867 -0.59399,-0.59399 -0.29912,-1.30866 -1.22195,-0.31397 -1.78198,-0.59399 -0.25044,-0.12524 -0.34354,-0.46877 -0.59399,-0.59399 -0.56002,-0.28001 -1.20063,-0.36145 -1.78198,-0.594 -0.82214,-0.32884 -1.51693,-0.97323 -2.37597,-1.18798 -0.38417,-0.096 -0.81231,0.12524 -1.18799,0 -0.26564,-0.0885 -0.36101,-0.43868 -0.59399,-0.594 -0.36837,-0.24559 -0.87491,-0.28093 -1.18797,-0.59399 -0.31308,-0.31306 -0.28095,-0.87492 -0.59401,-1.18798 -0.31306,-0.31306 -0.87491,-0.28094 -1.18797,-0.594 -0.14004,-0.14004 0.11875,-0.43559 0,-0.59399 -0.50403,-0.67202 -1.25722,-1.12602 -1.78199,-1.78198 -0.27657,-0.34571 -0.396,-0.79199 -0.59398,-1.18798 -0.198,-0.396 -0.454,-0.76797 -0.59401,-1.18799 -0.25816,-0.77447 -0.43389,-1.57546 -0.59399,-2.37597 -0.0387,-0.19416 0.0885,-0.41689 0,-0.59399 -0.67778,-1.35555 -1.33744,-1.63636 -1.78198,-2.96997 -0.57947,-1.73839 -0.29501,-2.2245 -1.18797,-3.56396 -0.54915,-0.82371 -1.16355,-1.60291 -1.78198,-2.37597 -0.17494,-0.21864 -0.43868,-0.36101 -0.59401,-0.59399 -0.24558,-0.36838 -0.28093,-0.87491 -0.59399,-1.18799 -0.31306,-0.31306 -0.87491,-0.28093 -1.18797,-0.59399 -0.31308,-0.31306 -0.22563,-0.94239 -0.59401,-1.18797 -0.32947,-0.21968 -0.80381,0.096 -1.18797,0 -0.42952,-0.10745 -0.76798,-0.454 -1.188,-0.59401 -0.18784,-0.0625 -0.40615,0.0625 -0.59398,0 -0.42002,-0.14004 -0.76798,-0.45398 -1.188,-0.59399 -0.18784,-0.0625 -0.39598,0 -0.59399,0 -0.396,0 -0.79199,0 -1.18799,0 -1.58398,0 -3.16796,0 -4.75194,0 -1.18797,0 -2.37597,0 -3.56396,0 -0.4863,0 -2.5851,-0.12823 -2.96995,0 -0.42002,0.14004 -0.81962,0.34841 -1.188,0.59399 -0.27043,0.18031 -2.27997,2.18401 -2.37597,2.37597 -0.0885,0.17709 0.0627,0.40616 0,0.594 -0.14004,0.42002 -0.45398,0.76798 -0.59398,1.18798 -0.0627,0.18784 0,0.396 0,0.59401 -0.19801,0.39598 -0.39601,0.79198 -0.59399,1.18797 -2.15341,4.30681 0.62612,-0.93918 -1.188,1.78198 -0.24558,0.36838 -0.3484,0.81962 -0.59398,1.18799 -0.15534,0.23298 -0.39601,0.39599 -0.59399,0.59399 -0.396,0.39599 -0.87735,0.72202 -1.18799,1.18798 -0.10977,0.16482 0.0625,0.40616 0,0.594 -0.14004,0.42002 -0.45399,0.76798 -0.59399,1.18798 -0.58942,1.76823 1.40648,-1.21875 -0.59401,1.78198 -0.15534,0.23298 -0.43866,0.36101 -0.59399,0.59399 -1.43843,2.15766 0.17394,0.42005 -1.18797,1.78198 -0.198,0.198 -0.34355,0.46877 -0.59401,0.594 -1.01039,0.5052 -0.5643,-1.30677 -1.18797,1.18798 -0.1921,0.76834 0.15534,1.59936 0,2.37597 -0.12275,0.61396 -0.31399,1.22195 -0.59401,1.78198 -0.9057,1.81142 -0.47089,-1.08637 -1.18797,1.78198 -0.096,0.38418 0.21965,0.8585 0,1.18799 -0.72136,0.36066 -1.32845,0.50769 -1.78198,1.18798 -0.24559,0.36838 -0.34841,0.81962 -0.59399,1.18799 -0.90617,1.35924 -0.4702,-0.37142 -1.188,1.78198 -0.0625,0.18783 0.0625,0.40615 0,0.59399 -0.14003,0.42002 -0.45398,0.76798 -0.59398,1.18798 -0.12823,0.38486 0,2.48367 0,2.96997 0,1.78198 0,3.56396 0,5.34593 0,0.396 0,0.792 0,1.18799 0,0.396 0.096,0.80382 0,1.18799 -0.10744,0.42952 -0.48662,0.75846 -0.59399,1.18798 -0.14403,0.57626 0.18782,1.21846 0,1.78198 -0.14004,0.42002 -0.48663,0.75848 -0.59401,1.18799 -0.23292,0.93175 0.23295,2.03821 0,2.96996 -0.10744,0.42952 -0.45398,0.76797 -0.59398,1.18799 -0.11476,0.34408 0,1.86122 0,2.37597 0,1.97997 0,3.95995 0,5.93993 0,0.4863 0.12823,2.5851 0,2.96996 -0.14004,0.42002 -0.39601,0.79199 -0.59399,1.18799 -0.198,0.39599 -0.39601,0.79199 -0.59401,1.18798 -0.19798,0.396 -0.48661,0.75848 -0.59398,1.18799 -0.096,0.38416 0.12523,0.81232 0,1.18798 -0.0885,0.26564 -0.50545,0.32836 -0.59399,0.594 -0.2459,0.73771 0.19524,2.18896 0,2.96996 -0.10744,0.42952 -0.48662,0.75848 -0.59399,1.18799 -0.096,0.38416 0,0.79199 0,1.18798 0,0.198 0.10977,0.42925 0,0.59399 -0.31065,0.46597 -0.79201,0.792 -1.18799,1.18799 -0.19801,0.198 -0.36101,0.43866 -0.59399,0.59399 -0.36838,0.24558 -0.81962,0.34842 -1.18799,0.594 -0.23298,0.15534 -0.36101,0.43867 -0.59399,0.59399 -1.15664,0.77108 -1.0901,0.59399 -2.37597,0.59399 -0.396,0 -0.81232,-0.12524 -1.18799,0 -0.26565,0.0885 -0.32835,0.50546 -0.59399,0.59399 -0.37568,0.12523 -0.79199,0 -1.188,0 -0.39598,0 -0.79198,0 -1.18797,0 -1.386,0 -2.77197,0 -4.15795,0 -0.31732,0 -2.79996,0.085 -2.96997,0 -0.25045,-0.12524 -0.43867,-0.36101 -0.59399,-0.59399 -0.24559,-0.36838 -0.39601,-0.79199 -0.59399,-1.18798 -0.198,-0.396 -0.48661,-0.75847 -0.59401,-1.18799 -0.096,-0.38418 0.12524,-0.81231 0,-1.18799 -0.0885,-0.26563 -0.50544,-0.32835 -0.59398,-0.59399 -0.24591,-0.73771 0.19524,-2.18898 0,-2.96996 -0.10745,-0.42952 -0.45399,-0.76797 -0.59399,-1.18799 -0.0625,-0.18784 0.0625,-0.40615 0,-0.59399 -0.14004,-0.42002 -0.48662,-0.75848 -0.59399,-1.18799 -0.096,-0.38416 0.12524,-0.81232 0,-1.18798 -0.0885,-0.26564 -0.43868,-0.36101 -0.594,-0.594 -0.24559,-0.36838 -0.34841,-0.8196 -0.59399,-1.18798 -0.15534,-0.23298 -0.50544,-0.32834 -0.59399,-0.59399 -0.12524,-0.37568 0.17709,-0.8338 0,-1.18799 -0.0885,-0.1771 -0.396,0 -0.59401,0 -0.39598,0 -0.79199,0 -1.18797,0 -0.20236,0 -2.05451,0.10711 -2.37597,0 -0.42002,-0.14004 -0.76797,-0.45398 -1.18799,-0.59399 -0.34408,-0.11476 -1.86123,0 -2.37597,0 -8.90989,0 -17.81979,0 -26.72968,0 -2.77197,0 -5.54393,0 -8.3159,0 -0.38223,0 -3.75596,-0.10045 -4.15795,0 -0.42952,0.10744 -0.79199,0.39599 -1.18799,0.59399 -0.39599,0.198 -0.8196,0.3484 -1.18798,0.59399 -0.23298,0.15534 -0.396,0.396 -0.59399,0.594 -0.396,0.39599 -0.85198,0.73997 -1.18799,1.18798 -0.26564,0.35419 -0.32835,0.8338 -0.59399,1.18799 -0.33601,0.44801 -0.79199,0.79199 -1.18799,1.18798 -0.95006,0.95006 -1.73862,1.69529 -2.37597,2.96997 -0.0885,0.1771 0,0.39599 0,0.59399 -0.198,0.396 -0.3484,0.81961 -0.59399,1.18799 -0.54477,0.81716 -0.91636,0.6109 -1.78198,1.18798 -0.23298,0.15534 -0.396,0.396 -0.59399,0.59399 -0.396,0.396 -0.79199,0.792 -1.18799,1.18799 -0.198,0.198 -0.39599,0.396 -0.59399,0.59399 -0.198,0.198 -0.50546,0.32836 -0.594,0.594 -0.12524,0.37566 0.12523,0.8123 0,1.18798 -0.0885,0.26564 -0.43867,0.36101 -0.59399,0.59399 -0.24559,0.36839 -0.3484,0.81961 -0.59399,1.18799 -0.15534,0.23298 -0.43866,0.36101 -0.59399,0.59399 -0.24558,0.36837 -0.34842,0.81961 -0.594,1.18799 -0.15534,0.23298 -0.43867,0.36101 -0.59399,0.59399 -0.24559,0.36838 -0.39599,0.79199 -0.59399,1.18799 -0.396,0.79199 -0.85913,1.55383 -1.18799,2.37597 -0.23253,0.58133 -0.36146,1.20063 -0.59399,1.78198 -0.16449,0.41107 -0.48661,0.75846 -0.59399,1.18798 -0.096,0.38417 0.0777,0.79969 0,1.18799 -0.39401,1.97002 -0.5544,1.38598 -1.18799,2.96996 -0.23253,0.58134 -0.36146,1.20065 -0.59399,1.78198 -0.56297,1.4074 -0.63698,1.23097 -1.78198,2.37597 -0.198,0.198 -0.50544,0.32836 -0.59399,0.594 -0.12524,0.37566 0.12524,0.8123 0,1.18798 -0.0885,0.26564 -0.50545,0.32836 -0.594,0.59399 -0.12524,0.37567 0.12523,0.81231 0,1.18799 -0.0885,0.26564 -0.50544,0.32834 -0.59399,0.59399 -0.12524,0.37568 0.21966,0.8585 0,1.18799 -0.24559,0.36838 -0.8196,0.3484 -1.18799,0.59399 -0.23298,0.15534 -0.361,0.43868 -0.59399,0.59399 -0.36838,0.2456 -0.79199,0.396 -1.18798,0.594 -0.396,0.198 -0.75847,0.48661 -1.18799,0.59399 -0.38418,0.0961 -0.81231,-0.12524 -1.18799,0 -0.26563,0.0885 -0.32234,0.52608 -0.59399,0.59399 -0.57626,0.14403 -1.18798,0 -1.78198,0 -0.39599,0 -0.79199,0 -1.18798,0 -0.396,0 -0.80381,-0.096 -1.18799,0 -0.42952,0.10744 -0.75846,0.48661 -1.18798,0.594 -0.38418,0.096 -0.79199,0 -1.18799,0 -0.39599,0 -0.79199,0 -1.18799,0 -1.38598,0 -2.77196,0 -4.15795,0 -1.18798,0 -2.37597,0 -3.56395,0 -0.396,0 -0.80381,-0.096 -1.18799,0 -0.42952,0.10744 -0.76797,0.45398 -1.18798,0.59399 -0.891,0.29699 -0.594,-0.59399 -1.78198,0 -0.17709,0.0885 0,0.39599 0,0.59399 0,0.198 0,0.79199 0,0.59398 0,-0.39598 0,-1.58397 0,-1.18797 0,0.79199 0.19208,1.60763 0,2.37597 -0.0481,0.19208 -0.594,0.198 -0.594,0 0,-0.198 0.792,0 0.594,0 -0.396,0 -0.79199,0 -1.18799,0 -0.198,0 -0.45398,-0.14004 -0.59399,0 -0.14004,0.14004 0.0625,0.40615 0,0.59399 -0.14004,0.42002 -0.3484,0.81961 -0.59399,1.18799 -0.79601,1.19401 -0.42429,0.14137 -1.78198,0.59399 -0.26564,0.0885 -0.32836,0.50545 -0.594,0.59398 -0.31933,0.10645 -1.87306,0 -2.37597,0 -1.58398,0 -3.16796,0 -4.75194,0 -0.198,0 -0.39599,0 -0.59399,0 -0.198,0 -0.454,0.14004 -0.594,0 -0.14004,-0.14004 0.0625,-0.40614 0,-0.59398 -0.14004,-0.42002 -0.3484,-0.8196 -0.59399,-1.18798 -0.15534,-0.23299 -0.50544,-0.32836 -0.59399,-0.594 -0.12524,-0.37567 0.21966,-0.8585 0,-1.18798 -0.24558,-0.36838 -0.81961,-0.3484 -1.18799,-0.59401 -0.23298,-0.15534 -0.32835,-0.50544 -0.59399,-0.59398 -0.27191,-0.0906 -2.63842,0 -2.96996,0 -0.198,0 -0.396,0 -0.594,0 -0.19799,0 -0.45398,-0.14004 -0.59399,0 -0.14004,0.14004 0.0885,0.41691 0,0.59398 -0.12524,0.25046 -0.39599,0.39601 -0.59399,0.59401 0,0.39599 0.12524,0.81231 0,1.18798 -0.17709,0.53128 -1.01089,0.6567 -1.18799,1.18799 -0.12524,0.37568 0.12524,0.81231 0,1.18797 -0.0885,0.26565 -0.43866,0.36101 -0.59399,0.59401 -0.24558,0.36838 -0.3484,0.8196 -0.59399,1.18798 -0.15534,0.23299 -0.50545,0.32836 -0.594,0.594 -0.12524,0.37566 0,0.79199 0,1.18798 0,1.38599 0,2.77197 0,4.15795 0,3.95994 0,7.91991 0,11.87986 0,2.96995 0,5.93993 0,8.90989 0,0.59398 0.26564,1.25069 0,1.78198 -0.0885,0.17709 -0.39599,0 -0.59399,0 -0.198,0 -0.59399,0.198 -0.59399,0 0,-0.19801 0.39599,0 0.59399,0"
       id="path5970"
       inkscape:connector-curvature="0" />
    <path
       style="fill:none;fill-rule:evenodd;stroke:#000000;stroke-width:1.66317987px;stroke-linecap:butt;stroke-linejoin:miter;stroke-opacity:1"
       d="m 211.51348,251.37705 c 0,-5.54392 0,-11.08785 0,-16.6318 0,-1.58398 0,-3.16795 0,-4.75193 0,-0.79199 -0.13023,-1.59476 0,-2.37597 0.26842,-1.61051 0.79201,-3.16796 1.18799,-4.75194 0.198,-0.79199 0.50385,-1.5646 0.59399,-2.37597 0.10927,-0.98394 -0.0705,-1.98249 0,-2.96997 0.82146,-11.50038 0.0966,-1.17371 1.18799,-7.72191 0.26244,-1.57459 0.33156,-3.17734 0.59399,-4.75194 0.4714,-2.82831 0.98979,-2.77114 1.78198,-5.93993 0.096,-0.38416 0,-0.79199 0,-1.18798 0,-0.594 0,-1.18799 0,-1.78198 0,-0.396 -0.12523,-0.81231 0,-1.18799 1.68299,-5.04894 0.2475,-0.84149 2.37597,-2.96996 0.70003,-0.70003 1.2573,-1.53646 1.78198,-2.37597 0.4693,-0.75087 0.73242,-1.61669 1.188,-2.37597 1.28354,-2.13925 2.49432,-3.56323 3.56394,-5.34594 0.22779,-0.37964 0.37433,-0.80358 0.59401,-1.18799 0.57279,-1.0024 1.37659,-1.88896 1.78196,-2.96996 0.20858,-0.55617 -0.18782,-1.21846 0,-1.78198 0.22576,-0.67725 0.8207,-1.16982 1.18799,-1.78198 1.84154,-3.06922 -1.42651,1.45693 1.78198,-4.15795 0.27785,-0.48623 0.87735,-0.72202 1.18798,-1.18798 1.32915,-1.05652 1.00617,-2.86494 1.78198,-4.15795 0.28813,-0.48022 0.79199,-0.79199 1.18799,-1.18799 0.39599,-1.18798 0.7483,-2.39144 1.18798,-3.56396 0.15551,-0.41453 0.396,-0.79199 0.594,-1.18798 0.59399,-1.18799 1.18798,-2.37597 1.78198,-3.56396 0.39599,-0.79199 0.90797,-1.53593 1.18798,-2.37597 0.12524,-0.37568 -0.15601,-0.82401 0,-1.18799 0.4548,-1.06116 1.20918,-1.96756 1.78198,-2.96996 0.21966,-0.38439 0.28093,-0.87491 0.59399,-1.18799 0.31306,-0.31306 0.79199,-0.39599 1.18799,-0.59399 0.39599,-0.59399 0.68319,-1.27717 1.18798,-1.78198 0.31308,-0.31306 0.80835,-0.3662 1.18799,-0.59399 0.61215,-0.3673 1.27719,-0.68318 1.78198,-1.18799 0.31306,-0.31306 0.32835,-0.83379 0.59399,-1.18798 0.50403,-0.67202 1.18799,-1.18799 1.78198,-1.78198 0.396,-0.39599 0.79199,-0.79199 1.18799,-1.18799 0.19799,-0.19799 0.36101,-0.43867 0.59399,-0.59399 0.29913,-1.30866 1.22196,-0.31397 1.78198,-0.59399 0.25044,-0.12524 0.34355,-0.46876 0.59399,-0.59399 0.56003,-0.28001 1.20063,-0.36145 1.78198,-0.594 0.82215,-0.32884 1.51694,-0.97323 2.37597,-1.18798 0.38418,-0.096 0.81231,0.12524 1.18799,0 0.26565,-0.0885 0.36101,-0.43868 0.59399,-0.594 0.36838,-0.24559 0.87492,-0.28093 1.18798,-0.59399 0.31307,-0.31306 0.28094,-0.87492 0.594,-1.18798 0.31306,-0.31306 0.87492,-0.28094 1.18798,-0.594 0.14004,-0.14004 -0.11875,-0.43559 0,-0.59399 0.50403,-0.67202 1.25721,-1.12602 1.78198,-1.78198 0.27657,-0.34571 0.396,-0.79199 0.59399,-1.18798 0.198,-0.396 0.454,-0.76797 0.594,-1.18799 0.25816,-0.77447 0.43389,-1.57546 0.59399,-2.37597 0.0387,-0.19416 -0.0885,-0.41689 0,-0.59399 0.67778,-1.35555 1.33745,-1.63636 1.78198,-2.96997 0.57947,-1.73839 0.29502,-2.2245 1.18798,-3.56396 0.54915,-0.82371 1.16354,-1.60291 1.78198,-2.37597 0.17493,-0.21864 0.43868,-0.36101 0.594,-0.59399 0.24559,-0.36838 0.28093,-0.87491 0.59399,-1.18799 0.31306,-0.31306 0.87492,-0.28093 1.18798,-0.59399 0.31307,-0.31306 0.22562,-0.94239 0.594,-1.18797 0.32948,-0.21968 0.80382,0.096 1.18798,0 0.42951,-0.10745 0.76797,-0.454 1.18799,-0.59401 0.18784,-0.0625 0.40615,0.0625 0.59399,0 0.42002,-0.14004 0.76797,-0.45398 1.18799,-0.59399 0.18784,-0.0625 0.39599,0 0.59399,0 0.396,0 0.79199,0 1.18799,0 1.58398,0 3.16796,0 4.75194,0 1.18798,0 2.37597,0 3.56396,0 0.4863,0 2.5851,-0.12823 2.96996,0 0.42002,0.14004 0.81961,0.34841 1.18799,0.59399 0.27044,0.18031 2.27997,2.18401 2.37597,2.37597 0.0885,0.17709 -0.0627,0.40616 0,0.594 0.14004,0.42002 0.45398,0.76798 0.59399,1.18798 0.0627,0.18784 0,0.396 0,0.59401 0.198,0.39598 0.396,0.79198 0.59399,1.18797 2.1534,4.30681 -0.62612,-0.93918 1.18799,1.78198 0.24559,0.36838 0.3484,0.81962 0.59399,1.18799 0.15534,0.23298 0.396,0.39599 0.59399,0.59399 0.396,0.39599 0.87734,0.72202 1.18799,1.18798 0.10977,0.16482 -0.0625,0.40616 0,0.594 0.14004,0.42002 0.45398,0.76798 0.59399,1.18798 0.58941,1.76823 -1.40649,-1.21874 0.594,1.78198 0.15534,0.23298 0.43867,0.36101 0.59399,0.59399 1.43843,2.15766 -0.17394,0.42005 1.18798,1.78198 0.198,0.198 0.34354,0.46877 0.594,0.594 1.0104,0.5052 0.5643,-1.30677 1.18798,1.18798 0.19209,0.76834 -0.15534,1.59936 0,2.37597 0.12274,0.61396 0.31399,1.22195 0.594,1.78198 0.9057,1.81142 0.4709,-1.08637 1.18798,1.78198 0.096,0.38418 -0.21966,0.8585 0,1.18799 0.72135,0.36066 1.32845,0.50769 1.78198,1.18798 0.24558,0.36838 0.3484,0.81962 0.59399,1.18799 0.90616,1.35924 0.47019,-0.37142 1.18799,1.78198 0.0625,0.18783 -0.0625,0.40615 0,0.59399 0.14004,0.42002 0.45398,0.76798 0.59399,1.18798 0.12823,0.38486 0,2.48367 0,2.96997 0,1.78198 0,3.56396 0,5.34593 0,0.396 0,0.792 0,1.18799 0,0.396 -0.096,0.80382 0,1.18799 0.10744,0.42952 0.48661,0.75846 0.59399,1.18798 0.14403,0.57626 -0.18783,1.21846 0,1.78198 0.14004,0.42002 0.48663,0.75848 0.594,1.18799 0.23293,0.93175 -0.23294,2.03821 0,2.96996 0.10744,0.42952 0.45398,0.76797 0.59399,1.18799 0.11476,0.34408 0,1.86122 0,2.37597 0,1.97997 0,3.95995 0,5.93993 0,0.4863 -0.12823,2.5851 0,2.96996 0.14004,0.42002 0.396,0.79199 0.59399,1.18799 0.198,0.39599 0.396,0.79199 0.594,1.18798 0.19799,0.396 0.48661,0.75848 0.59399,1.18799 0.096,0.38416 -0.12524,0.81232 0,1.18798 0.0885,0.26564 0.50544,0.32836 0.59399,0.594 0.2459,0.73771 -0.19524,2.18896 0,2.96996 0.10744,0.42952 0.48661,0.75848 0.59399,1.18799 0.096,0.38416 0,0.79199 0,1.18798 0,0.198 -0.10977,0.42925 0,0.59399 0.31064,0.46597 0.792,0.792 1.18799,1.18799 0.198,0.198 0.36101,0.43866 0.59399,0.59399 0.36837,0.24558 0.81961,0.34842 1.18799,0.594 0.23298,0.15534 0.36101,0.43867 0.59399,0.59399 1.15664,0.77108 1.0901,0.59399 2.37597,0.59399 0.396,0 0.81231,-0.12524 1.18799,0 0.26564,0.0885 0.32834,0.50546 0.59399,0.59399 0.37568,0.12523 0.79199,0 1.18799,0 0.39599,0 0.79199,0 1.18798,0 1.38599,0 2.77197,0 4.15795,0 0.31731,0 2.79996,0.085 2.96997,0 0.25044,-0.12524 0.43866,-0.36101 0.59399,-0.59399 0.24558,-0.36838 0.396,-0.79199 0.59399,-1.18798 0.198,-0.396 0.48661,-0.75847 0.594,-1.18799 0.096,-0.38418 -0.12524,-0.81231 0,-1.18799 0.0885,-0.26563 0.50544,-0.32835 0.59399,-0.59399 0.2459,-0.73771 -0.19524,-2.18898 0,-2.96996 0.10744,-0.42951 0.45398,-0.76797 0.59399,-1.18799 0.0625,-0.18784 -0.0625,-0.40615 0,-0.59399 0.14004,-0.42002 0.48661,-0.75848 0.59398,-1.18799 0.096,-0.38416 -0.12523,-0.81232 0,-1.18798 0.0885,-0.26564 0.43868,-0.36101 0.59401,-0.594 0.24558,-0.36838 0.3484,-0.8196 0.59399,-1.18798 0.15534,-0.23298 0.50544,-0.32834 0.59399,-0.59399 0.12523,-0.37568 -0.1771,-0.8338 0,-1.18799 0.0885,-0.1771 0.396,0 0.594,0 0.39599,0 0.79199,0 1.18798,0 0.20236,0 2.05451,0.10711 2.37597,0 0.42001,-0.14004 0.76797,-0.45398 1.18799,-0.59399 0.34408,-0.11476 1.86123,0 2.37597,0 8.90988,0 17.81979,0 26.72968,0 2.77197,0 5.54392,0 8.3159,0 0.38223,0 3.75596,-0.10045 4.15795,0 0.42951,0.10744 0.79199,0.39599 1.18799,0.59399 0.39599,0.198 0.8196,0.3484 1.18798,0.59399 0.23297,0.15534 0.396,0.396 0.59398,0.594 0.39601,0.39599 0.85198,0.73997 1.188,1.18798 0.26564,0.35419 0.32834,0.8338 0.59398,1.18799 0.33602,0.44801 0.79199,0.79199 1.188,1.18798 0.95006,0.95006 1.73862,1.69529 2.37597,2.96997 0.0885,0.1771 0,0.39599 0,0.59399 0.198,0.396 0.3484,0.81961 0.59398,1.18799 0.54478,0.81716 0.91637,0.6109 1.78198,1.18798 0.23298,0.15534 0.39601,0.396 0.59399,0.59399 0.39601,0.396 0.79199,0.792 1.188,1.18799 0.198,0.198 0.39598,0.396 0.59398,0.59399 0.19801,0.198 0.50546,0.32836 0.59401,0.594 0.12524,0.37566 -0.12524,0.8123 0,1.18798 0.0885,0.26564 0.43866,0.36101 0.59399,0.59399 0.24558,0.36839 0.3484,0.81961 0.59398,1.18799 0.15535,0.23298 0.43867,0.36101 0.59399,0.59399 0.24559,0.36837 0.34842,0.81961 0.59401,1.18799 0.15534,0.23298 0.43866,0.36101 0.59399,0.59399 0.24558,0.36838 0.39598,0.79199 0.59398,1.18799 0.39601,0.79199 0.85914,1.55383 1.188,2.37597 0.23253,0.58133 0.36146,1.20063 0.59398,1.78198 0.16449,0.41107 0.48662,0.75846 0.59399,1.18798 0.096,0.38417 -0.0777,0.79969 0,1.18799 0.39401,1.97002 0.55441,1.38598 1.188,2.96996 0.23252,0.58134 0.36145,1.20065 0.59398,1.78198 0.56297,1.4074 0.63698,1.23097 1.78198,2.37597 0.19801,0.198 0.50544,0.32836 0.59399,0.594 0.12524,0.37566 -0.12524,0.8123 0,1.18798 0.0885,0.26564 0.50546,0.32836 0.59401,0.59399 0.12523,0.37567 -0.12524,0.81231 0,1.18799 0.0885,0.26564 0.50544,0.32834 0.59399,0.59399 0.12523,0.37568 -0.21966,0.8585 0,1.18799 0.24558,0.36838 0.81959,0.3484 1.18799,0.59399 0.23298,0.15534 0.36099,0.43868 0.59399,0.59399 0.36837,0.2456 0.79199,0.396 1.18797,0.594 0.39601,0.198 0.75848,0.48661 1.18799,0.59399 0.38418,0.0961 0.81232,-0.12524 1.188,0 0.26562,0.0885 0.32234,0.52608 0.59399,0.59399 0.57625,0.14403 1.18797,0 1.78198,0 0.39598,0 0.79199,0 1.18797,0 0.39601,0 0.80382,-0.096 1.188,0 0.42951,0.10744 0.75846,0.48661 1.18797,0.594 0.38418,0.096 0.79199,0 1.18799,0 0.39599,0 0.79199,0 1.188,0 1.38598,0 2.77195,0 4.15795,0 1.18797,0 2.37597,0 3.56394,0 0.39601,0 0.80382,-0.096 1.188,0 0.42951,0.10744 0.76797,0.45398 1.18797,0.59399 0.891,0.29699 0.59401,-0.59399 1.78198,0 0.1771,0.0885 0,0.39599 0,0.59399 0,0.198 0,0.79199 0,0.59398 0,-0.39598 0,-1.58397 0,-1.18797 0,0.79199 -0.19208,1.60763 0,2.37597 0.0481,0.19208 0.59401,0.198 0.59401,0 0,-0.198 -0.79201,0 -0.59401,0 0.39601,0 0.79199,0 1.18799,0 0.19801,0 0.45399,-0.14004 0.59399,0 0.14004,0.14004 -0.0625,0.40615 0,0.59399 0.14004,0.42002 0.34841,0.81961 0.59399,1.18799 0.79602,1.19401 0.42429,0.14137 1.78198,0.59399 0.26564,0.0885 0.32836,0.50545 0.59401,0.59398 0.31933,0.10645 1.87305,0 2.37597,0 1.58397,0 3.16795,0 4.75193,0 0.19801,0 0.39599,0 0.59399,0 0.198,0 0.454,0.14004 0.59401,0 0.14004,-0.14004 -0.0625,-0.40614 0,-0.59398 0.14004,-0.42002 0.3484,-0.8196 0.59398,-1.18798 0.15535,-0.23299 0.50544,-0.32836 0.59399,-0.594 0.12524,-0.37567 -0.21965,-0.8585 0,-1.18798 0.24559,-0.36838 0.81962,-0.3484 1.188,-0.59401 0.23297,-0.15534 0.32834,-0.50544 0.59398,-0.59398 0.27192,-0.0907 2.63842,0 2.96996,0 0.198,0 0.396,0 0.59401,0 0.19798,0 0.45398,-0.14004 0.59398,0 0.14004,0.14004 -0.0885,0.41691 0,0.59398 0.12524,0.25046 0.39599,0.39601 0.59399,0.59401 0,0.39599 -0.12524,0.81231 0,1.18798 0.1771,0.53128 1.0109,0.6567 1.18799,1.18799 0.12524,0.37568 -0.12523,0.81231 0,1.18797 0.0885,0.26565 0.43867,0.36101 0.59399,0.59401 0.24559,0.36838 0.3484,0.8196 0.59399,1.18798 0.15534,0.23299 0.50546,0.32836 0.594,0.594 0.12524,0.37566 0,0.79199 0,1.18798 0,1.38599 0,2.77197 0,4.15795 0,3.95994 0,7.91991 0,11.87986 0,2.96995 0,5.93993 0,8.90989 0,0.59398 -0.26564,1.25069 0,1.78198 0.0885,0.17709 0.39599,0 0.59399,0 0.198,0 0.59399,0.198 0.59399,0 0,-0.19801 -0.39599,0 -0.59399,0"
       id="path5970-3"
       inkscape:connector-curvature="0" />
    <path
       style="fill:none;fill-rule:evenodd;stroke:#000000;stroke-width:1.66317987px;stroke-linecap:butt;stroke-linejoin:miter;stroke-opacity:1"
       d="m 712.67319,271.40409 0,-42.84167"
       id="path5989"
       inkscape:connector-curvature="0" />
    <text
       xml:space="preserve"
       style="font-style:normal;font-weight:normal;font-size:33.96466446px;line-height:125%;font-family:sans-serif;letter-spacing:0px;word-spacing:0px;fill:#000000;fill-opacity:1;stroke:none;stroke-width:1px;stroke-linecap:butt;stroke-linejoin:miter;stroke-opacity:1"
       x="702.24542"
       y="301.02991"
       id="text5991"
       sodipodi:linespacing="125%"><tspan
         sodipodi:role="line"
         id="tspan5993"
         x="702.24542"
         y="301.02991">0</tspan></text>
    <text
       xml:space="preserve"
       style="font-style:normal;font-weight:normal;font-size:35.83856583px;line-height:125%;font-family:sans-serif;letter-spacing:0px;word-spacing:0px;fill:#000000;fill-opacity:1;stroke:none;stroke-width:1px;stroke-linecap:butt;stroke-linejoin:miter;stroke-opacity:1"
       x="624.42798"
       y="339.05847"
       id="text5995"
       sodipodi:linespacing="125%"><tspan
         sodipodi:role="line"
         id="tspan5997"
         x="624.42798"
         y="339.05847">frequency</tspan></text>
    <path
       style="fill:none;fill-rule:evenodd;stroke:#e70000;stroke-width:10;stroke-linecap:butt;stroke-linejoin:miter;stroke-opacity:1;stroke-miterlimit:4;stroke-dasharray:none"
       d="M 219.2031,119.22883 478.81231,270.75171"
       id="path6037"
       inkscape:connector-curvature="0" />
    <path
       style="fill:none;fill-rule:evenodd;stroke:#e70000;stroke-width:10;stroke-linecap:butt;stroke-linejoin:miter;stroke-miterlimit:4;stroke-dasharray:none;stroke-opacity:1"
       d="M 475.27678,119.22884 215.66757,270.75171"
       id="path6037-7"
       inkscape:connector-curvature="0" />
    <path
       style="fill:#ff0000;fill-rule:evenodd;stroke:#e70000;stroke-width:10;stroke-linecap:butt;stroke-linejoin:miter;stroke-miterlimit:4;stroke-dasharray:none;stroke-opacity:1"
       d="m 502.80343,316.71365 88.38835,0"
       id="path6079"
       inkscape:connector-curvature="0" />
    <path
       style="fill:#ff0000;fill-rule:evenodd;stroke:#e70000;stroke-width:10;stroke-linecap:butt;stroke-linejoin:miter;stroke-miterlimit:4;stroke-dasharray:none;stroke-opacity:1"
       d="M 587.40371,315.45096 564.04393,292.09118"
       id="path6081"
       inkscape:connector-curvature="0" />
    <path
       style="fill:#ff0000;fill-rule:evenodd;stroke:#e70000;stroke-width:10;stroke-linecap:butt;stroke-linejoin:miter;stroke-miterlimit:4;stroke-dasharray:none;stroke-opacity:1"
       d="M 587.42623,317.91322 564.06645,341.273"
       id="path6081-5"
       inkscape:connector-curvature="0" />
  </g>
</svg>
