<?xml version="1.0" encoding="UTF-8" standalone="no"?>
<!-- Created with Inkscape (http://www.inkscape.org/) -->

<svg
   xmlns:dc="http://purl.org/dc/elements/1.1/"
   xmlns:cc="http://creativecommons.org/ns#"
   xmlns:rdf="http://www.w3.org/1999/02/22-rdf-syntax-ns#"
   xmlns:svg="http://www.w3.org/2000/svg"
   xmlns="http://www.w3.org/2000/svg"
   xmlns:sodipodi="http://sodipodi.sourceforge.net/DTD/sodipodi-0.dtd"
   xmlns:inkscape="http://www.inkscape.org/namespaces/inkscape"
   width="201.64656mm"
   height="73.52626mm"
   viewBox="0 0 714.49569 260.52612"
   id="svg2"
   version="1.1"
   inkscape:version="0.91 r13725"
   sodipodi:docname="sampling2.svg">
  <defs
     id="defs4" />
  <sodipodi:namedview
     id="base"
     pagecolor="#ffffff"
     bordercolor="#666666"
     borderopacity="1.0"
     inkscape:pageopacity="0.0"
     inkscape:pageshadow="2"
     inkscape:zoom="1.979899"
     inkscape:cx="322.92282"
     inkscape:cy="132.77154"
     inkscape:document-units="px"
     inkscape:current-layer="layer1"
     showgrid="false"
     inkscape:window-width="1920"
     inkscape:window-height="1004"
     inkscape:window-x="0"
     inkscape:window-y="24"
     inkscape:window-maximized="1"
     fit-margin-top="0"
     fit-margin-left="0"
     fit-margin-right="0"
     fit-margin-bottom="0" />
  <metadata
     id="metadata7">
    <rdf:RDF>
      <cc:Work
         rdf:about="">
        <dc:format>image/svg+xml</dc:format>
        <dc:type
           rdf:resource="http://purl.org/dc/dcmitype/StillImage" />
        <dc:title></dc:title>
      </cc:Work>
    </rdf:RDF>
  </metadata>
  <g
     inkscape:label="Layer 1"
     inkscape:groupmode="layer"
     id="layer1"
     transform="translate(-17.686607,-49.441653)">
    <path
       style="fill:none;fill-rule:evenodd;stroke:#000000;stroke-width:1.04325831px;stroke-linecap:butt;stroke-linejoin:miter;stroke-opacity:1"
       d="m 18.204208,236.14881 c 1.829949,-14.6396 -0.615276,-2.67722 4.215399,-14.75392 1.237686,-3.09421 2.262992,-6.27549 3.161552,-9.48464 1.562105,-5.57895 2.810266,-11.24108 4.2154,-16.8616 0.702566,-2.81027 1.539599,-5.59031 2.1077,-8.43081 2.872415,-14.36207 -1.874975,-0.66492 5.26925,-21.07699 3.789658,-10.8276 11.028049,-19.78522 16.861602,-29.5078 1.212398,-2.02066 2.006257,-4.26926 3.161549,-6.32311 2.008421,-3.57052 4.290601,-6.98162 6.3231,-10.53849 0.779428,-1.364 1.275078,-2.8832 2.107701,-4.2154 3.602142,-5.76343 9.162672,-9.80404 13.700049,-14.7539 0.637626,-0.695596 7.817934,-9.325215 10.5385,-11.592354 0.973007,-0.810839 2.1999,-1.283428 3.161552,-2.107701 1.508763,-1.293225 2.598381,-3.060387 4.2154,-4.215399 0.903939,-0.645672 2.167966,-0.557061 3.161548,-1.053851 3.21378,-1.60689 -1.927432,-0.835454 3.16155,-2.1077 0.68159,-0.170397 1.40513,0 2.1077,0 2.1077,0 4.21541,0 6.3231,0 0.7471,0 3.8588,-0.285286 4.2154,0 1.37153,1.097225 2.06433,2.843869 3.16155,4.2154 0.93102,1.163784 2.23054,1.997768 3.16156,3.16155 0.79121,0.989026 1.31648,2.172525 2.10769,3.16155 1.24137,1.551711 2.97403,2.663691 4.2154,4.215402 5.22524,6.531543 -0.12194,0.344037 3.16155,5.269249 0.27556,0.413354 0.75577,0.656419 1.05385,1.053854 0.75994,1.01325 1.31649,2.17252 2.10771,3.16154 0.93102,1.16379 2.10769,2.10771 3.16154,3.16156 0.70257,0.70256 1.40515,1.40513 2.1077,2.1077 0.35129,0.35127 0.58256,0.89675 1.05385,1.05385 0.99977,0.33325 2.1077,0 3.16154,0 1.75643,0 3.51285,0 5.26927,0 2.1077,0 4.2154,0 6.3231,0 0.70255,0 1.4793,0.31419 2.10769,0 0.88869,-0.44434 1.40513,-1.40513 2.10771,-2.1077 1.40512,-1.40513 2.81025,-2.81027 4.2154,-4.21541 0.70255,-0.70256 1.40513,-1.40513 2.10769,-2.10769 0.35129,-0.35129 0.6405,-0.77828 1.05385,-1.05385 7.64103,-3.820516 -1.66627,1.11085 3.16156,-2.107703 0.65358,-0.435715 1.55226,-0.498423 2.1077,-1.053851 0.55543,-0.555427 0.40026,-1.671987 1.05384,-2.1077 0.58457,-0.389713 1.44119,0.222171 2.1077,0 0.47131,-0.157099 0.58256,-0.896751 1.05385,-1.053849 0.66653,-0.222172 1.40514,0 2.10771,0 2.45898,0 4.91797,0 7.37693,0 0.77363,0 5.95571,-0.183701 6.32312,0 1.13285,0.566426 2.26594,1.212098 3.16156,2.107699 1.92556,1.925573 2.77225,9.840544 3.16153,11.592354 0.24098,1.0844 0.89675,2.06185 1.05386,3.16155 0.19871,1.391 -0.40376,2.86953 0,4.2154 0.67713,2.25709 2.20448,4.16973 3.16154,6.32311 0.45117,1.0151 0.67423,2.11756 1.05386,3.16153 1.0257,2.82067 2.48665,5.50631 3.16154,8.4308 0.39495,1.71144 -0.19396,3.52359 0,5.26925 0.15996,1.43952 0.84903,2.78157 1.05386,4.2154 0.49926,3.49487 0.55457,7.04364 1.05384,10.53851 0.20485,1.43382 0.72817,2.80411 1.05385,4.2154 0.72825,3.15573 1.37947,6.32892 2.10771,9.48464 0.32567,1.41129 0.86242,2.77973 1.05384,4.2154 0.51281,3.84602 0.81183,7.71986 1.05385,11.59235 0.24058,3.84909 -0.24056,7.74327 0,11.59236 0.22022,3.52348 0.55458,7.04362 1.05384,10.53849 0.52438,3.6706 3.67385,11.53382 4.2154,13.70006 0.25561,1.02239 -0.17323,2.12205 0,3.16154 0.18264,1.09574 0.7487,2.09344 1.05387,3.16155 0.3979,1.39266 0.81574,2.78674 1.05384,4.21541 0.11551,0.693 -0.22217,1.44119 0,2.1077 6.53479,13.06959 0.26836,-1.03427 2.10769,6.3231 0.19053,0.76203 0.70259,1.40512 1.05387,2.10771 0.70257,1.40512 1.6109,2.72502 2.10769,4.21539 0.22218,0.66651 -0.17039,1.42611 0,2.1077 0.7641,3.05641 0.82219,1.23329 2.1077,3.16154 1.1946,1.79191 0.88245,3.07586 3.16155,4.2154 0.16489,0.0825 4.97463,0 5.26926,0 1.75642,0 3.51282,0 5.26924,0 0.70257,0 1.56799,0.44978 2.10772,0 0.30539,-0.2545 5.61491,-6.77838 6.32309,-8.43078 0.57054,-1.33128 0.4545,-2.89685 1.05384,-4.2154 9.18878,-16.08038 1.35258,-0.8215 5.26926,-11.59236 4.50138,-12.37881 1.54173,-2.89484 5.26924,-11.59236 0.43759,-1.02103 0.66381,-2.12142 1.05386,-3.16154 0.66422,-1.77126 1.36251,-3.53049 2.1077,-5.26926 0.61884,-1.44396 1.61091,-2.72503 2.10768,-4.2154 0.45804,-1.37405 0.51594,-2.87059 1.05387,-4.2154 0.18451,-0.46125 0.77829,-0.6405 1.05385,-1.05384 0.43571,-0.65357 0.76213,-1.37839 1.05384,-2.1077 0.41257,-1.0314 0.64129,-2.13015 1.05386,-3.16155 0.29172,-0.7293 0.70257,-1.40513 1.05385,-2.1077 0.70257,-1.40514 1.29944,-2.8683 2.1077,-4.2154 0.25559,-0.426 0.77829,-0.64051 1.05385,-1.05386 8.07137,-13.45228 -0.42048,-0.26479 5.26924,-7.37695 2.0292,-2.53647 3.42052,-5.84257 5.26927,-8.4308 0.5775,-0.80851 1.61474,-1.24502 2.10769,-2.10769 0.93854,-1.64247 1.16914,-3.62678 2.1077,-5.26925 0.49296,-0.86267 1.66336,-1.21902 2.1077,-2.1077 0.31419,-0.6284 0,-1.40514 0,-2.1077 0.70256,-1.40515 1.23626,-2.90828 2.1077,-4.2154 0.55113,-0.82672 1.59651,-1.25572 2.1077,-2.1077 2.12535,-3.54227 -0.0249,-2.4257 2.1077,-5.26926 0.59615,-0.79485 1.51155,-1.31284 2.10769,-2.1077 0.47131,-0.62838 0.49843,-1.55227 1.05386,-2.1077 0.55542,-0.55542 1.55227,-0.49841 2.10769,-1.05385 0.89561,-0.8956 1.40515,-2.10769 2.10771,-3.16154 0.70257,-1.05386 1.45606,-2.07548 2.10769,-3.16155 2.85255,-4.75425 -0.72704,0.96388 1.05386,-5.26926 2.1077,-7.37694 1.58078,-1.58077 3.16155,-6.3231 0.45802,-1.37404 0.76979,-2.79515 1.05385,-4.21539 0.0688,-0.34447 -0.0852,-0.71306 0,-1.05385 0.0888,-0.35526 1.41507,-4.67925 2.10771,-5.26925 27.71473,-23.608863 17.19694,-22.130855 35.83089,-22.130855 4.94814,0 3.52745,-0.779427 7.37695,2.107702 0.39744,0.298074 0.70257,0.702565 1.05386,1.053849 0.70256,0.702566 1.487,1.331845 2.10769,2.1077 1.6956,2.119512 2.06705,3.080264 3.16155,5.269254 0.70256,1.40513 1.52425,2.75677 2.10769,4.2154 0.13042,0.32616 0,0.70256 0,1.05385 0,0.70257 -0.1155,1.4147 0,2.1077 0.23811,1.42867 0.81575,2.78673 1.05387,4.2154 0.11551,0.693 0,1.40514 0,2.10769 0.35128,1.40513 0.76979,2.79516 1.05384,4.21541 0.0688,0.34447 0,0.70257 0,1.05386 0,0.70255 -0.13778,1.41876 0,2.10769 0.21785,1.08929 0.836,2.07227 1.05385,3.16155 0.13778,0.68892 -0.22217,1.44117 0,2.10769 0.1571,0.4713 0.95643,0.56671 1.05384,1.05385 0.27559,1.37785 -0.27556,2.83756 0,4.2154 0.0975,0.48716 0.95643,0.56671 1.05387,1.05384 0.28421,1.42117 0,5.4508 0,7.37696 0,1.40513 0,2.81027 0,4.21541 0,1.05384 -0.14904,2.11828 0,3.16155 0.20482,1.43382 0.81574,2.78672 1.05384,4.2154 0.231,1.38602 -0.23101,2.82939 0,4.21539 0.23811,1.42867 0.76981,2.79516 1.05385,4.2154 0.0689,0.34448 0,0.70258 0,1.05386 0,1.98051 -0.111,1.30305 1.05384,4.21539 0.64628,1.61571 1.46144,2.59971 2.10771,4.2154 0.41256,1.03141 0.55706,2.16798 1.05385,3.16155 0.22216,0.44435 0.77828,0.64051 1.05384,1.05385 0.43573,0.65358 0.61815,1.45414 1.05386,2.10771 0.27557,0.41334 0.77828,0.6405 1.05385,1.05384 0.43573,0.65357 0.64973,1.43415 1.05385,2.1077 0.65164,1.08608 1.45605,2.07548 2.1077,3.16156 1.48289,2.47146 0.90128,2.2532 2.1077,5.26924 0.29173,0.72931 0.70258,1.40514 1.05385,2.10771 0.6399,1.27979 0.90074,2.35691 2.10769,3.16155 0.65358,0.43571 1.40515,0.70255 2.10771,1.05384 0.70257,0.35128 1.36251,0.80546 2.10771,1.05386 0.33325,0.111 0.70255,0 1.05384,0 0.70258,0 1.40513,0 2.10771,0 1.40512,0 2.81026,0 4.2154,0 2.17043,0 4.28269,0.17039 6.32309,-1.05386 0.67356,-0.40412 0.49843,-1.55228 1.05386,-2.10769 0.55542,-0.55544 1.55226,-0.49843 2.1077,-1.05385 0.8956,-0.8956 1.21209,-2.26596 2.1077,-3.16156 0.55542,-0.55542 1.43413,-0.64971 2.1077,-1.05384 1.08607,-0.65166 2.1483,-1.34777 3.16154,-2.10771 0.79486,-0.59615 1.33185,-1.48701 2.1077,-2.10769 1.37153,-1.09722 2.84387,-2.06432 4.21539,-3.16156 1.83207,-1.46564 2.38336,-2.74975 4.21542,-4.2154 0.61337,-0.49069 1.55226,-0.49841 2.10769,-1.05385 0.55543,-0.55542 0.58256,-1.4793 1.05386,-2.10769 0.59614,-0.79487 1.51155,-1.31284 2.1077,-2.10771 1.51988,-2.02651 2.81026,-4.2154 4.21541,-6.32309 2.10769,-3.16156 4.21539,-6.3231 6.32309,-9.48465 0.70256,-1.05385 1.31648,-2.17254 2.1077,-3.16155 0.62067,-0.77587 1.45342,-1.35996 2.1077,-2.1077 3.47192,-3.96791 5.49354,-6.49978 8.43079,-10.5385 5.03388,-6.9216 10.21313,-13.81177 14.7539,-21.077 0.41633,-0.6661 0.70257,-1.40514 1.05386,-2.1077 1.05385,-1.40514 2.18725,-2.75398 3.16155,-4.2154 0.4357,-0.65357 0.61813,-1.45413 1.05385,-2.1077 0.82671,-1.24006 2.26732,-1.96926 3.16155,-3.16155 0.47129,-0.6284 0.49841,-1.55228 1.05385,-2.1077 0.82381,-0.82383 4.58331,-1.83333 5.26925,-2.10771 3.6341,-1.45363 0.609,-0.94263 5.26925,-2.10769 0.34079,-0.0852 0.70256,0 1.05385,0 1.40513,0 2.81025,0 4.2154,0 5.26924,0 10.53849,0 15.80774,0 1.40514,0 2.81028,0 4.21541,0 0.35128,0 0.89675,-0.3142 1.05385,0 0.64773,1.29547 0.59583,2.84134 1.05384,4.2154 0.24841,0.74519 0.86335,1.34566 1.05387,2.1077 0.17038,0.68158 -0.11552,1.4147 0,2.1077 0.2381,1.42867 0.81573,2.78673 1.05384,4.2154 0.11551,0.693 0,1.40514 0,2.10769 0.35128,1.40513 0.76979,2.79516 1.05385,4.21541 0.0688,0.34447 -0.111,0.72059 0,1.05386 0.49679,1.49036 1.40512,2.81025 2.10771,4.2154 2.47145,4.94293 -0.4968,-1.24199 2.10769,5.26923 0.29171,0.72932 0.80546,1.36252 1.05384,2.1077 3.82259,11.46778 -0.77473,-1.76596 1.05386,7.37696 0.15404,0.77023 0.94277,1.33009 1.05385,2.10769 1.8735,13.11459 -1.12411,-0.56205 0,8.43081 0.22217,1.77736 0.75937,3.50241 1.05385,5.26925 0.0578,0.3465 -0.111,0.72058 0,1.05385 1.1467,3.44009 1.37672,0.88338 2.1077,5.26924 0,1.05386 0,2.10771 0,3.16156 0.35128,0.35129 0.89675,0.58256 1.05385,1.05384 0.22217,0.66652 -0.22217,1.44119 0,2.10771 0.1571,0.47129 0.77828,0.64049 1.05385,1.05385 0.43571,0.65357 0.80546,1.36251 1.05384,2.10769 0.22761,0.68281 0,4.40646 0,5.26925 0,4.56668 0,9.13337 0,13.70006 0,5.62052 0,11.24107 0,16.8616 0,2.45898 0,4.91797 0,7.37694 0,0.70258 -0.17039,1.42612 0,2.1077 1.21096,4.8438 1.05386,0.23911 1.05386,3.16155 0,3.51284 0,7.02568 0,10.53851 0,1.94987 -0.51084,4.75842 1.05384,6.3231 0.0219,0.0219 5.24736,0.0219 5.26925,0 0.2484,-0.2484 0,-0.70257 0,-1.05384 0,-0.70259 0,-1.40515 0,-2.10772 0,-1.75641 0,-3.51282 0,-5.26924 0,-0.70257 -0.0992,-1.4122 0,-2.1077 0.3513,-1.75642 0.70259,-3.51283 1.05385,-5.26926 0.35129,-0.70255 0.86335,-1.34564 1.05386,-2.1077 0.17039,-0.68159 0,-1.40512 0,-2.1077 0,-1.05384 0,-2.1077 0,-3.16154 0,-0.70257 -0.1704,-1.42611 0,-2.1077 0.1905,-0.76203 0.80545,-1.36253 1.05384,-2.1077 2.75095,-8.25284 0.31329,-1.13919 1.05385,-6.3231 0.25331,-1.77319 0.56177,-3.54697 1.05384,-5.26925 0.21581,-0.75528 0.86336,-1.34566 1.05387,-2.10771 0.17039,-0.68159 0,-1.40513 0,-2.10769 0,-1.75642 -0.24841,-3.5305 0,-5.26925 0.111,-0.77761 0.94276,-1.33011 1.05384,-2.10771 0.2484,-1.73876 -0.28874,-3.53672 0,-5.26925 0.0816,-0.49002 0.89676,-0.58254 1.05385,-1.05385 0.22219,-0.66651 0,-1.40513 0,-2.10769 0,-1.40514 0,-2.81027 0,-4.2154 0,-3.51285 0,-7.02567 0,-10.5385 0,-1.05386 -0.13068,-2.11584 0,-3.16155 0.50869,-4.06946 0.96064,-4.98958 2.10771,-8.43081 0.35128,-1.05384 0.78443,-2.08385 1.05386,-3.16155 0.43442,-1.73771 0.56177,-3.54697 1.05384,-5.26925 0.2158,-0.75527 0.76213,-1.37839 1.05384,-2.1077 0.41257,-1.03141 0.6413,-2.13014 1.05387,-3.16155 0.29172,-0.7293 0.80544,-1.36251 1.05385,-2.10769 0.11099,-0.33326 -0.19487,-0.76158 0,-1.05387 0.55114,-0.82669 1.51154,-1.31283 2.10768,-2.10769 0.47131,-0.6284 0.58255,-1.4793 1.05387,-2.1077 0.59613,-0.79486 1.40512,-1.40514 2.10769,-2.1077 1.39973,-1.39973 2.2178,-2.66214 4.2154,-3.16153 0.68159,-0.17042 1.40513,0 2.1077,0 1.7564,0 3.51283,0 5.26924,0 2.01882,0 5.74513,-0.57799 7.37696,1.05384 0.55543,0.55542 0.70257,1.40512 1.05385,2.10769 0.35128,0.70256 0.74442,1.38572 1.05384,2.1077 0.7452,1.73877 1.36253,3.53048 2.10771,5.26926 0.30942,0.72197 0.8998,1.33745 1.05385,2.10769 0.20668,1.0334 0,2.10771 0,3.16155 0,2.1077 0,4.2154 0,6.3231 0,7.56223 -0.33326,-1.30598 1.05384,6.32311 0.50663,2.78646 0.79746,5.61029 1.05386,8.43079 0.22263,2.44888 0,4.91797 0,7.37696 0,5.26924 0,10.53849 0,15.80774 0,2.45899 -0.24468,4.93017 0,7.37696 0.24717,2.47161 0.82897,4.9032 1.05385,7.37694 0.4236,4.65973 -0.56966,10.19663 0,14.7539 0.0975,0.77943 0.8998,1.33746 1.05385,2.1077 0.34446,1.72231 -0.34446,3.54694 0,5.26926 0.52693,2.63467 1.97686,5.00757 3.16156,7.37694 0.35128,0.70258 0.80544,1.36252 1.05385,2.10772 1.0457,3.13711 -2.49539,-2.16231 1.05384,3.16155 0.27558,0.41334 0.70257,0.70256 1.05386,1.05385 0.70255,0.70255 1.28098,1.55655 2.1077,2.10768 0.31073,0.20716 5.58204,0 6.3231,0 0.25558,0 3.12765,0.0338 3.16153,0 1.93645,-1.93643 0.72941,-1.53931 1.05387,-3.16153 0.28404,-1.42025 0.59582,-2.84137 1.05384,-4.21541 1.40513,-4.2154 1.01123,0.21309 2.10769,-5.26925 0.1378,-0.68892 0,-1.40514 0,-2.10771 0.3513,-0.70256 0.80546,-1.3625 1.05387,-2.1077 0.111,-0.33324 -0.19486,-0.76156 0,-1.05385 0.8267,-1.24005 2.10769,-2.10769 3.16153,-3.16155 0.35129,-0.35127 0.58256,-0.89673 1.05387,-1.05384 0.6665,-0.22218 1.42609,0.17039 2.10769,0 0.76204,-0.19051 1.34566,-0.86334 2.1077,-1.05386 0.68159,-0.17039 1.40514,0 2.1077,0 0.70257,0 1.40513,0 2.1077,0 2.1077,0 4.2154,0 6.32311,0 0.70256,0 1.40512,0 2.1077,0 0.35128,0 0.80545,-0.24839 1.05384,0 0.15627,0.15627 3.10831,6.05686 3.16156,6.3231 0.20668,1.0334 -0.20669,2.12818 0,3.16155 0.30809,1.54049 1.72667,2.69134 2.10769,4.21541 0.55652,2.2261 -0.93641,2.22514 1.05386,4.2154 1.44802,1.44804 3.4814,1.05384 5.26925,1.05384 2.10769,0 4.2154,0 6.32309,0 1.40513,0 2.81028,0 4.2154,0 0.70256,0 1.69934,0.57171 2.1077,0 1.555,-2.17697 2.13258,-4.90744 3.16155,-7.37694 0.72759,-1.7462 1.60997,-3.44419 2.10769,-5.26926 0.56224,-2.06147 0.67163,-4.22078 1.05385,-6.3231 1.02296,-5.62623 2.25811,-11.21493 3.16155,-16.86159 0.50258,-3.14106 0.6593,-6.32821 1.05387,-9.48465 0.65935,-5.27485 1.38945,-10.54062 2.10769,-15.80775 0.33562,-2.46118 0.87688,-4.89933 1.05385,-7.37695 0.1752,-2.45273 -0.1752,-4.92423 0,-7.37696 0.17697,-2.47762 0.82897,-4.9032 1.05385,-7.37694 0.47812,-5.25927 0.57573,-10.5485 1.05386,-15.80777 0.22487,-2.47374 0.82896,-4.90319 1.05385,-7.37693 0.12715,-1.39937 -0.11673,-2.81512 0,-4.2154 0.23518,-2.82235 0.79743,-5.61031 1.05384,-8.4308 0.0955,-1.04952 0,-2.1077 0,-3.16156 0,-0.70256 -0.22217,-1.44118 0,-2.10769 0.49679,-1.49037 1.61091,-2.72503 2.10771,-4.2154 0.22217,-0.66652 -0.26094,-1.45539 0,-2.10771 0.47038,-1.17597 1.45605,-2.07547 2.10769,-3.16154 0.40413,-0.67356 0.49843,-1.552276 1.05385,-2.107703 0.55544,-0.555428 1.45413,-0.618139 2.10771,-1.053851 0.8267,-0.551139 1.1651,-1.793503 2.1077,-2.1077 0.41425,-0.138087 9.35582,0 9.48464,0 0.70257,0 1.40514,0 2.10769,0 0.70258,0 1.61092,-0.496789 2.10771,0 3.70096,3.700958 2.81028,5.269254 4.2154,9.484654 0.94912,2.84735 2.00718,5.66031 3.16155,8.4308 1.20846,2.90029 3.15865,5.47187 4.2154,8.43081 1.23351,3.45384 2.0018,7.05918 3.16155,10.53849 0.59822,1.79463 1.47146,3.48774 2.10772,5.26924 1.12085,3.13842 2.10768,6.3231 3.16154,9.48466 0.35127,1.05384 0.87123,2.0658 1.05384,3.16155 0.17326,1.03951 -0.17325,2.12203 0,3.16155 0.29042,1.74247 2.10648,5.79432 3.16156,7.37695 0.27557,0.41335 1.05384,0.55707 1.05384,1.05385 0,0.35128 -0.70256,0 -1.05384,0 -1.05386,0 -2.1077,0 -3.16156,0"
       id="path4144"
       inkscape:connector-curvature="0" />
    <path
       style="fill:none;fill-rule:evenodd;stroke:#000000;stroke-width:2.70838523;stroke-linecap:butt;stroke-linejoin:miter;stroke-miterlimit:4;stroke-dasharray:2.70838524, 5.41677049;stroke-dashoffset:0;stroke-opacity:1"
       d="m 39.197718,50.494814 0,259.231166"
       id="path4148"
       inkscape:connector-curvature="0" />
    <path
       style="fill:none;fill-rule:evenodd;stroke:#000000;stroke-width:2.70838523;stroke-linecap:butt;stroke-linejoin:miter;stroke-miterlimit:4;stroke-dasharray:2.70838524, 5.41677049;stroke-dashoffset:0;stroke-opacity:1"
       d="m 115.61286,50.73662 0,259.23116"
       id="path4148-5"
       inkscape:connector-curvature="0" />
    <path
       style="fill:none;fill-rule:evenodd;stroke:#000000;stroke-width:2.70838523;stroke-linecap:butt;stroke-linejoin:miter;stroke-miterlimit:4;stroke-dasharray:2.70838524, 5.41677049;stroke-dashoffset:0;stroke-opacity:1"
       d="m 192.18178,50.467604 0,259.231156"
       id="path4148-6"
       inkscape:connector-curvature="0" />
    <path
       style="fill:none;fill-rule:evenodd;stroke:#000000;stroke-width:2.70838523;stroke-linecap:butt;stroke-linejoin:miter;stroke-miterlimit:4;stroke-dasharray:2.70838524, 5.41677049;stroke-dashoffset:0;stroke-opacity:1"
       d="m 268.59692,50.709409 0,259.231151"
       id="path4148-5-0"
       inkscape:connector-curvature="0" />
    <path
       style="fill:none;fill-rule:evenodd;stroke:#000000;stroke-width:2.70838523;stroke-linecap:butt;stroke-linejoin:miter;stroke-miterlimit:4;stroke-dasharray:2.70838524, 5.41677049;stroke-dashoffset:0;stroke-opacity:1"
       d="m 346.16033,50.139229 0,259.231161"
       id="path4148-1"
       inkscape:connector-curvature="0" />
    <path
       style="fill:none;fill-rule:evenodd;stroke:#000000;stroke-width:2.70838523;stroke-linecap:butt;stroke-linejoin:miter;stroke-miterlimit:4;stroke-dasharray:2.70838524, 5.41677049;stroke-dashoffset:0;stroke-opacity:1"
       d="m 422.57549,50.381034 0,259.231166"
       id="path4148-5-9"
       inkscape:connector-curvature="0" />
    <path
       style="fill:none;fill-rule:evenodd;stroke:#000000;stroke-width:2.70838523;stroke-linecap:butt;stroke-linejoin:miter;stroke-miterlimit:4;stroke-dasharray:2.70838524, 5.41677049;stroke-dashoffset:0;stroke-opacity:1"
       d="m 499.14439,50.11201 0,259.23116"
       id="path4148-6-5"
       inkscape:connector-curvature="0" />
    <path
       style="fill:none;fill-rule:evenodd;stroke:#000000;stroke-width:2.70838523;stroke-linecap:butt;stroke-linejoin:miter;stroke-miterlimit:4;stroke-dasharray:2.70838524, 5.41677049;stroke-dashoffset:0;stroke-opacity:1"
       d="m 575.55953,50.353814 0,259.231166"
       id="path4148-5-0-3"
       inkscape:connector-curvature="0" />
    <path
       style="fill:none;fill-rule:evenodd;stroke:#000000;stroke-width:2.70838523;stroke-linecap:butt;stroke-linejoin:miter;stroke-miterlimit:4;stroke-dasharray:2.70838524, 5.41677049;stroke-dashoffset:0;stroke-opacity:1"
       d="m 642.89088,49.441653 0,259.231157"
       id="path4148-6-5-3"
       inkscape:connector-curvature="0" />
    <path
       style="fill:none;fill-rule:evenodd;stroke:#000000;stroke-width:2.70838523;stroke-linecap:butt;stroke-linejoin:miter;stroke-miterlimit:4;stroke-dasharray:2.70838524, 5.41677049;stroke-dashoffset:0;stroke-opacity:1"
       d="m 719.30602,49.683458 0,259.231172"
       id="path4148-5-0-3-0"
       inkscape:connector-curvature="0" />
    <path
       style="fill:none;fill-rule:evenodd;stroke:#000000;stroke-width:2;stroke-linecap:butt;stroke-linejoin:miter;stroke-miterlimit:4;stroke-dasharray:2, 8;stroke-dashoffset:0;stroke-opacity:1"
       d="M 18.423916,53.661873 736.64238,55.177102"
       id="path4271"
       inkscape:connector-curvature="0" />
    <path
       style="fill:none;fill-rule:evenodd;stroke:#000000;stroke-width:2;stroke-linecap:butt;stroke-linejoin:miter;stroke-miterlimit:4;stroke-dasharray:2, 8;stroke-dashoffset:0;stroke-opacity:1"
       d="M 18.055258,86.355407 736.27377,87.870636"
       id="path4271-23"
       inkscape:connector-curvature="0" />
    <path
       style="fill:none;fill-rule:evenodd;stroke:#000000;stroke-width:2;stroke-linecap:butt;stroke-linejoin:miter;stroke-miterlimit:4;stroke-dasharray:2, 8;stroke-dashoffset:0;stroke-opacity:1"
       d="m 18.625285,118.84716 718.218505,1.51523"
       id="path4271-6"
       inkscape:connector-curvature="0" />
    <path
       style="fill:none;fill-rule:evenodd;stroke:#000000;stroke-width:2;stroke-linecap:butt;stroke-linejoin:miter;stroke-miterlimit:4;stroke-dasharray:2, 8;stroke-dashoffset:0;stroke-opacity:1"
       d="m 18.256625,151.5407 718.218565,1.51523"
       id="path4271-23-5"
       inkscape:connector-curvature="0" />
    <path
       style="fill:none;fill-rule:evenodd;stroke:#000000;stroke-width:2;stroke-linecap:butt;stroke-linejoin:miter;stroke-miterlimit:4;stroke-dasharray:2, 8;stroke-dashoffset:0;stroke-opacity:1"
       d="m 18.125284,184.2043 718.218506,1.51523"
       id="path4271-6-2"
       inkscape:connector-curvature="0" />
    <path
       style="fill:none;fill-rule:evenodd;stroke:#000000;stroke-width:2;stroke-linecap:butt;stroke-linejoin:miter;stroke-miterlimit:4;stroke-dasharray:2, 8;stroke-dashoffset:0;stroke-opacity:1"
       d="m 17.756624,216.89784 718.218566,1.51523"
       id="path4271-23-5-1"
       inkscape:connector-curvature="0" />
    <path
       style="fill:none;fill-rule:evenodd;stroke:#000000;stroke-width:2;stroke-linecap:butt;stroke-linejoin:miter;stroke-miterlimit:4;stroke-dasharray:2, 8;stroke-dashoffset:0;stroke-opacity:1"
       d="m 18.625278,248.49002 718.218552,1.51523"
       id="path4271-6-2-9"
       inkscape:connector-curvature="0" />
    <path
       style="fill:none;fill-rule:evenodd;stroke:#000000;stroke-width:2;stroke-linecap:butt;stroke-linejoin:miter;stroke-miterlimit:4;stroke-dasharray:2, 8;stroke-dashoffset:0;stroke-opacity:1"
       d="m 18.256618,281.18356 718.218612,1.51523"
       id="path4271-23-5-1-9"
       inkscape:connector-curvature="0" />
  </g>
</svg>
