<?xml version="1.0" encoding="UTF-8" standalone="no"?>
<!-- Created with Inkscape (http://www.inkscape.org/) -->

<svg
   xmlns:dc="http://purl.org/dc/elements/1.1/"
   xmlns:cc="http://creativecommons.org/ns#"
   xmlns:rdf="http://www.w3.org/1999/02/22-rdf-syntax-ns#"
   xmlns:svg="http://www.w3.org/2000/svg"
   xmlns="http://www.w3.org/2000/svg"
   xmlns:sodipodi="http://sodipodi.sourceforge.net/DTD/sodipodi-0.dtd"
   xmlns:inkscape="http://www.inkscape.org/namespaces/inkscape"
   width="98.562614mm"
   height="125.50539mm"
   viewBox="0 0 98.562614 125.50539"
   version="1.1"
   id="svg892"
   inkscape:version="0.92.5 (2060ec1f9f, 2020-04-08)"
   sodipodi:docname="partial-tree3.svg">
  <defs
     id="defs886">
    <marker
       inkscape:isstock="true"
       style="overflow:visible;"
       id="marker1999"
       refX="0.0"
       refY="0.0"
       orient="auto"
       inkscape:stockid="Arrow1Lend">
      <path
         transform="scale(0.8) rotate(180) translate(12.5,0)"
         style="fill-rule:evenodd;stroke:#ff00ff;stroke-width:1pt;stroke-opacity:1;fill:#ff00ff;fill-opacity:1"
         d="M 0.0,0.0 L 5.0,-5.0 L -12.5,0.0 L 5.0,5.0 L 0.0,0.0 z "
         id="path1997" />
    </marker>
    <marker
       inkscape:stockid="Arrow2Mend"
       orient="auto"
       refY="0.0"
       refX="0.0"
       id="Arrow2Mend"
       style="overflow:visible;"
       inkscape:isstock="true">
      <path
         id="path1640"
         style="fill-rule:evenodd;stroke-width:0.625;stroke-linejoin:round;stroke:#000000;stroke-opacity:1;fill:#000000;fill-opacity:1"
         d="M 8.7185878,4.0337352 L -2.2072895,0.016013256 L 8.7185884,-4.0017078 C 6.9730900,-1.6296469 6.9831476,1.6157441 8.7185878,4.0337352 z "
         transform="scale(0.6) rotate(180) translate(0,0)" />
    </marker>
    <marker
       inkscape:stockid="Arrow1Send"
       orient="auto"
       refY="0.0"
       refX="0.0"
       id="Arrow1Send"
       style="overflow:visible;"
       inkscape:isstock="true">
      <path
         id="path1628"
         d="M 0.0,0.0 L 5.0,-5.0 L -12.5,0.0 L 5.0,5.0 L 0.0,0.0 z "
         style="fill-rule:evenodd;stroke:#000000;stroke-width:1pt;stroke-opacity:1;fill:#000000;fill-opacity:1"
         transform="scale(0.2) rotate(180) translate(6,0)" />
    </marker>
    <marker
       inkscape:isstock="true"
       style="overflow:visible"
       id="marker1999-2"
       refX="0"
       refY="0"
       orient="auto"
       inkscape:stockid="Arrow1Lend">
      <path
         inkscape:connector-curvature="0"
         transform="matrix(-0.8,0,0,-0.8,-10,0)"
         style="fill:#ff00ff;fill-opacity:1;fill-rule:evenodd;stroke:#ff00ff;stroke-width:1.00000003pt;stroke-opacity:1"
         d="M 0,0 5,-5 -12.5,0 5,5 Z"
         id="path1997-5" />
    </marker>
    <marker
       inkscape:stockid="Arrow1Lend"
       orient="auto"
       refY="0"
       refX="0"
       id="Arrow1Lend"
       style="overflow:visible"
       inkscape:isstock="true"
       inkscape:collect="always">
      <path
         inkscape:connector-curvature="0"
         id="path1616"
         d="M 0,0 5,-5 -12.5,0 5,5 Z"
         style="fill:#ff00ff;fill-opacity:1;fill-rule:evenodd;stroke:#ff00ff;stroke-width:1.00000003pt;stroke-opacity:1"
         transform="matrix(-0.8,0,0,-0.8,-10,0)" />
    </marker>
  </defs>
  <sodipodi:namedview
     id="base"
     pagecolor="#ffffff"
     bordercolor="#666666"
     borderopacity="1.0"
     inkscape:pageopacity="0.0"
     inkscape:pageshadow="2"
     inkscape:zoom="1.4"
     inkscape:cx="219.66702"
     inkscape:cy="243.79633"
     inkscape:document-units="mm"
     inkscape:current-layer="layer1"
     showgrid="false"
     fit-margin-top="0"
     fit-margin-left="0"
     fit-margin-right="0"
     fit-margin-bottom="0"
     inkscape:window-width="1920"
     inkscape:window-height="1029"
     inkscape:window-x="0"
     inkscape:window-y="25"
     inkscape:window-maximized="1"
     showguides="false">
    <sodipodi:guide
       position="-19.938244,100.82515"
       orientation="1,0"
       id="guide1975"
       inkscape:locked="false" />
  </sodipodi:namedview>
  <metadata
     id="metadata889">
    <rdf:RDF>
      <cc:Work
         rdf:about="">
        <dc:format>image/svg+xml</dc:format>
        <dc:type
           rdf:resource="http://purl.org/dc/dcmitype/StillImage" />
        <dc:title />
      </cc:Work>
    </rdf:RDF>
  </metadata>
  <g
     inkscape:label="Layer 1"
     inkscape:groupmode="layer"
     id="layer1"
     transform="translate(-32.646046,-35.809802)">
    <path
       style="fill:#000000;fill-opacity:1;stroke:#000000;stroke-width:1.60519826;stroke-linecap:butt;stroke-linejoin:round;stroke-miterlimit:4;stroke-dasharray:none;stroke-dashoffset:0;stroke-opacity:1;paint-order:normal"
       d="M 69.41659,66.333563 88.014306,53.256583"
       id="path5075-8-8-4"
       inkscape:connector-curvature="0"
       sodipodi:nodetypes="cc" />
    <path
       style="fill:#000000;fill-opacity:1;stroke:#000000;stroke-width:1.60519826;stroke-linecap:butt;stroke-linejoin:round;stroke-miterlimit:4;stroke-dasharray:none;stroke-dashoffset:0;stroke-opacity:1;paint-order:normal"
       d="M 103.60887,66.548073 88.014306,53.256583"
       id="path5075-4-9-5-7"
       inkscape:connector-curvature="0"
       sodipodi:nodetypes="cc" />
    <path
       style="fill:#ffcc00;fill-opacity:1;stroke:#ffcc00;stroke-width:1.60519826;stroke-linecap:butt;stroke-linejoin:round;stroke-miterlimit:4;stroke-dasharray:none;stroke-dashoffset:0;stroke-opacity:1;paint-order:normal"
       id="path4920-75-8-1-3-06-7"
       sodipodi:type="arc"
       sodipodi:cx="87.799828"
       sodipodi:cy="47.666531"
       sodipodi:rx="4.290206"
       sodipodi:ry="4.290206"
       sodipodi:start="0.92998298"
       sodipodi:end="0.90224447"
       d="m 90.364717,51.105602 a 4.290206,4.290206 0 0 1 -5.986091,-0.850395 4.290206,4.290206 0 0 1 0.808863,-5.991845 4.290206,4.290206 0 0 1 5.99731,0.767293 4.290206,4.290206 0 0 1 -0.725686,6.002487 l -2.659285,-3.366611 z" />
    <path
       style="fill:#ff0000;fill-opacity:1;stroke:#ff0000;stroke-width:1.60519826;stroke-linecap:butt;stroke-linejoin:round;stroke-miterlimit:4;stroke-dasharray:none;stroke-dashoffset:0;stroke-opacity:1;paint-order:normal"
       id="path4920-5"
       sodipodi:type="arc"
       sodipodi:cx="113.71719"
       sodipodi:cy="134.73457"
       sodipodi:rx="4.290206"
       sodipodi:ry="4.290206"
       sodipodi:start="0.92998298"
       sodipodi:end="0.90224447"
       d="m 116.28208,138.17364 a 4.290206,4.290206 0 0 1 -5.98609,-0.85039 4.290206,4.290206 0 0 1 0.80887,-5.99184 4.290206,4.290206 0 0 1 5.9973,0.76729 4.290206,4.290206 0 0 1 -0.72568,6.00248 l -2.65929,-3.36661 z" />
    <path
       style="fill:#ff0000;fill-opacity:1;stroke:#ff0000;stroke-width:1.60519826;stroke-linecap:butt;stroke-linejoin:round;stroke-miterlimit:4;stroke-dasharray:none;stroke-dashoffset:0;stroke-opacity:1;paint-order:normal"
       id="path4920-4-4"
       sodipodi:type="arc"
       sodipodi:cx="90.979172"
       sodipodi:cy="93.66069"
       sodipodi:rx="4.290206"
       sodipodi:ry="4.290206"
       sodipodi:start="0.92998298"
       sodipodi:end="0.90224447"
       d="m 93.544061,97.099761 a 4.290206,4.290206 0 0 1 -5.986091,-0.850394 4.290206,4.290206 0 0 1 0.808863,-5.991845 4.290206,4.290206 0 0 1 5.99731,0.767293 4.290206,4.290206 0 0 1 -0.725686,6.002486 L 90.979172,93.66069 Z" />
    <path
       style="fill:#ff0000;fill-opacity:1;stroke:#ff0000;stroke-width:1.60519826;stroke-linecap:butt;stroke-linejoin:round;stroke-miterlimit:4;stroke-dasharray:none;stroke-dashoffset:0;stroke-opacity:1;paint-order:normal"
       id="path4920-7-8"
       sodipodi:type="arc"
       sodipodi:cx="66.525002"
       sodipodi:cy="113.8074"
       sodipodi:rx="4.290206"
       sodipodi:ry="4.290206"
       sodipodi:start="0.92998298"
       sodipodi:end="0.90224447"
       d="m 69.089891,117.24647 a 4.290206,4.290206 0 0 1 -5.986091,-0.85039 4.290206,4.290206 0 0 1 0.808863,-5.99184 4.290206,4.290206 0 0 1 5.99731,0.76729 4.290206,4.290206 0 0 1 -0.725686,6.00248 l -2.659285,-3.36661 z" />
    <path
       style="fill:#0000ff;fill-opacity:1;stroke:#0000ff;stroke-width:1.60519826;stroke-linecap:butt;stroke-linejoin:round;stroke-miterlimit:4;stroke-dasharray:none;stroke-dashoffset:0;stroke-opacity:1;paint-order:normal"
       id="path4920-75-1"
       sodipodi:type="arc"
       sodipodi:cx="100.84661"
       sodipodi:cy="134.73456"
       sodipodi:rx="4.290206"
       sodipodi:ry="4.290206"
       sodipodi:start="0.92998298"
       sodipodi:end="0.90224447"
       d="m 103.4115,138.17363 a 4.290206,4.290206 0 0 1 -5.986091,-0.8504 4.290206,4.290206 0 0 1 0.808863,-5.99184 4.290206,4.290206 0 0 1 5.997308,0.76729 4.290206,4.290206 0 0 1 -0.72568,6.00249 l -2.65929,-3.36661 z" />
    <path
       style="fill:#000000;fill-opacity:1;stroke:#000000;stroke-width:1.60519826;stroke-linecap:butt;stroke-linejoin:round;stroke-miterlimit:4;stroke-dasharray:none;stroke-dashoffset:0;stroke-opacity:1;paint-order:normal"
       d="m 101.30053,129.23684 6.37063,-9.85934"
       id="path5075-28"
       inkscape:connector-curvature="0" />
    <path
       style="fill:#000000;fill-opacity:1;stroke:#000000;stroke-width:1.60519826;stroke-linecap:butt;stroke-linejoin:round;stroke-miterlimit:4;stroke-dasharray:none;stroke-dashoffset:0;stroke-opacity:1;paint-order:normal"
       d="m 114.04179,129.23684 -6.37063,-9.85934"
       id="path5075-4-93"
       inkscape:connector-curvature="0" />
    <path
       style="fill:#ffcc00;fill-opacity:1;stroke:#ffcc00;stroke-width:1.60519826;stroke-linecap:butt;stroke-linejoin:round;stroke-miterlimit:4;stroke-dasharray:none;stroke-dashoffset:0;stroke-opacity:1;paint-order:normal"
       id="path4920-75-8-6"
       sodipodi:type="arc"
       sodipodi:cx="107.36777"
       sodipodi:cy="113.61362"
       sodipodi:rx="4.290206"
       sodipodi:ry="4.290206"
       sodipodi:start="0.92998298"
       sodipodi:end="0.90224447"
       d="m 109.93266,117.05269 a 4.290206,4.290206 0 0 1 -5.98609,-0.8504 4.290206,4.290206 0 0 1 0.80886,-5.99184 4.290206,4.290206 0 0 1 5.99731,0.76729 4.290206,4.290206 0 0 1 -0.72569,6.00249 l -2.65928,-3.36661 z" />
    <path
       style="fill:#ffcc00;fill-opacity:1;stroke:#ffcc00;stroke-width:1.60519826;stroke-linecap:butt;stroke-linejoin:round;stroke-miterlimit:4;stroke-dasharray:none;stroke-dashoffset:0;stroke-opacity:1;paint-order:normal"
       id="path4920-75-8-1-8"
       sodipodi:type="arc"
       sodipodi:cx="119.07999"
       sodipodi:cy="93.849335"
       sodipodi:rx="4.290206"
       sodipodi:ry="4.290206"
       sodipodi:start="0.92998298"
       sodipodi:end="0.90224447"
       d="m 121.64488,97.288406 a 4.290206,4.290206 0 0 1 -5.9861,-0.850395 4.290206,4.290206 0 0 1 0.80887,-5.991845 4.290206,4.290206 0 0 1 5.99731,0.767293 4.290206,4.290206 0 0 1 -0.72569,6.002487 l -2.65928,-3.366611 z" />
    <path
       style="fill:#000000;fill-opacity:1;stroke:#000000;stroke-width:1.60519826;stroke-linecap:butt;stroke-linejoin:round;stroke-miterlimit:4;stroke-dasharray:none;stroke-dashoffset:0;stroke-opacity:1;paint-order:normal"
       d="m 109.45939,109.02385 6.37063,-9.85934"
       id="path5075-2-0"
       inkscape:connector-curvature="0" />
    <path
       style="fill:#000000;fill-opacity:1;stroke:#000000;stroke-width:1.60519826;stroke-linecap:butt;stroke-linejoin:round;stroke-miterlimit:4;stroke-dasharray:none;stroke-dashoffset:0;stroke-opacity:1;paint-order:normal"
       d="M 93.939676,89.091602 106.53112,76.872672"
       id="path5075-8-2"
       inkscape:connector-curvature="0"
       sodipodi:nodetypes="cc" />
    <path
       style="fill:#000000;fill-opacity:1;stroke:#000000;stroke-width:1.60519826;stroke-linecap:butt;stroke-linejoin:round;stroke-miterlimit:4;stroke-dasharray:none;stroke-dashoffset:0;stroke-opacity:1;paint-order:normal"
       d="M 117.62097,88.877102 106.53112,76.872672"
       id="path5075-4-9-1"
       inkscape:connector-curvature="0"
       sodipodi:nodetypes="cc" />
    <path
       style="fill:#ffcc00;fill-opacity:1;stroke:#ffcc00;stroke-width:1.60519826;stroke-linecap:butt;stroke-linejoin:round;stroke-miterlimit:4;stroke-dasharray:none;stroke-dashoffset:0;stroke-opacity:1;paint-order:normal"
       id="path4920-75-8-1-3-05"
       sodipodi:type="arc"
       sodipodi:cx="106.31669"
       sodipodi:cy="71.282639"
       sodipodi:rx="4.290206"
       sodipodi:ry="4.290206"
       sodipodi:start="0.92998298"
       sodipodi:end="0.90224447"
       d="m 108.88158,74.72171 a 4.290206,4.290206 0 0 1 -5.98609,-0.850395 4.290206,4.290206 0 0 1 0.80886,-5.991845 4.290206,4.290206 0 0 1 5.99731,0.767293 4.290206,4.290206 0 0 1 -0.72569,6.002486 l -2.65928,-3.36661 z" />
    <path
       style="fill:#0000ff;fill-opacity:1;stroke:#0000ff;stroke-width:1.60519826;stroke-linecap:butt;stroke-linejoin:round;stroke-miterlimit:4;stroke-dasharray:none;stroke-dashoffset:0;stroke-opacity:1;paint-order:normal"
       id="path4920-75-6-1"
       sodipodi:type="arc"
       sodipodi:cx="52.045536"
       sodipodi:cy="114.15453"
       sodipodi:rx="4.290206"
       sodipodi:ry="4.290206"
       sodipodi:start="0.92998298"
       sodipodi:end="0.90224447"
       d="m 54.610425,117.5936 a 4.290206,4.290206 0 0 1 -5.986091,-0.85039 4.290206,4.290206 0 0 1 0.808863,-5.99184 4.290206,4.290206 0 0 1 5.99731,0.76729 4.290206,4.290206 0 0 1 -0.725686,6.00248 l -2.659285,-3.36661 z" />
    <path
       style="fill:#000000;fill-opacity:1;stroke:#000000;stroke-width:1.60519826;stroke-linecap:butt;stroke-linejoin:round;stroke-miterlimit:4;stroke-dasharray:none;stroke-dashoffset:0;stroke-opacity:1;paint-order:normal"
       d="m 52.946922,108.82705 6.370629,-9.85934"
       id="path5075-80-1"
       inkscape:connector-curvature="0" />
    <path
       style="fill:#000000;fill-opacity:1;stroke:#000000;stroke-width:1.60519826;stroke-linecap:butt;stroke-linejoin:round;stroke-miterlimit:4;stroke-dasharray:none;stroke-dashoffset:0;stroke-opacity:1;paint-order:normal"
       d="M 65.68818,108.82705 59.317551,98.96771"
       id="path5075-4-2-0"
       inkscape:connector-curvature="0" />
    <path
       style="fill:#ffcc00;fill-opacity:1;stroke:#ffcc00;stroke-width:1.60519826;stroke-linecap:butt;stroke-linejoin:round;stroke-miterlimit:4;stroke-dasharray:none;stroke-dashoffset:0;stroke-opacity:1;paint-order:normal"
       id="path4920-75-8-10-8"
       sodipodi:type="arc"
       sodipodi:cx="59.165943"
       sodipodi:cy="93.127914"
       sodipodi:rx="4.290206"
       sodipodi:ry="4.290206"
       sodipodi:start="0.92998298"
       sodipodi:end="0.90224447"
       d="m 61.730833,96.566985 a 4.290206,4.290206 0 0 1 -5.986092,-0.850394 4.290206,4.290206 0 0 1 0.808864,-5.991845 4.290206,4.290206 0 0 1 5.997309,0.767293 4.290206,4.290206 0 0 1 -0.725686,6.002486 l -2.659285,-3.366611 z" />
    <path
       style="fill:#0000ff;fill-opacity:1;stroke:#0000ff;stroke-width:1.60519826;stroke-linecap:butt;stroke-linejoin:round;stroke-miterlimit:4;stroke-dasharray:none;stroke-dashoffset:0;stroke-opacity:1;paint-order:normal"
       id="path4920-75-5-5"
       sodipodi:type="arc"
       sodipodi:cx="72.665581"
       sodipodi:cy="93.127914"
       sodipodi:rx="4.290206"
       sodipodi:ry="4.290206"
       sodipodi:start="0.92998298"
       sodipodi:end="0.90224447"
       d="m 75.23047,96.566985 a 4.290206,4.290206 0 0 1 -5.986091,-0.850394 4.290206,4.290206 0 0 1 0.808863,-5.991845 4.290206,4.290206 0 0 1 5.99731,0.767293 4.290206,4.290206 0 0 1 -0.725686,6.002486 l -2.659285,-3.366611 z" />
    <path
       style="fill:#000000;fill-opacity:1;stroke:#000000;stroke-width:1.60519826;stroke-linecap:butt;stroke-linejoin:round;stroke-miterlimit:4;stroke-dasharray:none;stroke-dashoffset:0;stroke-opacity:1;paint-order:normal"
       d="m 60.075961,87.136562 6.370643,-9.85935"
       id="path5075-1-0"
       inkscape:connector-curvature="0" />
    <path
       style="fill:#000000;fill-opacity:1;stroke:#000000;stroke-width:1.60519826;stroke-linecap:butt;stroke-linejoin:round;stroke-miterlimit:4;stroke-dasharray:none;stroke-dashoffset:0;stroke-opacity:1;paint-order:normal"
       d="m 72.817235,87.136562 -6.370631,-9.85935"
       id="path5075-4-1-6"
       inkscape:connector-curvature="0" />
    <path
       style="fill:#ffcc00;fill-opacity:1;stroke:#ffcc00;stroke-width:1.60519826;stroke-linecap:butt;stroke-linejoin:round;stroke-miterlimit:4;stroke-dasharray:none;stroke-dashoffset:0;stroke-opacity:1;paint-order:normal"
       id="path4920-75-8-1-3-0-4"
       sodipodi:type="arc"
       sodipodi:cx="66.143295"
       sodipodi:cy="71.589096"
       sodipodi:rx="4.290206"
       sodipodi:ry="4.290206"
       sodipodi:start="0.92998298"
       sodipodi:end="0.90224447"
       d="m 68.708185,75.028167 a 4.290206,4.290206 0 0 1 -5.986092,-0.850395 4.290206,4.290206 0 0 1 0.808864,-5.991844 4.290206,4.290206 0 0 1 5.997309,0.767293 4.290206,4.290206 0 0 1 -0.725685,6.002486 l -2.659286,-3.366611 z" />
    <path
       style="fill:none;stroke:#ff00ff;stroke-width:0.26499999;stroke-linecap:butt;stroke-linejoin:miter;stroke-miterlimit:4;stroke-dasharray:none;stroke-opacity:1;marker-end:url(#Arrow1Lend)"
       d="m 93.519542,50.118448 c 8.117768,2.612259 15.238258,6.720433 17.372518,18.307963 11.4469,4.540019 12.36838,13.625119 12.96257,22.851539 2.43677,3.29225 2.82693,4.10897 2.10574,10.10482"
       id="path1611"
       inkscape:connector-curvature="0"
       sodipodi:nodetypes="cccc" />
    <path
       style="fill:#ffffff;fill-opacity:1;stroke:#ff00ff;stroke-width:0.5;stroke-linecap:butt;stroke-linejoin:round;stroke-miterlimit:4;stroke-dasharray:none;stroke-dashoffset:0;stroke-opacity:1;paint-order:normal"
       id="path1977"
       sodipodi:type="arc"
       sodipodi:cx="125.27796"
       sodipodi:cy="104.90443"
       sodipodi:rx="2.4095981"
       sodipodi:ry="2.4095981"
       sodipodi:start="0.92998298"
       sodipodi:end="0.91831274"
       sodipodi:open="true"
       d="m 126.71853,106.83598 a 2.4095981,2.4095981 0 0 1 -3.36791,-0.48535 2.4095981,2.4095981 0 0 1 0.47552,-3.36932 2.4095981,2.4095981 0 0 1 3.3707,0.46569 2.4095981,2.4095981 0 0 1 -0.45586,3.37204" />
    <path
       style="fill:#ffffff;fill-opacity:1;stroke:#ff00ff;stroke-width:0.5;stroke-linecap:butt;stroke-linejoin:round;stroke-miterlimit:4;stroke-dasharray:none;stroke-dashoffset:0;stroke-opacity:1;paint-order:normal"
       d="m 128.0183,102.11687 -5.6224,5.62239"
       id="path1979"
       inkscape:connector-curvature="0" />
    <path
       style="fill:none;stroke:#ff00ff;stroke-width:0.26458332px;stroke-linecap:butt;stroke-linejoin:miter;stroke-opacity:1;marker-end:url(#marker1999-2)"
       d="m 86.570542,57.20109 13.898008,15.10073 -5.345388,9.75534"
       id="path1989"
       inkscape:connector-curvature="0" />
    <path
       style="fill:#ffffff;fill-opacity:1;stroke:#ff00ff;stroke-width:0.5;stroke-linecap:butt;stroke-linejoin:round;stroke-miterlimit:4;stroke-dasharray:none;stroke-dashoffset:0;stroke-opacity:1;paint-order:normal"
       id="path1977-0"
       sodipodi:type="arc"
       sodipodi:cx="91.591255"
       sodipodi:cy="85.363655"
       sodipodi:rx="2.4095981"
       sodipodi:ry="2.4095981"
       sodipodi:start="0.92998298"
       sodipodi:end="0.91831274"
       sodipodi:open="true"
       d="m 93.031828,87.295212 a 2.4095981,2.4095981 0 0 1 -3.367919,-0.485355 2.4095981,2.4095981 0 0 1 0.475527,-3.369321 2.4095981,2.4095981 0 0 1 3.370694,0.465696 2.4095981,2.4095981 0 0 1 -0.455859,3.372037" />
    <path
       style="fill:#ffffff;fill-opacity:1;stroke:#ff00ff;stroke-width:0.5;stroke-linecap:butt;stroke-linejoin:round;stroke-miterlimit:4;stroke-dasharray:none;stroke-dashoffset:0;stroke-opacity:1;paint-order:normal"
       d="m 94.331592,82.57608 -5.6224,5.62239"
       id="path1979-5"
       inkscape:connector-curvature="0" />
  </g>
</svg>
