<?xml version="1.0" encoding="UTF-8" standalone="no"?>
<!-- Created with Inkscape (http://www.inkscape.org/) -->

<svg
   xmlns:dc="http://purl.org/dc/elements/1.1/"
   xmlns:cc="http://creativecommons.org/ns#"
   xmlns:rdf="http://www.w3.org/1999/02/22-rdf-syntax-ns#"
   xmlns:svg="http://www.w3.org/2000/svg"
   xmlns="http://www.w3.org/2000/svg"
   xmlns:sodipodi="http://sodipodi.sourceforge.net/DTD/sodipodi-0.dtd"
   xmlns:inkscape="http://www.inkscape.org/namespaces/inkscape"
   width="98.562614mm"
   height="125.50539mm"
   viewBox="0 0 98.562614 125.50539"
   version="1.1"
   id="svg892"
   inkscape:version="0.92.5 (2060ec1f9f, 2020-04-08)"
   sodipodi:docname="partial-tree2.svg">
  <defs
     id="defs886" />
  <sodipodi:namedview
     id="base"
     pagecolor="#ffffff"
     bordercolor="#666666"
     borderopacity="1.0"
     inkscape:pageopacity="0.0"
     inkscape:pageshadow="2"
     inkscape:zoom="1.4"
     inkscape:cx="145.85597"
     inkscape:cy="259.30756"
     inkscape:document-units="mm"
     inkscape:current-layer="layer1"
     showgrid="false"
     fit-margin-top="0"
     fit-margin-left="0"
     fit-margin-right="0"
     fit-margin-bottom="0"
     inkscape:window-width="1920"
     inkscape:window-height="1029"
     inkscape:window-x="0"
     inkscape:window-y="25"
     inkscape:window-maximized="1" />
  <metadata
     id="metadata889">
    <rdf:RDF>
      <cc:Work
         rdf:about="">
        <dc:format>image/svg+xml</dc:format>
        <dc:type
           rdf:resource="http://purl.org/dc/dcmitype/StillImage" />
        <dc:title />
      </cc:Work>
    </rdf:RDF>
  </metadata>
  <g
     inkscape:label="Layer 1"
     inkscape:groupmode="layer"
     id="layer1"
     transform="translate(-32.646046,-35.809802)">
    <path
       style="fill:#ffffff;fill-opacity:1;stroke:#000000;stroke-width:1.56974781;stroke-linecap:butt;stroke-linejoin:round;stroke-miterlimit:4;stroke-dasharray:1.56974783, 1.56974783;stroke-dashoffset:0;stroke-opacity:1;paint-order:normal"
       id="path4920-75-6-1"
       sodipodi:type="arc"
       sodipodi:cx="45.07692"
       sodipodi:cy="133.99255"
       sodipodi:rx="4.1954575"
       sodipodi:ry="4.1954575"
       sodipodi:start="0.92998298"
       sodipodi:end="0.883201"
       d="m 47.585164,137.35567 a 4.1954575,4.1954575 0 0 1 -5.8418,-0.81571 4.1954575,4.1954575 0 0 1 0.747338,-5.85094 4.1954575,4.1954575 0 0 1 5.85928,0.67886 4.1954575,4.1954575 0 0 1 -0.610286,5.86682"
       sodipodi:open="true" />
    <path
       style="fill:#000000;fill-opacity:1;stroke:#000000;stroke-width:1.57000005;stroke-linecap:butt;stroke-linejoin:round;stroke-miterlimit:4;stroke-dasharray:1.57000003, 1.57000003;stroke-dashoffset:0;stroke-opacity:1;paint-order:normal"
       d="m 45.958383,128.78273 6.229937,-9.64159"
       id="path5075-80-2"
       inkscape:connector-curvature="0" />
    <path
       style="fill:#000000;fill-opacity:1;stroke:#000000;stroke-width:1.57000005;stroke-linecap:butt;stroke-linejoin:round;stroke-miterlimit:4;stroke-dasharray:1.57000003, 1.57000003;stroke-dashoffset:0;stroke-opacity:1;paint-order:normal"
       d="M 58.418257,128.78273 52.18832,119.14114"
       id="path5075-4-2-8"
       inkscape:connector-curvature="0" />
    <path
       style="fill:#ffffff;fill-opacity:1;stroke:#000000;stroke-width:1.56974781;stroke-linecap:butt;stroke-linejoin:round;stroke-miterlimit:4;stroke-dasharray:1.56974785, 1.56974785;stroke-dashoffset:0;stroke-opacity:1;paint-order:normal"
       id="path4920-75-6-1-9"
       sodipodi:type="arc"
       sodipodi:cx="59.627945"
       sodipodi:cy="133.80106"
       sodipodi:rx="4.1954575"
       sodipodi:ry="4.1954575"
       sodipodi:start="0.92998298"
       sodipodi:end="0.883201"
       d="m 62.136189,137.16418 a 4.1954575,4.1954575 0 0 1 -5.841799,-0.81572 4.1954575,4.1954575 0 0 1 0.747337,-5.85094 4.1954575,4.1954575 0 0 1 5.85928,0.67886 4.1954575,4.1954575 0 0 1 -0.610286,5.86682"
       sodipodi:open="true" />
    <path
       style="fill:#ffffff;fill-opacity:1;stroke:#000000;stroke-width:1.56974781;stroke-linecap:butt;stroke-linejoin:round;stroke-miterlimit:4;stroke-dasharray:1.56974785, 1.56974785;stroke-dashoffset:0;stroke-opacity:1;paint-order:normal"
       id="path4920-75-6-1-3"
       sodipodi:type="arc"
       sodipodi:cx="52.897713"
       sodipodi:cy="154.51311"
       sodipodi:rx="4.1954575"
       sodipodi:ry="4.1954575"
       sodipodi:start="0.92998298"
       sodipodi:end="0.883201"
       d="m 55.405957,157.87623 a 4.1954575,4.1954575 0 0 1 -5.841799,-0.81572 4.1954575,4.1954575 0 0 1 0.747337,-5.85094 4.1954575,4.1954575 0 0 1 5.85928,0.67886 4.1954575,4.1954575 0 0 1 -0.610286,5.86682"
       sodipodi:open="true" />
    <path
       style="fill:#000000;fill-opacity:1;stroke:#000000;stroke-width:1.57000005;stroke-linecap:butt;stroke-linejoin:round;stroke-miterlimit:4;stroke-dasharray:1.57000005, 1.57000005;stroke-dashoffset:0;stroke-opacity:1;paint-order:normal"
       d="m 53.779178,149.30328 6.229937,-9.64159"
       id="path5075-80-2-6"
       inkscape:connector-curvature="0" />
    <path
       style="fill:#000000;fill-opacity:1;stroke:#000000;stroke-width:1.57000005;stroke-linecap:butt;stroke-linejoin:round;stroke-miterlimit:4;stroke-dasharray:1.57000005, 1.57000005;stroke-dashoffset:0;stroke-opacity:1;paint-order:normal"
       d="m 66.239052,149.30328 -6.229937,-9.64159"
       id="path5075-4-2-8-8"
       inkscape:connector-curvature="0" />
    <path
       style="fill:#ffffff;fill-opacity:1;stroke:#000000;stroke-width:1.56974781;stroke-linecap:butt;stroke-linejoin:round;stroke-miterlimit:4;stroke-dasharray:1.56974787, 1.56974787;stroke-dashoffset:0;stroke-opacity:1;paint-order:normal"
       id="path4920-75-6-1-9-0"
       sodipodi:type="arc"
       sodipodi:cx="67.448738"
       sodipodi:cy="154.32161"
       sodipodi:rx="4.1954575"
       sodipodi:ry="4.1954575"
       sodipodi:start="0.92998298"
       sodipodi:end="0.883201"
       d="m 69.956982,157.68473 a 4.1954575,4.1954575 0 0 1 -5.841799,-0.81572 4.1954575,4.1954575 0 0 1 0.747337,-5.85094 4.1954575,4.1954575 0 0 1 5.85928,0.67886 4.1954575,4.1954575 0 0 1 -0.610286,5.86682"
       sodipodi:open="true" />
    <path
       style="fill:#000000;fill-opacity:1;stroke:#000000;stroke-width:1.60519826;stroke-linecap:butt;stroke-linejoin:round;stroke-miterlimit:4;stroke-dasharray:none;stroke-dashoffset:0;stroke-opacity:1;paint-order:normal"
       d="M 69.416596,65.57761 88.014306,52.50063"
       id="path5075-8-8-4"
       inkscape:connector-curvature="0"
       sodipodi:nodetypes="cc" />
    <path
       style="fill:#000000;fill-opacity:1;stroke:#000000;stroke-width:1.60519826;stroke-linecap:butt;stroke-linejoin:round;stroke-miterlimit:4;stroke-dasharray:none;stroke-dashoffset:0;stroke-opacity:1;paint-order:normal"
       d="M 103.60887,65.79212 88.014306,52.50063"
       id="path5075-4-9-5-7"
       inkscape:connector-curvature="0"
       sodipodi:nodetypes="cc" />
    <path
       style="fill:#ffcc00;fill-opacity:1;stroke:#ffcc00;stroke-width:1.60519826;stroke-linecap:butt;stroke-linejoin:round;stroke-miterlimit:4;stroke-dasharray:none;stroke-dashoffset:0;stroke-opacity:1;paint-order:normal"
       id="path4920-75-8-1-3-06-7"
       sodipodi:type="arc"
       sodipodi:cx="87.799828"
       sodipodi:cy="46.91058"
       sodipodi:rx="4.290206"
       sodipodi:ry="4.290206"
       sodipodi:start="0.92998298"
       sodipodi:end="0.90224447"
       d="m 90.364717,50.349651 a 4.290206,4.290206 0 0 1 -5.986091,-0.850395 4.290206,4.290206 0 0 1 0.808863,-5.991845 4.290206,4.290206 0 0 1 5.99731,0.767293 4.290206,4.290206 0 0 1 -0.725686,6.002487 L 87.799828,46.91058 Z" />
    <path
       style="fill:#ff0000;fill-opacity:1;stroke:#ff0000;stroke-width:1.60519826;stroke-linecap:butt;stroke-linejoin:round;stroke-miterlimit:4;stroke-dasharray:none;stroke-dashoffset:0;stroke-opacity:1;paint-order:normal"
       id="path4920-5"
       sodipodi:type="arc"
       sodipodi:cx="113.7172"
       sodipodi:cy="133.97861"
       sodipodi:rx="4.290206"
       sodipodi:ry="4.290206"
       sodipodi:start="0.92998298"
       sodipodi:end="0.90224447"
       d="m 116.28209,137.41768 a 4.290206,4.290206 0 0 1 -5.98609,-0.8504 4.290206,4.290206 0 0 1 0.80886,-5.99184 4.290206,4.290206 0 0 1 5.99731,0.76729 4.290206,4.290206 0 0 1 -0.72568,6.00249 l -2.65929,-3.36661 z" />
    <path
       style="fill:#ff0000;fill-opacity:1;stroke:#ff0000;stroke-width:1.60519826;stroke-linecap:butt;stroke-linejoin:round;stroke-miterlimit:4;stroke-dasharray:none;stroke-dashoffset:0;stroke-opacity:1;paint-order:normal"
       id="path4920-4-4"
       sodipodi:type="arc"
       sodipodi:cx="90.979179"
       sodipodi:cy="92.904739"
       sodipodi:rx="4.290206"
       sodipodi:ry="4.290206"
       sodipodi:start="0.92998298"
       sodipodi:end="0.90224447"
       d="m 93.544069,96.34381 a 4.290206,4.290206 0 0 1 -5.986092,-0.850394 4.290206,4.290206 0 0 1 0.808864,-5.991845 4.290206,4.290206 0 0 1 5.997309,0.767293 4.290206,4.290206 0 0 1 -0.725685,6.002486 l -2.659286,-3.366611 z" />
    <path
       style="fill:#ff0000;fill-opacity:1;stroke:#ff0000;stroke-width:1.60519826;stroke-linecap:butt;stroke-linejoin:round;stroke-miterlimit:4;stroke-dasharray:none;stroke-dashoffset:0;stroke-opacity:1;paint-order:normal"
       id="path4920-7-8"
       sodipodi:type="arc"
       sodipodi:cx="66.525009"
       sodipodi:cy="113.05145"
       sodipodi:rx="4.290206"
       sodipodi:ry="4.290206"
       sodipodi:start="0.92998298"
       sodipodi:end="0.90224447"
       d="m 69.089899,116.49052 a 4.290206,4.290206 0 0 1 -5.986092,-0.85039 4.290206,4.290206 0 0 1 0.808864,-5.99185 4.290206,4.290206 0 0 1 5.997309,0.7673 4.290206,4.290206 0 0 1 -0.725686,6.00248 l -2.659285,-3.36661 z" />
    <path
       style="fill:#0000ff;fill-opacity:1;stroke:#0000ff;stroke-width:1.60519826;stroke-linecap:butt;stroke-linejoin:round;stroke-miterlimit:4;stroke-dasharray:none;stroke-dashoffset:0;stroke-opacity:1;paint-order:normal"
       id="path4920-75-1"
       sodipodi:type="arc"
       sodipodi:cx="100.84661"
       sodipodi:cy="133.97859"
       sodipodi:rx="4.290206"
       sodipodi:ry="4.290206"
       sodipodi:start="0.92998298"
       sodipodi:end="0.90224447"
       d="m 103.4115,137.41766 a 4.290206,4.290206 0 0 1 -5.986091,-0.85039 4.290206,4.290206 0 0 1 0.808863,-5.99185 4.290206,4.290206 0 0 1 5.997308,0.7673 4.290206,4.290206 0 0 1 -0.72568,6.00248 l -2.65929,-3.36661 z" />
    <path
       style="fill:#000000;fill-opacity:1;stroke:#000000;stroke-width:1.60519826;stroke-linecap:butt;stroke-linejoin:round;stroke-miterlimit:4;stroke-dasharray:none;stroke-dashoffset:0;stroke-opacity:1;paint-order:normal"
       d="m 101.30054,128.48089 6.37063,-9.85934"
       id="path5075-28"
       inkscape:connector-curvature="0" />
    <path
       style="fill:#000000;fill-opacity:1;stroke:#000000;stroke-width:1.60519826;stroke-linecap:butt;stroke-linejoin:round;stroke-miterlimit:4;stroke-dasharray:none;stroke-dashoffset:0;stroke-opacity:1;paint-order:normal"
       d="m 114.04179,128.48089 -6.37062,-9.85934"
       id="path5075-4-93"
       inkscape:connector-curvature="0" />
    <path
       style="fill:#ffcc00;fill-opacity:1;stroke:#ffcc00;stroke-width:1.60519826;stroke-linecap:butt;stroke-linejoin:round;stroke-miterlimit:4;stroke-dasharray:none;stroke-dashoffset:0;stroke-opacity:1;paint-order:normal"
       id="path4920-75-8-6"
       sodipodi:type="arc"
       sodipodi:cx="107.36777"
       sodipodi:cy="112.85767"
       sodipodi:rx="4.290206"
       sodipodi:ry="4.290206"
       sodipodi:start="0.92998298"
       sodipodi:end="0.90224447"
       d="m 109.93266,116.29674 a 4.290206,4.290206 0 0 1 -5.98609,-0.85039 4.290206,4.290206 0 0 1 0.80886,-5.99184 4.290206,4.290206 0 0 1 5.99731,0.76729 4.290206,4.290206 0 0 1 -0.72569,6.00248 l -2.65928,-3.36661 z" />
    <path
       style="fill:#ffcc00;fill-opacity:1;stroke:#ffcc00;stroke-width:1.60519826;stroke-linecap:butt;stroke-linejoin:round;stroke-miterlimit:4;stroke-dasharray:none;stroke-dashoffset:0;stroke-opacity:1;paint-order:normal"
       id="path4920-75-8-1-8"
       sodipodi:type="arc"
       sodipodi:cx="119.07999"
       sodipodi:cy="93.093384"
       sodipodi:rx="4.290206"
       sodipodi:ry="4.290206"
       sodipodi:start="0.92998298"
       sodipodi:end="0.90224447"
       d="m 121.64488,96.532455 a 4.290206,4.290206 0 0 1 -5.9861,-0.850395 4.290206,4.290206 0 0 1 0.80887,-5.991844 4.290206,4.290206 0 0 1 5.99731,0.767293 4.290206,4.290206 0 0 1 -0.72569,6.002486 l -2.65928,-3.366611 z" />
    <path
       style="fill:#000000;fill-opacity:1;stroke:#000000;stroke-width:1.60519826;stroke-linecap:butt;stroke-linejoin:round;stroke-miterlimit:4;stroke-dasharray:none;stroke-dashoffset:0;stroke-opacity:1;paint-order:normal"
       d="m 109.45939,108.2679 6.37063,-9.859339"
       id="path5075-2-0"
       inkscape:connector-curvature="0" />
    <path
       style="fill:#000000;fill-opacity:1;stroke:#000000;stroke-width:1.60519826;stroke-linecap:butt;stroke-linejoin:round;stroke-miterlimit:4;stroke-dasharray:none;stroke-dashoffset:0;stroke-opacity:1;paint-order:normal"
       d="M 93.939676,88.335649 106.53113,76.11672"
       id="path5075-8-2"
       inkscape:connector-curvature="0"
       sodipodi:nodetypes="cc" />
    <path
       style="fill:#000000;fill-opacity:1;stroke:#000000;stroke-width:1.60519826;stroke-linecap:butt;stroke-linejoin:round;stroke-miterlimit:4;stroke-dasharray:none;stroke-dashoffset:0;stroke-opacity:1;paint-order:normal"
       d="M 117.62097,88.121151 106.53113,76.11672"
       id="path5075-4-9-1"
       inkscape:connector-curvature="0"
       sodipodi:nodetypes="cc" />
    <path
       style="fill:#ffcc00;fill-opacity:1;stroke:#ffcc00;stroke-width:1.60519826;stroke-linecap:butt;stroke-linejoin:round;stroke-miterlimit:4;stroke-dasharray:none;stroke-dashoffset:0;stroke-opacity:1;paint-order:normal"
       id="path4920-75-8-1-3-05"
       sodipodi:type="arc"
       sodipodi:cx="106.3167"
       sodipodi:cy="70.526688"
       sodipodi:rx="4.290206"
       sodipodi:ry="4.290206"
       sodipodi:start="0.92998298"
       sodipodi:end="0.90224447"
       d="m 108.88159,73.965759 a 4.290206,4.290206 0 0 1 -5.98609,-0.850395 4.290206,4.290206 0 0 1 0.80887,-5.991845 4.290206,4.290206 0 0 1 5.9973,0.767293 4.290206,4.290206 0 0 1 -0.72568,6.002487 l -2.65929,-3.366611 z" />
    <path
       style="fill:#0000ff;fill-opacity:1;stroke:#0000ff;stroke-width:1.60519826;stroke-linecap:butt;stroke-linejoin:round;stroke-miterlimit:4;stroke-dasharray:none;stroke-dashoffset:0;stroke-opacity:1;paint-order:normal"
       id="path4920-75-6-1-6"
       sodipodi:type="arc"
       sodipodi:cx="52.04554"
       sodipodi:cy="113.39857"
       sodipodi:rx="4.290206"
       sodipodi:ry="4.290206"
       sodipodi:start="0.92998298"
       sodipodi:end="0.90224447"
       d="m 54.610429,116.83764 a 4.290206,4.290206 0 0 1 -5.986091,-0.8504 4.290206,4.290206 0 0 1 0.808863,-5.99184 4.290206,4.290206 0 0 1 5.99731,0.76729 4.290206,4.290206 0 0 1 -0.725686,6.00249 l -2.659285,-3.36661 z" />
    <path
       style="fill:#000000;fill-opacity:1;stroke:#000000;stroke-width:1.60519826;stroke-linecap:butt;stroke-linejoin:round;stroke-miterlimit:4;stroke-dasharray:none;stroke-dashoffset:0;stroke-opacity:1;paint-order:normal"
       d="m 52.946922,108.0711 6.37063,-9.859341"
       id="path5075-80-1"
       inkscape:connector-curvature="0" />
    <path
       style="fill:#000000;fill-opacity:1;stroke:#000000;stroke-width:1.60519826;stroke-linecap:butt;stroke-linejoin:round;stroke-miterlimit:4;stroke-dasharray:none;stroke-dashoffset:0;stroke-opacity:1;paint-order:normal"
       d="M 65.688186,108.0711 59.317552,98.211759"
       id="path5075-4-2-0"
       inkscape:connector-curvature="0" />
    <path
       style="fill:#ffcc00;fill-opacity:1;stroke:#ffcc00;stroke-width:1.60519826;stroke-linecap:butt;stroke-linejoin:round;stroke-miterlimit:4;stroke-dasharray:none;stroke-dashoffset:0;stroke-opacity:1;paint-order:normal"
       id="path4920-75-8-10-8"
       sodipodi:type="arc"
       sodipodi:cx="59.165947"
       sodipodi:cy="92.371964"
       sodipodi:rx="4.290206"
       sodipodi:ry="4.290206"
       sodipodi:start="0.92998298"
       sodipodi:end="0.90224447"
       d="m 61.730836,95.811034 a 4.290206,4.290206 0 0 1 -5.986091,-0.850394 4.290206,4.290206 0 0 1 0.808863,-5.991845 4.290206,4.290206 0 0 1 5.99731,0.767293 4.290206,4.290206 0 0 1 -0.725686,6.002486 l -2.659285,-3.36661 z" />
    <path
       style="fill:#0000ff;fill-opacity:1;stroke:#0000ff;stroke-width:1.60519826;stroke-linecap:butt;stroke-linejoin:round;stroke-miterlimit:4;stroke-dasharray:none;stroke-dashoffset:0;stroke-opacity:1;paint-order:normal"
       id="path4920-75-5-5"
       sodipodi:type="arc"
       sodipodi:cx="72.665588"
       sodipodi:cy="92.371964"
       sodipodi:rx="4.290206"
       sodipodi:ry="4.290206"
       sodipodi:start="0.92998298"
       sodipodi:end="0.90224447"
       d="m 75.230478,95.811034 a 4.290206,4.290206 0 0 1 -5.986092,-0.850394 4.290206,4.290206 0 0 1 0.808864,-5.991845 4.290206,4.290206 0 0 1 5.997309,0.767293 4.290206,4.290206 0 0 1 -0.725685,6.002486 l -2.659286,-3.36661 z" />
    <path
       style="fill:#000000;fill-opacity:1;stroke:#000000;stroke-width:1.60519826;stroke-linecap:butt;stroke-linejoin:round;stroke-miterlimit:4;stroke-dasharray:none;stroke-dashoffset:0;stroke-opacity:1;paint-order:normal"
       d="m 60.075966,86.380611 6.37064,-9.859351"
       id="path5075-1-0"
       inkscape:connector-curvature="0" />
    <path
       style="fill:#000000;fill-opacity:1;stroke:#000000;stroke-width:1.60519826;stroke-linecap:butt;stroke-linejoin:round;stroke-miterlimit:4;stroke-dasharray:none;stroke-dashoffset:0;stroke-opacity:1;paint-order:normal"
       d="M 72.817236,86.380611 66.446606,76.52126"
       id="path5075-4-1-6"
       inkscape:connector-curvature="0" />
    <path
       style="fill:#ffcc00;fill-opacity:1;stroke:#ffcc00;stroke-width:1.60519826;stroke-linecap:butt;stroke-linejoin:round;stroke-miterlimit:4;stroke-dasharray:none;stroke-dashoffset:0;stroke-opacity:1;paint-order:normal"
       id="path4920-75-8-1-3-0-4"
       sodipodi:type="arc"
       sodipodi:cx="66.143311"
       sodipodi:cy="70.833145"
       sodipodi:rx="4.290206"
       sodipodi:ry="4.290206"
       sodipodi:start="0.92998298"
       sodipodi:end="0.90224447"
       d="m 68.7082,74.272216 a 4.290206,4.290206 0 0 1 -5.986091,-0.850395 4.290206,4.290206 0 0 1 0.808863,-5.991844 4.290206,4.290206 0 0 1 5.99731,0.767293 4.290206,4.290206 0 0 1 -0.725686,6.002486 l -2.659285,-3.366611 z" />
  </g>
</svg>
