<?xml version="1.0" encoding="UTF-8" standalone="no"?>
<!-- Created with Inkscape (http://www.inkscape.org/) -->

<svg
   xmlns:dc="http://purl.org/dc/elements/1.1/"
   xmlns:cc="http://creativecommons.org/ns#"
   xmlns:rdf="http://www.w3.org/1999/02/22-rdf-syntax-ns#"
   xmlns:svg="http://www.w3.org/2000/svg"
   xmlns="http://www.w3.org/2000/svg"
   xmlns:sodipodi="http://sodipodi.sourceforge.net/DTD/sodipodi-0.dtd"
   xmlns:inkscape="http://www.inkscape.org/namespaces/inkscape"
   width="133.48792mm"
   height="79.490273mm"
   viewBox="0 0 133.48791 79.490275"
   version="1.1"
   id="svg892"
   inkscape:version="0.92.5 (2060ec1f9f, 2020-04-08)"
   sodipodi:docname="partial-tree4.svg">
  <defs
     id="defs886">
    <marker
       inkscape:stockid="Arrow2Send"
       orient="auto"
       refY="0"
       refX="0"
       id="Arrow2Send"
       style="overflow:visible"
       inkscape:isstock="true">
      <path
         id="path1646"
         style="fill:#000000;fill-opacity:1;fill-rule:evenodd;stroke:#000000;stroke-width:0.625;stroke-linejoin:round;stroke-opacity:1"
         d="M 8.7185878,4.0337352 -2.2072895,0.01601326 8.7185884,-4.0017078 c -1.7454984,2.3720609 -1.7354408,5.6174519 -6e-7,8.035443 z"
         transform="matrix(-0.3,0,0,-0.3,0.69,0)"
         inkscape:connector-curvature="0" />
    </marker>
    <marker
       inkscape:isstock="true"
       style="overflow:visible"
       id="marker1999"
       refX="0"
       refY="0"
       orient="auto"
       inkscape:stockid="Arrow1Lend">
      <path
         transform="matrix(-0.8,0,0,-0.8,-10,0)"
         style="fill:#ff00ff;fill-opacity:1;fill-rule:evenodd;stroke:#ff00ff;stroke-width:1.00000003pt;stroke-opacity:1"
         d="M 0,0 5,-5 -12.5,0 5,5 Z"
         id="path1997"
         inkscape:connector-curvature="0" />
    </marker>
    <marker
       inkscape:stockid="Arrow2Mend"
       orient="auto"
       refY="0"
       refX="0"
       id="Arrow2Mend"
       style="overflow:visible"
       inkscape:isstock="true">
      <path
         id="path1640"
         style="fill:#000000;fill-opacity:1;fill-rule:evenodd;stroke:#000000;stroke-width:0.625;stroke-linejoin:round;stroke-opacity:1"
         d="M 8.7185878,4.0337352 -2.2072895,0.01601326 8.7185884,-4.0017078 c -1.7454984,2.3720609 -1.7354408,5.6174519 -6e-7,8.035443 z"
         transform="scale(-0.6)"
         inkscape:connector-curvature="0" />
    </marker>
    <marker
       inkscape:stockid="Arrow1Send"
       orient="auto"
       refY="0"
       refX="0"
       id="Arrow1Send"
       style="overflow:visible"
       inkscape:isstock="true">
      <path
         id="path1628"
         d="M 0,0 5,-5 -12.5,0 5,5 Z"
         style="fill:#000000;fill-opacity:1;fill-rule:evenodd;stroke:#000000;stroke-width:1.00000003pt;stroke-opacity:1"
         transform="matrix(-0.2,0,0,-0.2,-1.2,0)"
         inkscape:connector-curvature="0" />
    </marker>
  </defs>
  <sodipodi:namedview
     id="base"
     pagecolor="#ffffff"
     bordercolor="#666666"
     borderopacity="1.0"
     inkscape:pageopacity="0.0"
     inkscape:pageshadow="2"
     inkscape:zoom="1.4"
     inkscape:cx="311.43245"
     inkscape:cy="115.93919"
     inkscape:document-units="mm"
     inkscape:current-layer="layer1"
     showgrid="false"
     fit-margin-top="0"
     fit-margin-left="0"
     fit-margin-right="0"
     fit-margin-bottom="0"
     inkscape:window-width="1920"
     inkscape:window-height="1029"
     inkscape:window-x="0"
     inkscape:window-y="25"
     inkscape:window-maximized="1"
     showguides="false">
    <sodipodi:guide
       position="-21.45015,66.996283"
       orientation="1,0"
       id="guide1975"
       inkscape:locked="false" />
  </sodipodi:namedview>
  <metadata
     id="metadata889">
    <rdf:RDF>
      <cc:Work
         rdf:about="">
        <dc:format>image/svg+xml</dc:format>
        <dc:type
           rdf:resource="http://purl.org/dc/dcmitype/StillImage" />
        <dc:title></dc:title>
      </cc:Work>
    </rdf:RDF>
  </metadata>
  <g
     inkscape:label="Layer 1"
     inkscape:groupmode="layer"
     id="layer1"
     transform="translate(-34.157952,-47.996048)">
    <path
       style="fill:#008000;fill-opacity:1;stroke:#008000;stroke-width:1.17747581;stroke-linecap:butt;stroke-linejoin:round;stroke-miterlimit:4;stroke-dasharray:none;stroke-dashoffset:0;stroke-opacity:1;paint-order:normal"
       id="path4920"
       sodipodi:type="arc"
       sodipodi:cx="87.853775"
       sodipodi:cy="120.5409"
       sodipodi:rx="3.1470342"
       sodipodi:ry="3.1470342"
       sodipodi:start="0.92998298"
       sodipodi:end="0.90224447"
       d="m 89.735222,123.06359 a 3.1470342,3.1470342 0 0 1 -4.391033,-0.62379 3.1470342,3.1470342 0 0 1 0.593333,-4.39526 3.1470342,3.1470342 0 0 1 4.399262,0.56284 3.1470342,3.1470342 0 0 1 -0.532319,4.40306 l -1.95069,-2.46954 z" />
    <path
       style="fill:#008000;fill-opacity:1;stroke:#008000;stroke-width:1.17747581;stroke-linecap:butt;stroke-linejoin:round;stroke-miterlimit:4;stroke-dasharray:none;stroke-dashoffset:0;stroke-opacity:1;paint-order:normal"
       id="path4920-4"
       sodipodi:type="arc"
       sodipodi:cx="71.174561"
       sodipodi:cy="90.411621"
       sodipodi:rx="3.1470342"
       sodipodi:ry="3.1470342"
       sodipodi:start="0.92998298"
       sodipodi:end="0.90224447"
       d="m 73.056007,92.934314 a 3.1470342,3.1470342 0 0 1 -4.391032,-0.623797 3.1470342,3.1470342 0 0 1 0.593333,-4.395253 3.1470342,3.1470342 0 0 1 4.399261,0.562839 3.1470342,3.1470342 0 0 1 -0.532319,4.403059 l -1.950689,-2.469541 z" />
    <path
       style="fill:#008000;fill-opacity:1;stroke:#008000;stroke-width:1.17747581;stroke-linecap:butt;stroke-linejoin:round;stroke-miterlimit:4;stroke-dasharray:none;stroke-dashoffset:0;stroke-opacity:1;paint-order:normal"
       id="path4920-7"
       sodipodi:type="arc"
       sodipodi:cx="53.236507"
       sodipodi:cy="105.19001"
       sodipodi:rx="3.1470342"
       sodipodi:ry="3.1470342"
       sodipodi:start="0.92998298"
       sodipodi:end="0.90224447"
       d="m 55.117954,107.7127 a 3.1470342,3.1470342 0 0 1 -4.391032,-0.62379 3.1470342,3.1470342 0 0 1 0.593333,-4.39526 3.1470342,3.1470342 0 0 1 4.399261,0.56284 3.1470342,3.1470342 0 0 1 -0.532319,4.40306 l -1.95069,-2.46954 z" />
    <path
       style="fill:#ff0000;fill-opacity:1;stroke:#ff0000;stroke-width:1.17747581;stroke-linecap:butt;stroke-linejoin:round;stroke-miterlimit:4;stroke-dasharray:none;stroke-dashoffset:0;stroke-opacity:1;paint-order:normal"
       id="path4920-75"
       sodipodi:type="arc"
       sodipodi:cx="78.412704"
       sodipodi:cy="120.5409"
       sodipodi:rx="3.1470342"
       sodipodi:ry="3.1470342"
       sodipodi:start="0.92998298"
       sodipodi:end="0.90224447"
       d="m 80.294151,123.06359 a 3.1470342,3.1470342 0 0 1 -4.391032,-0.62379 3.1470342,3.1470342 0 0 1 0.593333,-4.39526 3.1470342,3.1470342 0 0 1 4.399261,0.56284 3.1470342,3.1470342 0 0 1 -0.532319,4.40306 l -1.95069,-2.46954 z" />
    <path
       style="fill:#000000;fill-opacity:1;stroke:#000000;stroke-width:1.17747581;stroke-linecap:butt;stroke-linejoin:round;stroke-miterlimit:4;stroke-dasharray:none;stroke-dashoffset:0;stroke-opacity:1;paint-order:normal"
       d="m 78.745706,116.50809 4.673103,-7.23222"
       id="path5075"
       inkscape:connector-curvature="0" />
    <path
       style="fill:#000000;fill-opacity:1;stroke:#000000;stroke-width:1.17747581;stroke-linecap:butt;stroke-linejoin:round;stroke-miterlimit:4;stroke-dasharray:none;stroke-dashoffset:0;stroke-opacity:1;paint-order:normal"
       d="m 88.091915,116.50809 -4.673106,-7.23222"
       id="path5075-4"
       inkscape:connector-curvature="0" />
    <path
       style="fill:#0000ff;fill-opacity:1;stroke:#0000ff;stroke-width:1.17747581;stroke-linecap:butt;stroke-linejoin:round;stroke-miterlimit:4;stroke-dasharray:none;stroke-dashoffset:0;stroke-opacity:1;paint-order:normal"
       id="path4920-75-8"
       sodipodi:type="arc"
       sodipodi:cx="83.196243"
       sodipodi:cy="105.04786"
       sodipodi:rx="3.1470342"
       sodipodi:ry="3.1470342"
       sodipodi:start="0.92998298"
       sodipodi:end="0.90224447"
       d="m 85.07769,107.57055 a 3.1470342,3.1470342 0 0 1 -4.391032,-0.6238 3.1470342,3.1470342 0 0 1 0.593333,-4.39525 3.1470342,3.1470342 0 0 1 4.399261,0.56284 3.1470342,3.1470342 0 0 1 -0.532319,4.40306 l -1.95069,-2.46954 z" />
    <path
       style="fill:#0000ff;fill-opacity:1;stroke:#0000ff;stroke-width:1.17747581;stroke-linecap:butt;stroke-linejoin:round;stroke-miterlimit:4;stroke-dasharray:none;stroke-dashoffset:0;stroke-opacity:1;paint-order:normal"
       id="path4920-75-8-1"
       sodipodi:type="arc"
       sodipodi:cx="91.787651"
       sodipodi:cy="90.549988"
       sodipodi:rx="3.1470342"
       sodipodi:ry="3.1470342"
       sodipodi:start="0.92998298"
       sodipodi:end="0.90224447"
       d="m 93.669098,93.072681 a 3.1470342,3.1470342 0 0 1 -4.391033,-0.623798 3.1470342,3.1470342 0 0 1 0.593333,-4.395252 3.1470342,3.1470342 0 0 1 4.399262,0.562839 3.1470342,3.1470342 0 0 1 -0.532319,4.403059 l -1.95069,-2.469541 z" />
    <path
       style="fill:#000000;fill-opacity:1;stroke:#000000;stroke-width:1.17747581;stroke-linecap:butt;stroke-linejoin:round;stroke-miterlimit:4;stroke-dasharray:none;stroke-dashoffset:0;stroke-opacity:1;paint-order:normal"
       d="m 84.730532,101.68106 4.673116,-7.232198"
       id="path5075-2"
       inkscape:connector-curvature="0" />
    <path
       style="fill:#000000;fill-opacity:1;stroke:#000000;stroke-width:1.17747581;stroke-linecap:butt;stroke-linejoin:round;stroke-miterlimit:4;stroke-dasharray:none;stroke-dashoffset:0;stroke-opacity:1;paint-order:normal"
       d="m 73.346234,87.060001 9.236304,-8.963072"
       id="path5075-8"
       inkscape:connector-curvature="0"
       sodipodi:nodetypes="cc" />
    <path
       style="fill:#000000;fill-opacity:1;stroke:#000000;stroke-width:1.17747581;stroke-linecap:butt;stroke-linejoin:round;stroke-miterlimit:4;stroke-dasharray:none;stroke-dashoffset:0;stroke-opacity:1;paint-order:normal"
       d="m 90.717385,86.902659 -8.134847,-8.80573"
       id="path5075-4-9"
       inkscape:connector-curvature="0"
       sodipodi:nodetypes="cc" />
    <path
       style="fill:#0000ff;fill-opacity:1;stroke:#0000ff;stroke-width:1.17747581;stroke-linecap:butt;stroke-linejoin:round;stroke-miterlimit:4;stroke-dasharray:none;stroke-dashoffset:0;stroke-opacity:1;paint-order:normal"
       id="path4920-75-8-1-3"
       sodipodi:type="arc"
       sodipodi:cx="82.425247"
       sodipodi:cy="73.996414"
       sodipodi:rx="3.1470342"
       sodipodi:ry="3.1470342"
       sodipodi:start="0.92998298"
       sodipodi:end="0.90224447"
       d="m 84.306694,76.519108 a 3.1470342,3.1470342 0 0 1 -4.391032,-0.623798 3.1470342,3.1470342 0 0 1 0.593332,-4.395253 3.1470342,3.1470342 0 0 1 4.399262,0.562839 3.1470342,3.1470342 0 0 1 -0.532319,4.403059 l -1.95069,-2.469541 z" />
    <path
       style="fill:#ff0000;fill-opacity:1;stroke:#ff0000;stroke-width:1.17747581;stroke-linecap:butt;stroke-linejoin:round;stroke-miterlimit:4;stroke-dasharray:none;stroke-dashoffset:0;stroke-opacity:1;paint-order:normal"
       id="path4920-75-6"
       sodipodi:type="arc"
       sodipodi:cx="42.615238"
       sodipodi:cy="105.44463"
       sodipodi:rx="3.1470342"
       sodipodi:ry="3.1470342"
       sodipodi:start="0.92998298"
       sodipodi:end="0.90224447"
       d="m 44.496685,107.96733 a 3.1470342,3.1470342 0 0 1 -4.391032,-0.6238 3.1470342,3.1470342 0 0 1 0.593332,-4.39525 3.1470342,3.1470342 0 0 1 4.399262,0.56284 3.1470342,3.1470342 0 0 1 -0.532319,4.40305 l -1.95069,-2.46954 z" />
    <path
       style="fill:#000000;fill-opacity:1;stroke:#000000;stroke-width:1.17747581;stroke-linecap:butt;stroke-linejoin:round;stroke-miterlimit:4;stroke-dasharray:none;stroke-dashoffset:0;stroke-opacity:1;paint-order:normal"
       d="m 43.27643,101.53671 4.673107,-7.232204"
       id="path5075-80"
       inkscape:connector-curvature="0" />
    <path
       style="fill:#000000;fill-opacity:1;stroke:#000000;stroke-width:1.17747581;stroke-linecap:butt;stroke-linejoin:round;stroke-miterlimit:4;stroke-dasharray:none;stroke-dashoffset:0;stroke-opacity:1;paint-order:normal"
       d="M 52.622645,101.53671 47.949537,94.304506"
       id="path5075-4-2"
       inkscape:connector-curvature="0" />
    <path
       style="fill:#0000ff;fill-opacity:1;stroke:#0000ff;stroke-width:1.17747581;stroke-linecap:butt;stroke-linejoin:round;stroke-miterlimit:4;stroke-dasharray:none;stroke-dashoffset:0;stroke-opacity:1;paint-order:normal"
       id="path4920-75-8-10"
       sodipodi:type="arc"
       sodipodi:cx="47.838314"
       sodipodi:cy="90.02079"
       sodipodi:rx="3.1470342"
       sodipodi:ry="3.1470342"
       sodipodi:start="0.92998298"
       sodipodi:end="0.90224447"
       d="m 49.719761,92.543483 a 3.1470342,3.1470342 0 0 1 -4.391033,-0.623797 3.1470342,3.1470342 0 0 1 0.593333,-4.395253 3.1470342,3.1470342 0 0 1 4.399262,0.562839 3.1470342,3.1470342 0 0 1 -0.532319,4.403059 l -1.95069,-2.469541 z" />
    <path
       style="fill:#ff0000;fill-opacity:1;stroke:#ff0000;stroke-width:1.17747581;stroke-linecap:butt;stroke-linejoin:round;stroke-miterlimit:4;stroke-dasharray:none;stroke-dashoffset:0;stroke-opacity:1;paint-order:normal"
       id="path4920-75-5"
       sodipodi:type="arc"
       sodipodi:cx="57.740856"
       sodipodi:cy="90.02079"
       sodipodi:rx="3.1470342"
       sodipodi:ry="3.1470342"
       sodipodi:start="0.92998298"
       sodipodi:end="0.90224447"
       d="m 59.622303,92.543483 a 3.1470342,3.1470342 0 0 1 -4.391032,-0.623797 3.1470342,3.1470342 0 0 1 0.593332,-4.395253 3.1470342,3.1470342 0 0 1 4.399262,0.562839 3.1470342,3.1470342 0 0 1 -0.532319,4.403059 l -1.95069,-2.469541 z" />
    <path
       style="fill:#000000;fill-opacity:1;stroke:#000000;stroke-width:1.17747581;stroke-linecap:butt;stroke-linejoin:round;stroke-miterlimit:4;stroke-dasharray:none;stroke-dashoffset:0;stroke-opacity:1;paint-order:normal"
       d="M 48.505872,85.625897 53.17898,78.393689"
       id="path5075-1"
       inkscape:connector-curvature="0" />
    <path
       style="fill:#000000;fill-opacity:1;stroke:#000000;stroke-width:1.17747581;stroke-linecap:butt;stroke-linejoin:round;stroke-miterlimit:4;stroke-dasharray:none;stroke-dashoffset:0;stroke-opacity:1;paint-order:normal"
       d="M 57.852086,85.625897 53.17898,78.393689"
       id="path5075-4-1"
       inkscape:connector-curvature="0" />
    <path
       style="fill:#0000ff;fill-opacity:1;stroke:#0000ff;stroke-width:1.17747581;stroke-linecap:butt;stroke-linejoin:round;stroke-miterlimit:4;stroke-dasharray:none;stroke-dashoffset:0;stroke-opacity:1;paint-order:normal"
       id="path4920-75-8-1-3-0"
       sodipodi:type="arc"
       sodipodi:cx="52.956482"
       sodipodi:cy="74.221222"
       sodipodi:rx="3.1470342"
       sodipodi:ry="3.1470342"
       sodipodi:start="0.92998298"
       sodipodi:end="0.90224447"
       d="m 54.837929,76.743915 a 3.1470342,3.1470342 0 0 1 -4.391033,-0.623798 3.1470342,3.1470342 0 0 1 0.593333,-4.395252 3.1470342,3.1470342 0 0 1 4.399262,0.562839 3.1470342,3.1470342 0 0 1 -0.532319,4.403059 l -1.95069,-2.469541 z" />
    <path
       style="fill:#000000;fill-opacity:1;stroke:#000000;stroke-width:1.17747581;stroke-linecap:butt;stroke-linejoin:round;stroke-miterlimit:4;stroke-dasharray:none;stroke-dashoffset:0;stroke-opacity:1;paint-order:normal"
       d="M 54.728172,69.579327 68.370325,59.986843"
       id="path5075-8-8"
       inkscape:connector-curvature="0"
       sodipodi:nodetypes="cc" />
    <path
       style="fill:#000000;fill-opacity:1;stroke:#000000;stroke-width:1.17747581;stroke-linecap:butt;stroke-linejoin:round;stroke-miterlimit:4;stroke-dasharray:none;stroke-dashoffset:0;stroke-opacity:1;paint-order:normal"
       d="M 79.80955,69.736673 68.370325,59.986843"
       id="path5075-4-9-5"
       inkscape:connector-curvature="0"
       sodipodi:nodetypes="cc" />
    <path
       style="fill:#0000ff;fill-opacity:1;stroke:#0000ff;stroke-width:1.17747581;stroke-linecap:butt;stroke-linejoin:round;stroke-miterlimit:4;stroke-dasharray:none;stroke-dashoffset:0;stroke-opacity:1;paint-order:normal"
       id="path4920-75-8-1-3-06"
       sodipodi:type="arc"
       sodipodi:cx="68.212997"
       sodipodi:cy="55.88633"
       sodipodi:rx="3.1470342"
       sodipodi:ry="3.1470342"
       sodipodi:start="0.92998298"
       sodipodi:end="0.90224447"
       d="m 70.094444,58.409023 a 3.1470342,3.1470342 0 0 1 -4.391032,-0.623798 3.1470342,3.1470342 0 0 1 0.593333,-4.395253 3.1470342,3.1470342 0 0 1 4.399261,0.56284 3.1470342,3.1470342 0 0 1 -0.532319,4.403059 l -1.95069,-2.469541 z" />
    <path
       style="fill:#008000;fill-opacity:1;stroke:#008000;stroke-width:1.17747581;stroke-linecap:butt;stroke-linejoin:round;stroke-miterlimit:4;stroke-dasharray:none;stroke-dashoffset:0;stroke-opacity:1;paint-order:normal"
       id="path4920-4-1"
       sodipodi:type="arc"
       sodipodi:cx="135.99275"
       sodipodi:cy="90.747734"
       sodipodi:rx="3.1470342"
       sodipodi:ry="3.1470342"
       sodipodi:start="0.92998298"
       sodipodi:end="0.90224447"
       d="m 137.8742,93.270427 a 3.1470342,3.1470342 0 0 1 -4.39103,-0.623797 3.1470342,3.1470342 0 0 1 0.59333,-4.395253 3.1470342,3.1470342 0 0 1 4.39926,0.562839 3.1470342,3.1470342 0 0 1 -0.53232,4.403059 l -1.95069,-2.469541 z" />
    <path
       style="fill:#000000;fill-opacity:1;stroke:#000000;stroke-width:1.17747581;stroke-linecap:butt;stroke-linejoin:round;stroke-miterlimit:4;stroke-dasharray:none;stroke-dashoffset:0;stroke-opacity:1;paint-order:normal"
       d="m 138.16442,87.396114 9.23631,-8.963074"
       id="path5075-8-5"
       inkscape:connector-curvature="0"
       sodipodi:nodetypes="cc" />
    <path
       style="fill:#000000;fill-opacity:1;stroke:#000000;stroke-width:1.17747581;stroke-linecap:butt;stroke-linejoin:round;stroke-miterlimit:4;stroke-dasharray:none;stroke-dashoffset:0;stroke-opacity:1;paint-order:normal"
       d="M 155.53558,87.238771 147.40073,78.43304"
       id="path5075-4-9-8"
       inkscape:connector-curvature="0"
       sodipodi:nodetypes="cc" />
    <path
       style="fill:#0000ff;fill-opacity:1;stroke:#0000ff;stroke-width:1.17747581;stroke-linecap:butt;stroke-linejoin:round;stroke-miterlimit:4;stroke-dasharray:none;stroke-dashoffset:0;stroke-opacity:1;paint-order:normal"
       id="path4920-75-8-1-3-6"
       sodipodi:type="arc"
       sodipodi:cx="147.24342"
       sodipodi:cy="74.33252"
       sodipodi:rx="3.1470342"
       sodipodi:ry="3.1470342"
       sodipodi:start="0.92998298"
       sodipodi:end="0.90224447"
       d="m 149.12487,76.855213 a 3.1470342,3.1470342 0 0 1 -4.39103,-0.623798 3.1470342,3.1470342 0 0 1 0.59333,-4.395253 3.1470342,3.1470342 0 0 1 4.39926,0.56284 3.1470342,3.1470342 0 0 1 -0.53232,4.403059 l -1.95069,-2.469541 z" />
    <path
       style="fill:#000000;fill-opacity:1;stroke:#000000;stroke-width:1.17747581;stroke-linecap:butt;stroke-linejoin:round;stroke-miterlimit:4;stroke-dasharray:none;stroke-dashoffset:0;stroke-opacity:1;paint-order:normal"
       d="m 119.54636,69.915437 13.64216,-9.592485"
       id="path5075-8-8-2"
       inkscape:connector-curvature="0"
       sodipodi:nodetypes="cc" />
    <path
       style="fill:#000000;fill-opacity:1;stroke:#000000;stroke-width:1.17747581;stroke-linecap:butt;stroke-linejoin:round;stroke-miterlimit:4;stroke-dasharray:none;stroke-dashoffset:0;stroke-opacity:1;paint-order:normal"
       d="M 144.62774,70.072783 133.18852,60.322952"
       id="path5075-4-9-5-9"
       inkscape:connector-curvature="0"
       sodipodi:nodetypes="cc" />
    <path
       style="fill:#0000ff;fill-opacity:1;stroke:#0000ff;stroke-width:1.17747581;stroke-linecap:butt;stroke-linejoin:round;stroke-miterlimit:4;stroke-dasharray:none;stroke-dashoffset:0;stroke-opacity:1;paint-order:normal"
       id="path4920-75-8-1-3-06-9"
       sodipodi:type="arc"
       sodipodi:cx="133.03119"
       sodipodi:cy="56.222439"
       sodipodi:rx="3.1470342"
       sodipodi:ry="3.1470342"
       sodipodi:start="0.92998298"
       sodipodi:end="0.90224447"
       d="m 134.91264,58.745132 a 3.1470342,3.1470342 0 0 1 -4.39104,-0.623798 3.1470342,3.1470342 0 0 1 0.59334,-4.395252 3.1470342,3.1470342 0 0 1 4.39926,0.562839 3.1470342,3.1470342 0 0 1 -0.53232,4.403059 l -1.95069,-2.469541 z" />
    <path
       style="fill:#ff0000;fill-opacity:1;stroke:#ff0000;stroke-width:1.17747581;stroke-linecap:butt;stroke-linejoin:round;stroke-miterlimit:4;stroke-dasharray:none;stroke-dashoffset:0;stroke-opacity:1;paint-order:normal"
       id="path4920-75-85-0"
       sodipodi:type="arc"
       sodipodi:cx="116.42592"
       sodipodi:cy="73.097778"
       sodipodi:rx="3.1470342"
       sodipodi:ry="3.1470342"
       sodipodi:start="0.92998298"
       sodipodi:end="0.90224447"
       d="m 118.30737,75.620472 a 3.1470342,3.1470342 0 0 1 -4.39104,-0.623798 3.1470342,3.1470342 0 0 1 0.59334,-4.395253 3.1470342,3.1470342 0 0 1 4.39926,0.56284 3.1470342,3.1470342 0 0 1 -0.53232,4.403058 l -1.95069,-2.469541 z" />
    <path
       style="fill:#ff0000;fill-opacity:1;stroke:#ff0000;stroke-width:1.17747581;stroke-linecap:butt;stroke-linejoin:round;stroke-miterlimit:4;stroke-dasharray:none;stroke-dashoffset:0;stroke-opacity:1;paint-order:normal"
       id="path4920-75-85-0-8"
       sodipodi:type="arc"
       sodipodi:cx="156.26073"
       sodipodi:cy="91.384949"
       sodipodi:rx="3.1470342"
       sodipodi:ry="3.1470342"
       sodipodi:start="0.92998298"
       sodipodi:end="0.90224447"
       d="m 158.14217,93.907642 a 3.1470342,3.1470342 0 0 1 -4.39103,-0.623798 3.1470342,3.1470342 0 0 1 0.59333,-4.395253 3.1470342,3.1470342 0 0 1 4.39927,0.56284 3.1470342,3.1470342 0 0 1 -0.53232,4.403059 l -1.95069,-2.469541 z" />
    <path
       style="fill:#000000;fill-opacity:1;stroke:#000000;stroke-width:2.25031543;stroke-linecap:butt;stroke-linejoin:round;stroke-miterlimit:4;stroke-dasharray:none;stroke-dashoffset:0;stroke-opacity:1;marker-end:url(#Arrow2Send);paint-order:normal"
       d="M 85.380243,59.488775 H 114.29947"
       id="path2221"
       inkscape:connector-curvature="0" />
  </g>
</svg>
