<?xml version="1.0" encoding="UTF-8" standalone="no"?>
<!-- Created with Inkscape (http://www.inkscape.org/) -->

<svg
   xmlns:dc="http://purl.org/dc/elements/1.1/"
   xmlns:cc="http://creativecommons.org/ns#"
   xmlns:rdf="http://www.w3.org/1999/02/22-rdf-syntax-ns#"
   xmlns:svg="http://www.w3.org/2000/svg"
   xmlns="http://www.w3.org/2000/svg"
   xmlns:sodipodi="http://sodipodi.sourceforge.net/DTD/sodipodi-0.dtd"
   xmlns:inkscape="http://www.inkscape.org/namespaces/inkscape"
   width="133.48792mm"
   height="79.490273mm"
   viewBox="0 0 133.48791 79.490275"
   version="1.1"
   id="svg892"
   inkscape:version="0.92.5 (2060ec1f9f, 2020-04-08)"
   sodipodi:docname="partial-tree4.svg">
  <defs
     id="defs886">
    <marker
       inkscape:stockid="Arrow2Send"
       orient="auto"
       refY="0"
       refX="0"
       id="Arrow2Send"
       style="overflow:visible"
       inkscape:isstock="true">
      <path
         id="path1646"
         style="fill:#000000;fill-opacity:1;fill-rule:evenodd;stroke:#000000;stroke-width:0.625;stroke-linejoin:round;stroke-opacity:1"
         d="M 8.7185878,4.0337352 -2.2072895,0.01601326 8.7185884,-4.0017078 c -1.7454984,2.3720609 -1.7354408,5.6174519 -6e-7,8.035443 z"
         transform="matrix(-0.3,0,0,-0.3,0.69,0)"
         inkscape:connector-curvature="0" />
    </marker>
    <marker
       inkscape:isstock="true"
       style="overflow:visible"
       id="marker1999"
       refX="0"
       refY="0"
       orient="auto"
       inkscape:stockid="Arrow1Lend">
      <path
         transform="matrix(-0.8,0,0,-0.8,-10,0)"
         style="fill:#ff00ff;fill-opacity:1;fill-rule:evenodd;stroke:#ff00ff;stroke-width:1.00000003pt;stroke-opacity:1"
         d="M 0,0 5,-5 -12.5,0 5,5 Z"
         id="path1997"
         inkscape:connector-curvature="0" />
    </marker>
    <marker
       inkscape:stockid="Arrow2Mend"
       orient="auto"
       refY="0"
       refX="0"
       id="Arrow2Mend"
       style="overflow:visible"
       inkscape:isstock="true">
      <path
         id="path1640"
         style="fill:#000000;fill-opacity:1;fill-rule:evenodd;stroke:#000000;stroke-width:0.625;stroke-linejoin:round;stroke-opacity:1"
         d="M 8.7185878,4.0337352 -2.2072895,0.01601326 8.7185884,-4.0017078 c -1.7454984,2.3720609 -1.7354408,5.6174519 -6e-7,8.035443 z"
         transform="scale(-0.6)"
         inkscape:connector-curvature="0" />
    </marker>
    <marker
       inkscape:stockid="Arrow1Send"
       orient="auto"
       refY="0"
       refX="0"
       id="Arrow1Send"
       style="overflow:visible"
       inkscape:isstock="true">
      <path
         id="path1628"
         d="M 0,0 5,-5 -12.5,0 5,5 Z"
         style="fill:#000000;fill-opacity:1;fill-rule:evenodd;stroke:#000000;stroke-width:1.00000003pt;stroke-opacity:1"
         transform="matrix(-0.2,0,0,-0.2,-1.2,0)"
         inkscape:connector-curvature="0" />
    </marker>
  </defs>
  <sodipodi:namedview
     id="base"
     pagecolor="#ffffff"
     bordercolor="#666666"
     borderopacity="1.0"
     inkscape:pageopacity="0.0"
     inkscape:pageshadow="2"
     inkscape:zoom="1.4"
     inkscape:cx="38.575309"
     inkscape:cy="114.51062"
     inkscape:document-units="mm"
     inkscape:current-layer="layer1"
     showgrid="false"
     fit-margin-top="0"
     fit-margin-left="0"
     fit-margin-right="0"
     fit-margin-bottom="0"
     inkscape:window-width="1920"
     inkscape:window-height="1029"
     inkscape:window-x="0"
     inkscape:window-y="25"
     inkscape:window-maximized="1"
     showguides="false">
    <sodipodi:guide
       position="-21.45015,66.996283"
       orientation="1,0"
       id="guide1975"
       inkscape:locked="false" />
  </sodipodi:namedview>
  <metadata
     id="metadata889">
    <rdf:RDF>
      <cc:Work
         rdf:about="">
        <dc:format>image/svg+xml</dc:format>
        <dc:type
           rdf:resource="http://purl.org/dc/dcmitype/StillImage" />
        <dc:title />
      </cc:Work>
    </rdf:RDF>
  </metadata>
  <g
     inkscape:label="Layer 1"
     inkscape:groupmode="layer"
     id="layer1"
     transform="translate(-34.157952,-47.996048)">
    <path
       style="fill:#ff0000;fill-opacity:1;stroke:#ff0000;stroke-width:1.17747581;stroke-linecap:butt;stroke-linejoin:round;stroke-miterlimit:4;stroke-dasharray:none;stroke-dashoffset:0;stroke-opacity:1;paint-order:normal"
       id="path4920-4-1"
       sodipodi:type="arc"
       sodipodi:cx="135.99275"
       sodipodi:cy="90.747734"
       sodipodi:rx="3.1470342"
       sodipodi:ry="3.1470342"
       sodipodi:start="0.92998298"
       sodipodi:end="0.90224447"
       d="m 137.8742,93.270427 a 3.1470342,3.1470342 0 0 1 -4.39103,-0.623797 3.1470342,3.1470342 0 0 1 0.59333,-4.395253 3.1470342,3.1470342 0 0 1 4.39926,0.562839 3.1470342,3.1470342 0 0 1 -0.53232,4.403059 l -1.95069,-2.469541 z" />
    <path
       style="fill:#000000;fill-opacity:1;stroke:#000000;stroke-width:1.17747581;stroke-linecap:butt;stroke-linejoin:round;stroke-miterlimit:4;stroke-dasharray:none;stroke-dashoffset:0;stroke-opacity:1;paint-order:normal"
       d="m 138.16442,87.396114 9.23631,-8.963074"
       id="path5075-8-5"
       inkscape:connector-curvature="0"
       sodipodi:nodetypes="cc" />
    <path
       style="fill:#000000;fill-opacity:1;stroke:#000000;stroke-width:1.17747581;stroke-linecap:butt;stroke-linejoin:round;stroke-miterlimit:4;stroke-dasharray:none;stroke-dashoffset:0;stroke-opacity:1;paint-order:normal"
       d="M 155.53558,87.238771 147.40073,78.43304"
       id="path5075-4-9-8"
       inkscape:connector-curvature="0"
       sodipodi:nodetypes="cc" />
    <path
       style="fill:#ffcc00;fill-opacity:1;stroke:#ffcc00;stroke-width:1.17747581;stroke-linecap:butt;stroke-linejoin:round;stroke-miterlimit:4;stroke-dasharray:none;stroke-dashoffset:0;stroke-opacity:1;paint-order:normal"
       id="path4920-75-8-1-3-6"
       sodipodi:type="arc"
       sodipodi:cx="147.24342"
       sodipodi:cy="74.33252"
       sodipodi:rx="3.1470342"
       sodipodi:ry="3.1470342"
       sodipodi:start="0.92998298"
       sodipodi:end="0.90224447"
       d="m 149.12487,76.855213 a 3.1470342,3.1470342 0 0 1 -4.39103,-0.623798 3.1470342,3.1470342 0 0 1 0.59333,-4.395253 3.1470342,3.1470342 0 0 1 4.39926,0.56284 3.1470342,3.1470342 0 0 1 -0.53232,4.403059 l -1.95069,-2.469541 z" />
    <path
       style="fill:#000000;fill-opacity:1;stroke:#000000;stroke-width:1.17747581;stroke-linecap:butt;stroke-linejoin:round;stroke-miterlimit:4;stroke-dasharray:none;stroke-dashoffset:0;stroke-opacity:1;paint-order:normal"
       d="m 119.54636,69.915437 13.64216,-9.592485"
       id="path5075-8-8-2"
       inkscape:connector-curvature="0"
       sodipodi:nodetypes="cc" />
    <path
       style="fill:#000000;fill-opacity:1;stroke:#000000;stroke-width:1.17747581;stroke-linecap:butt;stroke-linejoin:round;stroke-miterlimit:4;stroke-dasharray:none;stroke-dashoffset:0;stroke-opacity:1;paint-order:normal"
       d="M 144.62774,70.072783 133.18852,60.322952"
       id="path5075-4-9-5-9"
       inkscape:connector-curvature="0"
       sodipodi:nodetypes="cc" />
    <path
       style="fill:#ffcc00;fill-opacity:1;stroke:#ffcc00;stroke-width:1.17747581;stroke-linecap:butt;stroke-linejoin:round;stroke-miterlimit:4;stroke-dasharray:none;stroke-dashoffset:0;stroke-opacity:1;paint-order:normal"
       id="path4920-75-8-1-3-06-9"
       sodipodi:type="arc"
       sodipodi:cx="133.03119"
       sodipodi:cy="56.222439"
       sodipodi:rx="3.1470342"
       sodipodi:ry="3.1470342"
       sodipodi:start="0.92998298"
       sodipodi:end="0.90224447"
       d="m 134.91264,58.745132 a 3.1470342,3.1470342 0 0 1 -4.39104,-0.623798 3.1470342,3.1470342 0 0 1 0.59334,-4.395252 3.1470342,3.1470342 0 0 1 4.39926,0.562839 3.1470342,3.1470342 0 0 1 -0.53232,4.403059 l -1.95069,-2.469541 z" />
    <path
       style="fill:#0000ff;fill-opacity:1;stroke:#0000ff;stroke-width:1.17747581;stroke-linecap:butt;stroke-linejoin:round;stroke-miterlimit:4;stroke-dasharray:none;stroke-dashoffset:0;stroke-opacity:1;paint-order:normal"
       id="path4920-75-85-0"
       sodipodi:type="arc"
       sodipodi:cx="116.42592"
       sodipodi:cy="73.097778"
       sodipodi:rx="3.1470342"
       sodipodi:ry="3.1470342"
       sodipodi:start="0.92998298"
       sodipodi:end="0.90224447"
       d="m 118.30737,75.620472 a 3.1470342,3.1470342 0 0 1 -4.39104,-0.623798 3.1470342,3.1470342 0 0 1 0.59334,-4.395253 3.1470342,3.1470342 0 0 1 4.39926,0.56284 3.1470342,3.1470342 0 0 1 -0.53232,4.403058 l -1.95069,-2.469541 z" />
    <path
       style="fill:#0000ff;fill-opacity:1;stroke:#0000ff;stroke-width:1.17747581;stroke-linecap:butt;stroke-linejoin:round;stroke-miterlimit:4;stroke-dasharray:none;stroke-dashoffset:0;stroke-opacity:1;paint-order:normal"
       id="path4920-75-85-0-8"
       sodipodi:type="arc"
       sodipodi:cx="156.26073"
       sodipodi:cy="91.384949"
       sodipodi:rx="3.1470342"
       sodipodi:ry="3.1470342"
       sodipodi:start="0.92998298"
       sodipodi:end="0.90224447"
       d="m 158.14217,93.907642 a 3.1470342,3.1470342 0 0 1 -4.39103,-0.623798 3.1470342,3.1470342 0 0 1 0.59333,-4.395253 3.1470342,3.1470342 0 0 1 4.39927,0.56284 3.1470342,3.1470342 0 0 1 -0.53232,4.403059 l -1.95069,-2.469541 z" />
    <path
       style="fill:#000000;fill-opacity:1;stroke:#000000;stroke-width:2.25031543;stroke-linecap:butt;stroke-linejoin:round;stroke-miterlimit:4;stroke-dasharray:none;stroke-dashoffset:0;stroke-opacity:1;marker-end:url(#Arrow2Send);paint-order:normal"
       d="M 85.380243,59.488775 H 114.29947"
       id="path2221"
       inkscape:connector-curvature="0" />
    <path
       style="fill:#000000;fill-opacity:1;stroke:#000000;stroke-width:1.2083689;stroke-linecap:butt;stroke-linejoin:round;stroke-miterlimit:4;stroke-dasharray:none;stroke-dashoffset:0;stroke-opacity:1;paint-order:normal"
       d="m 52.713957,70.327178 14.00008,-9.844152"
       id="path5075-8-8-4"
       inkscape:connector-curvature="0"
       sodipodi:nodetypes="cc" />
    <path
       style="fill:#000000;fill-opacity:1;stroke:#000000;stroke-width:1.2083689;stroke-linecap:butt;stroke-linejoin:round;stroke-miterlimit:4;stroke-dasharray:none;stroke-dashoffset:0;stroke-opacity:1;paint-order:normal"
       d="M 78.453388,70.488659 66.714037,60.483026"
       id="path5075-4-9-5-7"
       inkscape:connector-curvature="0"
       sodipodi:nodetypes="cc" />
    <path
       style="fill:#ffcc00;fill-opacity:1;stroke:#ffcc00;stroke-width:1.2083689;stroke-linecap:butt;stroke-linejoin:round;stroke-miterlimit:4;stroke-dasharray:none;stroke-dashoffset:0;stroke-opacity:1;paint-order:normal"
       id="path4920-75-8-1-3-06-7"
       sodipodi:type="arc"
       sodipodi:cx="66.552582"
       sodipodi:cy="56.274918"
       sodipodi:rx="3.2296023"
       sodipodi:ry="3.2296023"
       sodipodi:start="0.92998298"
       sodipodi:end="0.90224447"
       d="m 68.483392,58.863798 a 3.2296023,3.2296023 0 0 1 -4.506239,-0.640164 3.2296023,3.2296023 0 0 1 0.6089,-4.51057 3.2296023,3.2296023 0 0 1 4.514684,0.577606 3.2296023,3.2296023 0 0 1 -0.546285,4.518582 l -2.00187,-2.534334 z" />
    <path
       style="fill:#ff0000;fill-opacity:1;stroke:#ff0000;stroke-width:1.2083689;stroke-linecap:butt;stroke-linejoin:round;stroke-miterlimit:4;stroke-dasharray:none;stroke-dashoffset:0;stroke-opacity:1;paint-order:normal"
       id="path4920-5"
       sodipodi:type="arc"
       sodipodi:cx="86.062782"
       sodipodi:cy="121.81842"
       sodipodi:rx="3.2296023"
       sodipodi:ry="3.2296023"
       sodipodi:start="0.92998298"
       sodipodi:end="0.90224447"
       d="m 87.993592,124.4073 a 3.2296023,3.2296023 0 0 1 -4.506239,-0.64016 3.2296023,3.2296023 0 0 1 0.6089,-4.51057 3.2296023,3.2296023 0 0 1 4.514684,0.5776 3.2296023,3.2296023 0 0 1 -0.546285,4.51858 l -2.00187,-2.53433 z" />
    <path
       style="fill:#ff0000;fill-opacity:1;stroke:#ff0000;stroke-width:1.2083689;stroke-linecap:butt;stroke-linejoin:round;stroke-miterlimit:4;stroke-dasharray:none;stroke-dashoffset:0;stroke-opacity:1;paint-order:normal"
       id="path4920-4-4"
       sodipodi:type="arc"
       sodipodi:cx="68.945946"
       sodipodi:cy="90.898621"
       sodipodi:rx="3.2296023"
       sodipodi:ry="3.2296023"
       sodipodi:start="0.92998298"
       sodipodi:end="0.90224447"
       d="m 70.876756,93.487501 a 3.2296023,3.2296023 0 0 1 -4.506239,-0.640164 3.2296023,3.2296023 0 0 1 0.6089,-4.51057 3.2296023,3.2296023 0 0 1 4.514684,0.577606 3.2296023,3.2296023 0 0 1 -0.546285,4.518582 l -2.00187,-2.534334 z" />
    <path
       style="fill:#ff0000;fill-opacity:1;stroke:#ff0000;stroke-width:1.2083689;stroke-linecap:butt;stroke-linejoin:round;stroke-miterlimit:4;stroke-dasharray:none;stroke-dashoffset:0;stroke-opacity:1;paint-order:normal"
       id="path4920-7-8"
       sodipodi:type="arc"
       sodipodi:cx="50.537216"
       sodipodi:cy="106.06478"
       sodipodi:rx="3.2296023"
       sodipodi:ry="3.2296023"
       sodipodi:start="0.92998298"
       sodipodi:end="0.90224447"
       d="m 52.468026,108.65366 a 3.2296023,3.2296023 0 0 1 -4.506239,-0.64016 3.2296023,3.2296023 0 0 1 0.6089,-4.51057 3.2296023,3.2296023 0 0 1 4.514684,0.5776 3.2296023,3.2296023 0 0 1 -0.546285,4.51859 l -2.00187,-2.53434 z" />
    <path
       style="fill:#0000ff;fill-opacity:1;stroke:#0000ff;stroke-width:1.2083689;stroke-linecap:butt;stroke-linejoin:round;stroke-miterlimit:4;stroke-dasharray:none;stroke-dashoffset:0;stroke-opacity:1;paint-order:normal"
       id="path4920-75-1"
       sodipodi:type="arc"
       sodipodi:cx="76.374001"
       sodipodi:cy="121.81842"
       sodipodi:rx="3.2296023"
       sodipodi:ry="3.2296023"
       sodipodi:start="0.92998298"
       sodipodi:end="0.90224447"
       d="m 78.304811,124.4073 a 3.2296023,3.2296023 0 0 1 -4.50624,-0.64016 3.2296023,3.2296023 0 0 1 0.6089,-4.51057 3.2296023,3.2296023 0 0 1 4.514685,0.5776 3.2296023,3.2296023 0 0 1 -0.546286,4.51858 l -2.001869,-2.53433 z" />
    <path
       style="fill:#000000;fill-opacity:1;stroke:#000000;stroke-width:1.2083689;stroke-linecap:butt;stroke-linejoin:round;stroke-miterlimit:4;stroke-dasharray:none;stroke-dashoffset:0;stroke-opacity:1;paint-order:normal"
       d="m 76.715705,117.67983 4.795714,-7.42197"
       id="path5075-28"
       inkscape:connector-curvature="0" />
    <path
       style="fill:#000000;fill-opacity:1;stroke:#000000;stroke-width:1.2083689;stroke-linecap:butt;stroke-linejoin:round;stroke-miterlimit:4;stroke-dasharray:none;stroke-dashoffset:0;stroke-opacity:1;paint-order:normal"
       d="m 86.307135,117.67983 -4.795716,-7.42197"
       id="path5075-4-93"
       inkscape:connector-curvature="0" />
    <path
       style="fill:#ffcc00;fill-opacity:1;stroke:#ffcc00;stroke-width:1.2083689;stroke-linecap:butt;stroke-linejoin:round;stroke-miterlimit:4;stroke-dasharray:none;stroke-dashoffset:0;stroke-opacity:1;paint-order:normal"
       id="path4920-75-8-6"
       sodipodi:type="arc"
       sodipodi:cx="81.283043"
       sodipodi:cy="105.91889"
       sodipodi:rx="3.2296023"
       sodipodi:ry="3.2296023"
       sodipodi:start="0.92998298"
       sodipodi:end="0.90224447"
       d="m 83.213853,108.50777 a 3.2296023,3.2296023 0 0 1 -4.506239,-0.64016 3.2296023,3.2296023 0 0 1 0.6089,-4.51057 3.2296023,3.2296023 0 0 1 4.514684,0.5776 3.2296023,3.2296023 0 0 1 -0.546285,4.51859 l -2.00187,-2.53434 z" />
    <path
       style="fill:#ffcc00;fill-opacity:1;stroke:#ffcc00;stroke-width:1.2083689;stroke-linecap:butt;stroke-linejoin:round;stroke-miterlimit:4;stroke-dasharray:none;stroke-dashoffset:0;stroke-opacity:1;paint-order:normal"
       id="path4920-75-8-1-8"
       sodipodi:type="arc"
       sodipodi:cx="90.099831"
       sodipodi:cy="91.040634"
       sodipodi:rx="3.2296023"
       sodipodi:ry="3.2296023"
       sodipodi:start="0.92998298"
       sodipodi:end="0.90224447"
       d="m 92.030641,93.629515 a 3.2296023,3.2296023 0 0 1 -4.50624,-0.640164 3.2296023,3.2296023 0 0 1 0.608901,-4.510571 3.2296023,3.2296023 0 0 1 4.514684,0.577607 3.2296023,3.2296023 0 0 1 -0.546286,4.518581 l -2.001869,-2.534334 z" />
    <path
       style="fill:#000000;fill-opacity:1;stroke:#000000;stroke-width:1.2083689;stroke-linecap:butt;stroke-linejoin:round;stroke-miterlimit:4;stroke-dasharray:none;stroke-dashoffset:0;stroke-opacity:1;paint-order:normal"
       d="m 82.85757,102.4638 4.795717,-7.421973"
       id="path5075-2-0"
       inkscape:connector-curvature="0" />
    <path
       style="fill:#000000;fill-opacity:1;stroke:#000000;stroke-width:1.2083689;stroke-linecap:butt;stroke-linejoin:round;stroke-miterlimit:4;stroke-dasharray:none;stroke-dashoffset:0;stroke-opacity:1;paint-order:normal"
       d="m 71.174562,87.459087 9.478652,-9.198226"
       id="path5075-8-2"
       inkscape:connector-curvature="0"
       sodipodi:nodetypes="cc" />
    <path
       style="fill:#000000;fill-opacity:1;stroke:#000000;stroke-width:1.2083689;stroke-linecap:butt;stroke-linejoin:round;stroke-miterlimit:4;stroke-dasharray:none;stroke-dashoffset:0;stroke-opacity:1;paint-order:normal"
       d="M 89.001487,87.297615 80.653214,78.260861"
       id="path5075-4-9-1"
       inkscape:connector-curvature="0"
       sodipodi:nodetypes="cc" />
    <path
       style="fill:#ffcc00;fill-opacity:1;stroke:#ffcc00;stroke-width:1.2083689;stroke-linecap:butt;stroke-linejoin:round;stroke-miterlimit:4;stroke-dasharray:none;stroke-dashoffset:0;stroke-opacity:1;paint-order:normal"
       id="path4920-75-8-1-3-05"
       sodipodi:type="arc"
       sodipodi:cx="80.491798"
       sodipodi:cy="74.052765"
       sodipodi:rx="3.2296023"
       sodipodi:ry="3.2296023"
       sodipodi:start="0.92998298"
       sodipodi:end="0.90224447"
       d="m 82.422608,76.641646 a 3.2296023,3.2296023 0 0 1 -4.506239,-0.640165 3.2296023,3.2296023 0 0 1 0.6089,-4.51057 3.2296023,3.2296023 0 0 1 4.514685,0.577607 3.2296023,3.2296023 0 0 1 -0.546286,4.518581 l -2.00187,-2.534334 z" />
    <path
       style="fill:#0000ff;fill-opacity:1;stroke:#0000ff;stroke-width:1.2083689;stroke-linecap:butt;stroke-linejoin:round;stroke-miterlimit:4;stroke-dasharray:none;stroke-dashoffset:0;stroke-opacity:1;paint-order:normal"
       id="path4920-75-6-1"
       sodipodi:type="arc"
       sodipodi:cx="39.637295"
       sodipodi:cy="106.32609"
       sodipodi:rx="3.2296023"
       sodipodi:ry="3.2296023"
       sodipodi:start="0.92998298"
       sodipodi:end="0.90224447"
       d="m 41.568105,108.91497 a 3.2296023,3.2296023 0 0 1 -4.506239,-0.64017 3.2296023,3.2296023 0 0 1 0.6089,-4.51057 3.2296023,3.2296023 0 0 1 4.514684,0.57761 3.2296023,3.2296023 0 0 1 -0.546285,4.51858 l -2.00187,-2.53433 z" />
    <path
       style="fill:#000000;fill-opacity:1;stroke:#000000;stroke-width:1.2083689;stroke-linecap:butt;stroke-linejoin:round;stroke-miterlimit:4;stroke-dasharray:none;stroke-dashoffset:0;stroke-opacity:1;paint-order:normal"
       d="m 40.315839,102.31564 4.795714,-7.42197"
       id="path5075-80-1"
       inkscape:connector-curvature="0" />
    <path
       style="fill:#000000;fill-opacity:1;stroke:#000000;stroke-width:1.2083689;stroke-linecap:butt;stroke-linejoin:round;stroke-miterlimit:4;stroke-dasharray:none;stroke-dashoffset:0;stroke-opacity:1;paint-order:normal"
       d="M 49.907266,102.31564 45.111553,94.89367"
       id="path5075-4-2-0"
       inkscape:connector-curvature="0" />
    <path
       style="fill:#ffcc00;fill-opacity:1;stroke:#ffcc00;stroke-width:1.2083689;stroke-linecap:butt;stroke-linejoin:round;stroke-miterlimit:4;stroke-dasharray:none;stroke-dashoffset:0;stroke-opacity:1;paint-order:normal"
       id="path4920-75-8-10-8"
       sodipodi:type="arc"
       sodipodi:cx="44.997425"
       sodipodi:cy="90.497559"
       sodipodi:rx="3.2296023"
       sodipodi:ry="3.2296023"
       sodipodi:start="0.92998298"
       sodipodi:end="0.90224447"
       d="m 46.928235,93.086439 a 3.2296023,3.2296023 0 0 1 -4.506239,-0.640164 3.2296023,3.2296023 0 0 1 0.6089,-4.51057 3.2296023,3.2296023 0 0 1 4.514684,0.577606 3.2296023,3.2296023 0 0 1 -0.546285,4.518582 l -2.00187,-2.534334 z" />
    <path
       style="fill:#0000ff;fill-opacity:1;stroke:#0000ff;stroke-width:1.2083689;stroke-linecap:butt;stroke-linejoin:round;stroke-miterlimit:4;stroke-dasharray:none;stroke-dashoffset:0;stroke-opacity:1;paint-order:normal"
       id="path4920-75-5-5"
       sodipodi:type="arc"
       sodipodi:cx="55.159748"
       sodipodi:cy="90.497559"
       sodipodi:rx="3.2296023"
       sodipodi:ry="3.2296023"
       sodipodi:start="0.92998298"
       sodipodi:end="0.90224447"
       d="m 57.090558,93.086439 a 3.2296023,3.2296023 0 0 1 -4.506239,-0.640164 3.2296023,3.2296023 0 0 1 0.6089,-4.51057 3.2296023,3.2296023 0 0 1 4.514684,0.577606 3.2296023,3.2296023 0 0 1 -0.546285,4.518582 l -2.00187,-2.534334 z" />
    <path
       style="fill:#000000;fill-opacity:1;stroke:#000000;stroke-width:1.2083689;stroke-linecap:butt;stroke-linejoin:round;stroke-miterlimit:4;stroke-dasharray:none;stroke-dashoffset:0;stroke-opacity:1;paint-order:normal"
       d="m 45.682474,85.987363 4.795723,-7.42197"
       id="path5075-1-0"
       inkscape:connector-curvature="0" />
    <path
       style="fill:#000000;fill-opacity:1;stroke:#000000;stroke-width:1.2083689;stroke-linecap:butt;stroke-linejoin:round;stroke-miterlimit:4;stroke-dasharray:none;stroke-dashoffset:0;stroke-opacity:1;paint-order:normal"
       d="m 55.273911,85.987363 -4.795714,-7.42197"
       id="path5075-4-1-6"
       inkscape:connector-curvature="0" />
    <path
       style="fill:#ffcc00;fill-opacity:1;stroke:#ffcc00;stroke-width:1.2083689;stroke-linecap:butt;stroke-linejoin:round;stroke-miterlimit:4;stroke-dasharray:none;stroke-dashoffset:0;stroke-opacity:1;paint-order:normal"
       id="path4920-75-8-1-3-0-4"
       sodipodi:type="arc"
       sodipodi:cx="50.24987"
       sodipodi:cy="74.283463"
       sodipodi:rx="3.2296023"
       sodipodi:ry="3.2296023"
       sodipodi:start="0.92998298"
       sodipodi:end="0.90224447"
       d="m 52.18068,76.872343 a 3.2296023,3.2296023 0 0 1 -4.506239,-0.640164 3.2296023,3.2296023 0 0 1 0.6089,-4.51057 3.2296023,3.2296023 0 0 1 4.514684,0.577606 3.2296023,3.2296023 0 0 1 -0.546285,4.518581 l -2.00187,-2.534333 z" />
  </g>
</svg>
