<?xml version="1.0" encoding="UTF-8" standalone="no"?>
<!-- Created with Inkscape (http://www.inkscape.org/) -->

<svg
   xmlns:dc="http://purl.org/dc/elements/1.1/"
   xmlns:cc="http://creativecommons.org/ns#"
   xmlns:rdf="http://www.w3.org/1999/02/22-rdf-syntax-ns#"
   xmlns:svg="http://www.w3.org/2000/svg"
   xmlns="http://www.w3.org/2000/svg"
   xmlns:sodipodi="http://sodipodi.sourceforge.net/DTD/sodipodi-0.dtd"
   xmlns:inkscape="http://www.inkscape.org/namespaces/inkscape"
   width="98.562614mm"
   height="125.50539mm"
   viewBox="0 0 98.562614 125.50539"
   version="1.1"
   id="svg892"
   inkscape:version="0.92.5 (2060ec1f9f, 2020-04-08)"
   sodipodi:docname="partial-tree1.svg">
  <defs
     id="defs886" />
  <sodipodi:namedview
     id="base"
     pagecolor="#ffffff"
     bordercolor="#666666"
     borderopacity="1.0"
     inkscape:pageopacity="0.0"
     inkscape:pageshadow="2"
     inkscape:zoom="0.7"
     inkscape:cx="-274.8152"
     inkscape:cy="47.175526"
     inkscape:document-units="mm"
     inkscape:current-layer="layer1"
     showgrid="false"
     fit-margin-top="0"
     fit-margin-left="0"
     fit-margin-right="0"
     fit-margin-bottom="0"
     inkscape:window-width="1920"
     inkscape:window-height="1029"
     inkscape:window-x="0"
     inkscape:window-y="25"
     inkscape:window-maximized="1" />
  <metadata
     id="metadata889">
    <rdf:RDF>
      <cc:Work
         rdf:about="">
        <dc:format>image/svg+xml</dc:format>
        <dc:type
           rdf:resource="http://purl.org/dc/dcmitype/StillImage" />
        <dc:title />
      </cc:Work>
    </rdf:RDF>
  </metadata>
  <g
     inkscape:label="Layer 1"
     inkscape:groupmode="layer"
     id="layer1"
     transform="translate(-32.646046,-35.809802)">
    <path
       style="fill:#000000;fill-opacity:1;stroke:#000000;stroke-width:1.60519826;stroke-linecap:butt;stroke-linejoin:round;stroke-miterlimit:4;stroke-dasharray:none;stroke-dashoffset:0;stroke-opacity:1;paint-order:normal"
       d="M 72.632551,64.065699 91.230266,50.988719"
       id="path5075-8-8-4"
       inkscape:connector-curvature="0"
       sodipodi:nodetypes="cc" />
    <path
       style="fill:#000000;fill-opacity:1;stroke:#000000;stroke-width:1.60519826;stroke-linecap:butt;stroke-linejoin:round;stroke-miterlimit:4;stroke-dasharray:none;stroke-dashoffset:0;stroke-opacity:1;paint-order:normal"
       d="M 106.82483,64.280209 91.230266,50.988719"
       id="path5075-4-9-5-7"
       inkscape:connector-curvature="0"
       sodipodi:nodetypes="cc" />
    <path
       style="fill:#ffcc00;fill-opacity:1;stroke:#ffcc00;stroke-width:1.60519826;stroke-linecap:butt;stroke-linejoin:round;stroke-miterlimit:4;stroke-dasharray:none;stroke-dashoffset:0;stroke-opacity:1;paint-order:normal"
       id="path4920-75-8-1-3-06-7"
       sodipodi:type="arc"
       sodipodi:cx="91.015785"
       sodipodi:cy="45.39867"
       sodipodi:rx="4.290206"
       sodipodi:ry="4.290206"
       sodipodi:start="0.92998298"
       sodipodi:end="0.90224447"
       d="m 93.580675,48.837741 a 4.290206,4.290206 0 0 1 -5.986092,-0.850395 4.290206,4.290206 0 0 1 0.808864,-5.991844 4.290206,4.290206 0 0 1 5.997309,0.767293 4.290206,4.290206 0 0 1 -0.725686,6.002486 L 91.015785,45.39867 Z" />
    <path
       style="fill:#ff0000;fill-opacity:1;stroke:#ff0000;stroke-width:1.60519826;stroke-linecap:butt;stroke-linejoin:round;stroke-miterlimit:4;stroke-dasharray:none;stroke-dashoffset:0;stroke-opacity:1;paint-order:normal"
       id="path4920-5"
       sodipodi:type="arc"
       sodipodi:cx="116.93315"
       sodipodi:cy="132.46671"
       sodipodi:rx="4.290206"
       sodipodi:ry="4.290206"
       sodipodi:start="0.92998298"
       sodipodi:end="0.90224447"
       d="m 119.49804,135.90578 a 4.290206,4.290206 0 0 1 -5.98609,-0.8504 4.290206,4.290206 0 0 1 0.80886,-5.99184 4.290206,4.290206 0 0 1 5.99731,0.76729 4.290206,4.290206 0 0 1 -0.72568,6.00249 l -2.65929,-3.36661 z" />
    <path
       style="fill:#ff0000;fill-opacity:1;stroke:#ff0000;stroke-width:1.60519826;stroke-linecap:butt;stroke-linejoin:round;stroke-miterlimit:4;stroke-dasharray:none;stroke-dashoffset:0;stroke-opacity:1;paint-order:normal"
       id="path4920-4-4"
       sodipodi:type="arc"
       sodipodi:cx="94.195129"
       sodipodi:cy="91.392822"
       sodipodi:rx="4.290206"
       sodipodi:ry="4.290206"
       sodipodi:start="0.92998298"
       sodipodi:end="0.90224447"
       d="m 96.760019,94.831893 a 4.290206,4.290206 0 0 1 -5.986091,-0.850394 4.290206,4.290206 0 0 1 0.808863,-5.991845 4.290206,4.290206 0 0 1 5.997309,0.767293 4.290206,4.290206 0 0 1 -0.725685,6.002486 l -2.659286,-3.366611 z" />
    <path
       style="fill:#ff0000;fill-opacity:1;stroke:#ff0000;stroke-width:1.60519826;stroke-linecap:butt;stroke-linejoin:round;stroke-miterlimit:4;stroke-dasharray:none;stroke-dashoffset:0;stroke-opacity:1;paint-order:normal"
       id="path4920-7-8"
       sodipodi:type="arc"
       sodipodi:cx="69.740967"
       sodipodi:cy="111.53954"
       sodipodi:rx="4.290206"
       sodipodi:ry="4.290206"
       sodipodi:start="0.92998298"
       sodipodi:end="0.90224447"
       d="m 72.305856,114.97861 a 4.290206,4.290206 0 0 1 -5.986091,-0.85039 4.290206,4.290206 0 0 1 0.808863,-5.99185 4.290206,4.290206 0 0 1 5.99731,0.7673 4.290206,4.290206 0 0 1 -0.725686,6.00248 l -2.659285,-3.36661 z" />
    <path
       style="fill:#0000ff;fill-opacity:1;stroke:#0000ff;stroke-width:1.60519826;stroke-linecap:butt;stroke-linejoin:round;stroke-miterlimit:4;stroke-dasharray:none;stroke-dashoffset:0;stroke-opacity:1;paint-order:normal"
       id="path4920-75-1"
       sodipodi:type="arc"
       sodipodi:cx="104.06257"
       sodipodi:cy="132.46669"
       sodipodi:rx="4.290206"
       sodipodi:ry="4.290206"
       sodipodi:start="0.92998298"
       sodipodi:end="0.90224447"
       d="m 106.62746,135.90576 a 4.290206,4.290206 0 0 1 -5.98609,-0.85039 4.290206,4.290206 0 0 1 0.80886,-5.99185 4.290206,4.290206 0 0 1 5.99731,0.76729 4.290206,4.290206 0 0 1 -0.72569,6.00249 l -2.65928,-3.36661 z" />
    <path
       style="fill:#000000;fill-opacity:1;stroke:#000000;stroke-width:1.60519826;stroke-linecap:butt;stroke-linejoin:round;stroke-miterlimit:4;stroke-dasharray:none;stroke-dashoffset:0;stroke-opacity:1;paint-order:normal"
       d="m 104.51649,126.96898 6.37063,-9.85934"
       id="path5075-28"
       inkscape:connector-curvature="0" />
    <path
       style="fill:#000000;fill-opacity:1;stroke:#000000;stroke-width:1.60519826;stroke-linecap:butt;stroke-linejoin:round;stroke-miterlimit:4;stroke-dasharray:none;stroke-dashoffset:0;stroke-opacity:1;paint-order:normal"
       d="m 117.25775,126.96898 -6.37063,-9.85934"
       id="path5075-4-93"
       inkscape:connector-curvature="0" />
    <path
       style="fill:#ffcc00;fill-opacity:1;stroke:#ffcc00;stroke-width:1.60519826;stroke-linecap:butt;stroke-linejoin:round;stroke-miterlimit:4;stroke-dasharray:none;stroke-dashoffset:0;stroke-opacity:1;paint-order:normal"
       id="path4920-75-8-6"
       sodipodi:type="arc"
       sodipodi:cx="110.58373"
       sodipodi:cy="111.34575"
       sodipodi:rx="4.290206"
       sodipodi:ry="4.290206"
       sodipodi:start="0.92998298"
       sodipodi:end="0.90224447"
       d="m 113.14862,114.78482 a 4.290206,4.290206 0 0 1 -5.98609,-0.85039 4.290206,4.290206 0 0 1 0.80886,-5.99185 4.290206,4.290206 0 0 1 5.99731,0.76729 4.290206,4.290206 0 0 1 -0.72568,6.00249 l -2.65929,-3.36661 z" />
    <path
       style="fill:#ffcc00;fill-opacity:1;stroke:#ffcc00;stroke-width:1.60519826;stroke-linecap:butt;stroke-linejoin:round;stroke-miterlimit:4;stroke-dasharray:none;stroke-dashoffset:0;stroke-opacity:1;paint-order:normal"
       id="path4920-75-8-1-8"
       sodipodi:type="arc"
       sodipodi:cx="122.29597"
       sodipodi:cy="91.581467"
       sodipodi:rx="4.290206"
       sodipodi:ry="4.290206"
       sodipodi:start="0.92998298"
       sodipodi:end="0.90224447"
       d="m 124.86086,95.020538 a 4.290206,4.290206 0 0 1 -5.98609,-0.850395 4.290206,4.290206 0 0 1 0.80886,-5.991845 4.290206,4.290206 0 0 1 5.99731,0.767293 4.290206,4.290206 0 0 1 -0.72569,6.002487 l -2.65928,-3.366611 z" />
    <path
       style="fill:#000000;fill-opacity:1;stroke:#000000;stroke-width:1.60519826;stroke-linecap:butt;stroke-linejoin:round;stroke-miterlimit:4;stroke-dasharray:none;stroke-dashoffset:0;stroke-opacity:1;paint-order:normal"
       d="m 112.67535,106.75599 6.37063,-9.859341"
       id="path5075-2-0"
       inkscape:connector-curvature="0" />
    <path
       style="fill:#000000;fill-opacity:1;stroke:#000000;stroke-width:1.60519826;stroke-linecap:butt;stroke-linejoin:round;stroke-miterlimit:4;stroke-dasharray:none;stroke-dashoffset:0;stroke-opacity:1;paint-order:normal"
       d="M 97.155631,86.823739 109.74708,74.604809"
       id="path5075-8-2"
       inkscape:connector-curvature="0"
       sodipodi:nodetypes="cc" />
    <path
       style="fill:#000000;fill-opacity:1;stroke:#000000;stroke-width:1.60519826;stroke-linecap:butt;stroke-linejoin:round;stroke-miterlimit:4;stroke-dasharray:none;stroke-dashoffset:0;stroke-opacity:1;paint-order:normal"
       d="M 120.83693,86.609239 109.74708,74.604809"
       id="path5075-4-9-1"
       inkscape:connector-curvature="0"
       sodipodi:nodetypes="cc" />
    <path
       style="fill:#ffcc00;fill-opacity:1;stroke:#ffcc00;stroke-width:1.60519826;stroke-linecap:butt;stroke-linejoin:round;stroke-miterlimit:4;stroke-dasharray:none;stroke-dashoffset:0;stroke-opacity:1;paint-order:normal"
       id="path4920-75-8-1-3-05"
       sodipodi:type="arc"
       sodipodi:cx="109.53265"
       sodipodi:cy="69.014771"
       sodipodi:rx="4.290206"
       sodipodi:ry="4.290206"
       sodipodi:start="0.92998298"
       sodipodi:end="0.90224447"
       d="m 112.09754,72.453841 a 4.290206,4.290206 0 0 1 -5.98609,-0.850394 4.290206,4.290206 0 0 1 0.80887,-5.991845 4.290206,4.290206 0 0 1 5.9973,0.767293 4.290206,4.290206 0 0 1 -0.72568,6.002486 l -2.65929,-3.36661 z" />
    <path
       style="fill:#0000ff;fill-opacity:1;stroke:#0000ff;stroke-width:1.60519826;stroke-linecap:butt;stroke-linejoin:round;stroke-miterlimit:4;stroke-dasharray:none;stroke-dashoffset:0;stroke-opacity:1;paint-order:normal"
       id="path4920-75-6-1"
       sodipodi:type="arc"
       sodipodi:cx="55.261497"
       sodipodi:cy="111.88666"
       sodipodi:rx="4.290206"
       sodipodi:ry="4.290206"
       sodipodi:start="0.92998298"
       sodipodi:end="0.90224447"
       d="m 57.826387,115.32573 a 4.290206,4.290206 0 0 1 -5.986091,-0.8504 4.290206,4.290206 0 0 1 0.808863,-5.99184 4.290206,4.290206 0 0 1 5.997309,0.76729 4.290206,4.290206 0 0 1 -0.725685,6.00249 l -2.659286,-3.36661 z" />
    <path
       style="fill:#000000;fill-opacity:1;stroke:#000000;stroke-width:1.60519826;stroke-linecap:butt;stroke-linejoin:round;stroke-miterlimit:4;stroke-dasharray:none;stroke-dashoffset:0;stroke-opacity:1;paint-order:normal"
       d="m 56.162882,106.55919 6.37063,-9.859341"
       id="path5075-80-1"
       inkscape:connector-curvature="0" />
    <path
       style="fill:#000000;fill-opacity:1;stroke:#000000;stroke-width:1.60519826;stroke-linecap:butt;stroke-linejoin:round;stroke-miterlimit:4;stroke-dasharray:none;stroke-dashoffset:0;stroke-opacity:1;paint-order:normal"
       d="M 68.904141,106.55919 62.533512,96.699849"
       id="path5075-4-2-0"
       inkscape:connector-curvature="0" />
    <path
       style="fill:#ffcc00;fill-opacity:1;stroke:#ffcc00;stroke-width:1.60519826;stroke-linecap:butt;stroke-linejoin:round;stroke-miterlimit:4;stroke-dasharray:none;stroke-dashoffset:0;stroke-opacity:1;paint-order:normal"
       id="path4920-75-8-10-8"
       sodipodi:type="arc"
       sodipodi:cx="62.381905"
       sodipodi:cy="90.860046"
       sodipodi:rx="4.290206"
       sodipodi:ry="4.290206"
       sodipodi:start="0.92998298"
       sodipodi:end="0.90224447"
       d="m 64.946794,94.299117 a 4.290206,4.290206 0 0 1 -5.986091,-0.850394 4.290206,4.290206 0 0 1 0.808863,-5.991845 4.290206,4.290206 0 0 1 5.99731,0.767293 4.290206,4.290206 0 0 1 -0.725686,6.002486 l -2.659285,-3.366611 z" />
    <path
       style="fill:#0000ff;fill-opacity:1;stroke:#0000ff;stroke-width:1.60519826;stroke-linecap:butt;stroke-linejoin:round;stroke-miterlimit:4;stroke-dasharray:none;stroke-dashoffset:0;stroke-opacity:1;paint-order:normal"
       id="path4920-75-5-5"
       sodipodi:type="arc"
       sodipodi:cx="75.881546"
       sodipodi:cy="90.860046"
       sodipodi:rx="4.290206"
       sodipodi:ry="4.290206"
       sodipodi:start="0.92998298"
       sodipodi:end="0.90224447"
       d="m 78.446435,94.299117 a 4.290206,4.290206 0 0 1 -5.986091,-0.850394 4.290206,4.290206 0 0 1 0.808863,-5.991845 4.290206,4.290206 0 0 1 5.99731,0.767293 4.290206,4.290206 0 0 1 -0.725686,6.002486 l -2.659285,-3.366611 z" />
    <path
       style="fill:#000000;fill-opacity:1;stroke:#000000;stroke-width:1.60519826;stroke-linecap:butt;stroke-linejoin:round;stroke-miterlimit:4;stroke-dasharray:none;stroke-dashoffset:0;stroke-opacity:1;paint-order:normal"
       d="m 63.291922,84.868699 6.370643,-9.85935"
       id="path5075-1-0"
       inkscape:connector-curvature="0" />
    <path
       style="fill:#000000;fill-opacity:1;stroke:#000000;stroke-width:1.60519826;stroke-linecap:butt;stroke-linejoin:round;stroke-miterlimit:4;stroke-dasharray:none;stroke-dashoffset:0;stroke-opacity:1;paint-order:normal"
       d="m 76.033196,84.868699 -6.370631,-9.85935"
       id="path5075-4-1-6"
       inkscape:connector-curvature="0" />
    <path
       style="fill:#ffcc00;fill-opacity:1;stroke:#ffcc00;stroke-width:1.60519826;stroke-linecap:butt;stroke-linejoin:round;stroke-miterlimit:4;stroke-dasharray:none;stroke-dashoffset:0;stroke-opacity:1;paint-order:normal"
       id="path4920-75-8-1-3-0-4"
       sodipodi:type="arc"
       sodipodi:cx="69.359261"
       sodipodi:cy="69.321228"
       sodipodi:rx="4.290206"
       sodipodi:ry="4.290206"
       sodipodi:start="0.92998298"
       sodipodi:end="0.90224447"
       d="m 71.92415,72.760299 a 4.290206,4.290206 0 0 1 -5.986091,-0.850395 4.290206,4.290206 0 0 1 0.808863,-5.991844 4.290206,4.290206 0 0 1 5.99731,0.767293 4.290206,4.290206 0 0 1 -0.725686,6.002486 l -2.659285,-3.366611 z" />
  </g>
</svg>
