<?xml version="1.0" encoding="UTF-8" standalone="no"?>
<!-- Created with Inkscape (http://www.inkscape.org/) -->

<svg
   xmlns:dc="http://purl.org/dc/elements/1.1/"
   xmlns:cc="http://creativecommons.org/ns#"
   xmlns:rdf="http://www.w3.org/1999/02/22-rdf-syntax-ns#"
   xmlns:svg="http://www.w3.org/2000/svg"
   xmlns="http://www.w3.org/2000/svg"
   xmlns:sodipodi="http://sodipodi.sourceforge.net/DTD/sodipodi-0.dtd"
   xmlns:inkscape="http://www.inkscape.org/namespaces/inkscape"
   width="98.562614mm"
   height="125.50539mm"
   viewBox="0 0 98.562614 125.50539"
   version="1.1"
   id="svg892"
   inkscape:version="0.92.5 (2060ec1f9f, 2020-04-08)"
   sodipodi:docname="partial-tree3.svg">
  <defs
     id="defs886">
    <marker
       inkscape:isstock="true"
       style="overflow:visible;"
       id="marker1999"
       refX="0.0"
       refY="0.0"
       orient="auto"
       inkscape:stockid="Arrow1Lend">
      <path
         transform="scale(0.8) rotate(180) translate(12.5,0)"
         style="fill-rule:evenodd;stroke:#ff00ff;stroke-width:1pt;stroke-opacity:1;fill:#ff00ff;fill-opacity:1"
         d="M 0.0,0.0 L 5.0,-5.0 L -12.5,0.0 L 5.0,5.0 L 0.0,0.0 z "
         id="path1997" />
    </marker>
    <marker
       inkscape:stockid="Arrow1Lend"
       orient="auto"
       refY="0.0"
       refX="0.0"
       id="Arrow1Lend"
       style="overflow:visible;"
       inkscape:isstock="true"
       inkscape:collect="always">
      <path
         id="path1616"
         d="M 0.0,0.0 L 5.0,-5.0 L -12.5,0.0 L 5.0,5.0 L 0.0,0.0 z "
         style="fill-rule:evenodd;stroke:#ff00ff;stroke-width:1pt;stroke-opacity:1;fill:#ff00ff;fill-opacity:1"
         transform="scale(0.8) rotate(180) translate(12.5,0)" />
    </marker>
    <marker
       inkscape:stockid="Arrow2Mend"
       orient="auto"
       refY="0.0"
       refX="0.0"
       id="Arrow2Mend"
       style="overflow:visible;"
       inkscape:isstock="true">
      <path
         id="path1640"
         style="fill-rule:evenodd;stroke-width:0.625;stroke-linejoin:round;stroke:#000000;stroke-opacity:1;fill:#000000;fill-opacity:1"
         d="M 8.7185878,4.0337352 L -2.2072895,0.016013256 L 8.7185884,-4.0017078 C 6.9730900,-1.6296469 6.9831476,1.6157441 8.7185878,4.0337352 z "
         transform="scale(0.6) rotate(180) translate(0,0)" />
    </marker>
    <marker
       inkscape:stockid="Arrow1Send"
       orient="auto"
       refY="0.0"
       refX="0.0"
       id="Arrow1Send"
       style="overflow:visible;"
       inkscape:isstock="true">
      <path
         id="path1628"
         d="M 0.0,0.0 L 5.0,-5.0 L -12.5,0.0 L 5.0,5.0 L 0.0,0.0 z "
         style="fill-rule:evenodd;stroke:#000000;stroke-width:1pt;stroke-opacity:1;fill:#000000;fill-opacity:1"
         transform="scale(0.2) rotate(180) translate(6,0)" />
    </marker>
  </defs>
  <sodipodi:namedview
     id="base"
     pagecolor="#ffffff"
     bordercolor="#666666"
     borderopacity="1.0"
     inkscape:pageopacity="0.0"
     inkscape:pageshadow="2"
     inkscape:zoom="1.979899"
     inkscape:cx="317.14674"
     inkscape:cy="243.79633"
     inkscape:document-units="mm"
     inkscape:current-layer="layer1"
     showgrid="false"
     fit-margin-top="0"
     fit-margin-left="0"
     fit-margin-right="0"
     fit-margin-bottom="0"
     inkscape:window-width="1920"
     inkscape:window-height="1029"
     inkscape:window-x="0"
     inkscape:window-y="25"
     inkscape:window-maximized="1"
     showguides="false">
    <sodipodi:guide
       position="-19.938244,100.82515"
       orientation="1,0"
       id="guide1975"
       inkscape:locked="false" />
  </sodipodi:namedview>
  <metadata
     id="metadata889">
    <rdf:RDF>
      <cc:Work
         rdf:about="">
        <dc:format>image/svg+xml</dc:format>
        <dc:type
           rdf:resource="http://purl.org/dc/dcmitype/StillImage" />
        <dc:title></dc:title>
      </cc:Work>
    </rdf:RDF>
  </metadata>
  <g
     inkscape:label="Layer 1"
     inkscape:groupmode="layer"
     id="layer1"
     transform="translate(-32.646046,-35.809802)">
    <path
       style="fill:#008000;fill-opacity:1;stroke:#008000;stroke-width:1.56974781;stroke-linecap:butt;stroke-linejoin:round;stroke-miterlimit:4;stroke-dasharray:none;stroke-dashoffset:0;stroke-opacity:1;paint-order:normal"
       id="path4920"
       sodipodi:type="arc"
       sodipodi:cx="112.29483"
       sodipodi:cy="133.66048"
       sodipodi:rx="4.1954575"
       sodipodi:ry="4.1954575"
       sodipodi:start="0.92998298"
       sodipodi:end="0.90224447"
       d="m 114.80307,137.0236 a 4.1954575,4.1954575 0 0 1 -5.85388,-0.83162 4.1954575,4.1954575 0 0 1 0.79099,-5.85951 4.1954575,4.1954575 0 0 1 5.86486,0.75034 4.1954575,4.1954575 0 0 1 -0.70965,5.86993 l -2.60056,-3.29226 z" />
    <path
       style="fill:#008000;fill-opacity:1;stroke:#008000;stroke-width:1.56974781;stroke-linecap:butt;stroke-linejoin:round;stroke-miterlimit:4;stroke-dasharray:none;stroke-dashoffset:0;stroke-opacity:1;paint-order:normal"
       id="path4920-4"
       sodipodi:type="arc"
       sodipodi:cx="90.058983"
       sodipodi:cy="93.493744"
       sodipodi:rx="4.1954575"
       sodipodi:ry="4.1954575"
       sodipodi:start="0.92998298"
       sodipodi:end="0.90224447"
       d="m 92.567227,96.856864 a 4.1954575,4.1954575 0 0 1 -5.853889,-0.831614 4.1954575,4.1954575 0 0 1 0.790999,-5.859516 4.1954575,4.1954575 0 0 1 5.86486,0.750347 4.1954575,4.1954575 0 0 1 -0.709659,5.869923 l -2.600555,-3.29226 z" />
    <path
       style="fill:#008000;fill-opacity:1;stroke:#008000;stroke-width:1.56974781;stroke-linecap:butt;stroke-linejoin:round;stroke-miterlimit:4;stroke-dasharray:none;stroke-dashoffset:0;stroke-opacity:1;paint-order:normal"
       id="path4920-7"
       sodipodi:type="arc"
       sodipodi:cx="66.144936"
       sodipodi:cy="113.1955"
       sodipodi:rx="4.1954575"
       sodipodi:ry="4.1954575"
       sodipodi:start="0.92998298"
       sodipodi:end="0.90224447"
       d="m 68.65318,116.55862 a 4.1954575,4.1954575 0 0 1 -5.85389,-0.83161 4.1954575,4.1954575 0 0 1 0.791,-5.85952 4.1954575,4.1954575 0 0 1 5.86486,0.75035 4.1954575,4.1954575 0 0 1 -0.709659,5.86992 l -2.600555,-3.29226 z" />
    <path
       style="fill:#ff0000;fill-opacity:1;stroke:#ff0000;stroke-width:1.56974781;stroke-linecap:butt;stroke-linejoin:round;stroke-miterlimit:4;stroke-dasharray:none;stroke-dashoffset:0;stroke-opacity:1;paint-order:normal"
       id="path4920-75"
       sodipodi:type="arc"
       sodipodi:cx="99.708496"
       sodipodi:cy="133.66048"
       sodipodi:rx="4.1954575"
       sodipodi:ry="4.1954575"
       sodipodi:start="0.92998298"
       sodipodi:end="0.90224447"
       d="m 102.21674,137.0236 a 4.1954575,4.1954575 0 0 1 -5.853889,-0.83162 4.1954575,4.1954575 0 0 1 0.791,-5.85951 4.1954575,4.1954575 0 0 1 5.864859,0.75034 4.1954575,4.1954575 0 0 1 -0.70966,5.86993 l -2.600554,-3.29226 z" />
    <path
       style="fill:#000000;fill-opacity:1;stroke:#000000;stroke-width:1.56974781;stroke-linecap:butt;stroke-linejoin:round;stroke-miterlimit:4;stroke-dasharray:none;stroke-dashoffset:0;stroke-opacity:1;paint-order:normal"
       d="m 100.15243,128.28416 6.22993,-9.6416"
       id="path5075"
       inkscape:connector-curvature="0" />
    <path
       style="fill:#000000;fill-opacity:1;stroke:#000000;stroke-width:1.56974781;stroke-linecap:butt;stroke-linejoin:round;stroke-miterlimit:4;stroke-dasharray:none;stroke-dashoffset:0;stroke-opacity:1;paint-order:normal"
       d="m 112.61229,128.28416 -6.22993,-9.6416"
       id="path5075-4"
       inkscape:connector-curvature="0" />
    <path
       style="fill:#0000ff;fill-opacity:1;stroke:#0000ff;stroke-width:1.56974781;stroke-linecap:butt;stroke-linejoin:round;stroke-miterlimit:4;stroke-dasharray:none;stroke-dashoffset:0;stroke-opacity:1;paint-order:normal"
       id="path4920-75-8"
       sodipodi:type="arc"
       sodipodi:cx="106.08565"
       sodipodi:cy="113.006"
       sodipodi:rx="4.1954575"
       sodipodi:ry="4.1954575"
       sodipodi:start="0.92998298"
       sodipodi:end="0.90224447"
       d="m 108.59389,116.36912 a 4.1954575,4.1954575 0 0 1 -5.85389,-0.83162 4.1954575,4.1954575 0 0 1 0.791,-5.85951 4.1954575,4.1954575 0 0 1 5.86486,0.75034 4.1954575,4.1954575 0 0 1 -0.70966,5.86993 l -2.60055,-3.29226 z" />
    <path
       style="fill:#0000ff;fill-opacity:1;stroke:#0000ff;stroke-width:1.56974781;stroke-linecap:butt;stroke-linejoin:round;stroke-miterlimit:4;stroke-dasharray:none;stroke-dashoffset:0;stroke-opacity:1;paint-order:normal"
       id="path4920-75-8-1"
       sodipodi:type="arc"
       sodipodi:cx="117.53924"
       sodipodi:cy="93.678207"
       sodipodi:rx="4.1954575"
       sodipodi:ry="4.1954575"
       sodipodi:start="0.92998298"
       sodipodi:end="0.90224447"
       d="m 120.04748,97.041327 a 4.1954575,4.1954575 0 0 1 -5.85389,-0.831614 4.1954575,4.1954575 0 0 1 0.791,-5.859515 4.1954575,4.1954575 0 0 1 5.86486,0.750347 4.1954575,4.1954575 0 0 1 -0.70966,5.869922 l -2.60055,-3.29226 z" />
    <path
       style="fill:#000000;fill-opacity:1;stroke:#000000;stroke-width:1.56974781;stroke-linecap:butt;stroke-linejoin:round;stroke-miterlimit:4;stroke-dasharray:none;stroke-dashoffset:0;stroke-opacity:1;paint-order:normal"
       d="m 108.13108,108.51756 6.22995,-9.641578"
       id="path5075-2"
       inkscape:connector-curvature="0" />
    <path
       style="fill:#000000;fill-opacity:1;stroke:#000000;stroke-width:1.56974781;stroke-linecap:butt;stroke-linejoin:round;stroke-miterlimit:4;stroke-dasharray:none;stroke-dashoffset:0;stroke-opacity:1;paint-order:normal"
       d="M 92.954142,89.025542 105.26749,77.076455"
       id="path5075-8"
       inkscape:connector-curvature="0"
       sodipodi:nodetypes="cc" />
    <path
       style="fill:#000000;fill-opacity:1;stroke:#000000;stroke-width:1.56974781;stroke-linecap:butt;stroke-linejoin:round;stroke-miterlimit:4;stroke-dasharray:none;stroke-dashoffset:0;stroke-opacity:1;paint-order:normal"
       d="M 116.11243,88.815782 105.26749,77.076455"
       id="path5075-4-9"
       inkscape:connector-curvature="0"
       sodipodi:nodetypes="cc" />
    <path
       style="fill:#0000ff;fill-opacity:1;stroke:#0000ff;stroke-width:1.56974781;stroke-linecap:butt;stroke-linejoin:round;stroke-miterlimit:4;stroke-dasharray:none;stroke-dashoffset:0;stroke-opacity:1;paint-order:normal"
       id="path4920-75-8-1-3"
       sodipodi:type="arc"
       sodipodi:cx="105.05779"
       sodipodi:cy="71.609871"
       sodipodi:rx="4.1954575"
       sodipodi:ry="4.1954575"
       sodipodi:start="0.92998298"
       sodipodi:end="0.90224447"
       d="m 107.56604,74.972991 a 4.1954575,4.1954575 0 0 1 -5.85389,-0.831614 4.1954575,4.1954575 0 0 1 0.791,-5.859516 4.1954575,4.1954575 0 0 1 5.86486,0.750347 4.1954575,4.1954575 0 0 1 -0.70966,5.869923 l -2.60056,-3.29226 z" />
    <path
       style="fill:#ff0000;fill-opacity:1;stroke:#ff0000;stroke-width:1.56974781;stroke-linecap:butt;stroke-linejoin:round;stroke-miterlimit:4;stroke-dasharray:none;stroke-dashoffset:0;stroke-opacity:1;paint-order:normal"
       id="path4920-75-6"
       sodipodi:type="arc"
       sodipodi:cx="51.985226"
       sodipodi:cy="113.53494"
       sodipodi:rx="4.1954575"
       sodipodi:ry="4.1954575"
       sodipodi:start="0.92998298"
       sodipodi:end="0.90224447"
       d="m 54.49347,116.89806 a 4.1954575,4.1954575 0 0 1 -5.85389,-0.83161 4.1954575,4.1954575 0 0 1 0.791,-5.85952 4.1954575,4.1954575 0 0 1 5.86486,0.75035 4.1954575,4.1954575 0 0 1 -0.709659,5.86992 l -2.600555,-3.29226 z" />
    <path
       style="fill:#000000;fill-opacity:1;stroke:#000000;stroke-width:1.56974781;stroke-linecap:butt;stroke-linejoin:round;stroke-miterlimit:4;stroke-dasharray:none;stroke-dashoffset:0;stroke-opacity:1;paint-order:normal"
       d="m 52.866689,108.32512 6.229937,-9.641588"
       id="path5075-80"
       inkscape:connector-curvature="0" />
    <path
       style="fill:#000000;fill-opacity:1;stroke:#000000;stroke-width:1.56974781;stroke-linecap:butt;stroke-linejoin:round;stroke-miterlimit:4;stroke-dasharray:none;stroke-dashoffset:0;stroke-opacity:1;paint-order:normal"
       d="M 65.326563,108.32512 59.096626,98.683532"
       id="path5075-4-2"
       inkscape:connector-curvature="0" />
    <path
       style="fill:#0000ff;fill-opacity:1;stroke:#0000ff;stroke-width:1.56974781;stroke-linecap:butt;stroke-linejoin:round;stroke-miterlimit:4;stroke-dasharray:none;stroke-dashoffset:0;stroke-opacity:1;paint-order:normal"
       id="path4920-75-8-10"
       sodipodi:type="arc"
       sodipodi:cx="58.948349"
       sodipodi:cy="92.97271"
       sodipodi:rx="4.1954575"
       sodipodi:ry="4.1954575"
       sodipodi:start="0.92998298"
       sodipodi:end="0.90224447"
       d="m 61.456593,96.335829 a 4.1954575,4.1954575 0 0 1 -5.853889,-0.831614 4.1954575,4.1954575 0 0 1 0.790999,-5.859515 4.1954575,4.1954575 0 0 1 5.86486,0.750347 4.1954575,4.1954575 0 0 1 -0.709659,5.869923 l -2.600555,-3.29226 z" />
    <path
       style="fill:#ff0000;fill-opacity:1;stroke:#ff0000;stroke-width:1.56974781;stroke-linecap:butt;stroke-linejoin:round;stroke-miterlimit:4;stroke-dasharray:none;stroke-dashoffset:0;stroke-opacity:1;paint-order:normal"
       id="path4920-75-5"
       sodipodi:type="arc"
       sodipodi:cx="72.149887"
       sodipodi:cy="92.97271"
       sodipodi:rx="4.1954575"
       sodipodi:ry="4.1954575"
       sodipodi:start="0.92998298"
       sodipodi:end="0.90224447"
       d="m 74.658131,96.335829 a 4.1954575,4.1954575 0 0 1 -5.853889,-0.831614 4.1954575,4.1954575 0 0 1 0.791,-5.859515 4.1954575,4.1954575 0 0 1 5.86486,0.750347 4.1954575,4.1954575 0 0 1 -0.70966,5.869923 l -2.600555,-3.29226 z" />
    <path
       style="fill:#000000;fill-opacity:1;stroke:#000000;stroke-width:1.56974781;stroke-linecap:butt;stroke-linejoin:round;stroke-miterlimit:4;stroke-dasharray:none;stroke-dashoffset:0;stroke-opacity:1;paint-order:normal"
       d="m 59.838301,87.113672 6.229937,-9.641594"
       id="path5075-1"
       inkscape:connector-curvature="0" />
    <path
       style="fill:#000000;fill-opacity:1;stroke:#000000;stroke-width:1.56974781;stroke-linecap:butt;stroke-linejoin:round;stroke-miterlimit:4;stroke-dasharray:none;stroke-dashoffset:0;stroke-opacity:1;paint-order:normal"
       d="M 72.298173,87.113672 66.068238,77.472078"
       id="path5075-4-1"
       inkscape:connector-curvature="0" />
    <path
       style="fill:#0000ff;fill-opacity:1;stroke:#0000ff;stroke-width:1.56974781;stroke-linecap:butt;stroke-linejoin:round;stroke-miterlimit:4;stroke-dasharray:none;stroke-dashoffset:0;stroke-opacity:1;paint-order:normal"
       id="path4920-75-8-1-3-0"
       sodipodi:type="arc"
       sodipodi:cx="65.771614"
       sodipodi:cy="71.909576"
       sodipodi:rx="4.1954575"
       sodipodi:ry="4.1954575"
       sodipodi:start="0.92998298"
       sodipodi:end="0.90224447"
       d="m 68.279858,75.272696 a 4.1954575,4.1954575 0 0 1 -5.853889,-0.831614 4.1954575,4.1954575 0 0 1 0.791,-5.859515 4.1954575,4.1954575 0 0 1 5.86486,0.750347 4.1954575,4.1954575 0 0 1 -0.70966,5.869922 l -2.600555,-3.29226 z" />
    <path
       style="fill:#000000;fill-opacity:1;stroke:#000000;stroke-width:1.56974781;stroke-linecap:butt;stroke-linejoin:round;stroke-miterlimit:4;stroke-dasharray:none;stroke-dashoffset:0;stroke-opacity:1;paint-order:normal"
       d="M 68.133539,65.721243 86.320528,52.933057"
       id="path5075-8-8"
       inkscape:connector-curvature="0"
       sodipodi:nodetypes="cc" />
    <path
       style="fill:#000000;fill-opacity:1;stroke:#000000;stroke-width:1.56974781;stroke-linecap:butt;stroke-linejoin:round;stroke-miterlimit:4;stroke-dasharray:none;stroke-dashoffset:0;stroke-opacity:1;paint-order:normal"
       d="M 101.57069,65.931009 86.320528,52.933057"
       id="path5075-4-9-5"
       inkscape:connector-curvature="0"
       sodipodi:nodetypes="cc" />
    <path
       style="fill:#0000ff;fill-opacity:1;stroke:#0000ff;stroke-width:1.56974781;stroke-linecap:butt;stroke-linejoin:round;stroke-miterlimit:4;stroke-dasharray:none;stroke-dashoffset:0;stroke-opacity:1;paint-order:normal"
       id="path4920-75-8-1-3-06"
       sodipodi:type="arc"
       sodipodi:cx="86.110786"
       sodipodi:cy="47.466473"
       sodipodi:rx="4.1954575"
       sodipodi:ry="4.1954575"
       sodipodi:start="0.92998298"
       sodipodi:end="0.90224447"
       d="m 88.619031,50.829592 a 4.1954575,4.1954575 0 0 1 -5.85389,-0.831614 4.1954575,4.1954575 0 0 1 0.791,-5.859515 4.1954575,4.1954575 0 0 1 5.86486,0.750347 4.1954575,4.1954575 0 0 1 -0.709659,5.869923 l -2.600556,-3.29226 z" />
    <path
       style="fill:none;stroke:#ff00ff;stroke-width:0.26499999;stroke-linecap:butt;stroke-linejoin:miter;stroke-miterlimit:4;stroke-dasharray:none;stroke-opacity:1;marker-end:url(#Arrow1Lend)"
       d="m 91.979882,49.596528 c 8.117768,2.612259 15.238258,6.720433 17.372518,18.307962 11.4469,4.540025 12.36838,13.625119 12.96257,22.851544 2.43677,3.292245 2.82693,4.10897 2.10574,10.104816"
       id="path1611"
       inkscape:connector-curvature="0"
       sodipodi:nodetypes="cccc" />
    <path
       style="fill:#ffffff;fill-opacity:1;stroke:#ff00ff;stroke-width:0.5;stroke-linecap:butt;stroke-linejoin:round;stroke-miterlimit:4;stroke-dasharray:none;stroke-dashoffset:0;stroke-opacity:1;paint-order:normal"
       id="path1977"
       sodipodi:type="arc"
       sodipodi:cx="123.7383"
       sodipodi:cy="104.38252"
       sodipodi:rx="2.4095981"
       sodipodi:ry="2.4095981"
       sodipodi:start="0.92998298"
       sodipodi:end="0.91831274"
       sodipodi:open="true"
       d="m 125.17887,106.31408 a 2.4095981,2.4095981 0 0 1 -3.36792,-0.48536 2.4095981,2.4095981 0 0 1 0.47553,-3.36932 2.4095981,2.4095981 0 0 1 3.37069,0.4657 2.4095981,2.4095981 0 0 1 -0.45586,3.37204" />
    <path
       style="fill:#ffffff;fill-opacity:1;stroke:#ff00ff;stroke-width:0.5;stroke-linecap:butt;stroke-linejoin:round;stroke-miterlimit:4;stroke-dasharray:none;stroke-dashoffset:0;stroke-opacity:1;paint-order:normal"
       d="m 126.47864,101.59495 -5.6224,5.62239"
       id="path1979"
       inkscape:connector-curvature="0" />
    <path
       style="fill:none;stroke:#ff00ff;stroke-width:0.26458332px;stroke-linecap:butt;stroke-linejoin:miter;stroke-opacity:1;marker-end:url(#marker1999)"
       d="m 85.030873,56.67917 13.898015,15.100728 -5.345391,9.755338"
       id="path1989"
       inkscape:connector-curvature="0" />
    <path
       style="fill:#ffffff;fill-opacity:1;stroke:#ff00ff;stroke-width:0.5;stroke-linecap:butt;stroke-linejoin:round;stroke-miterlimit:4;stroke-dasharray:none;stroke-dashoffset:0;stroke-opacity:1;paint-order:normal"
       id="path1977-0"
       sodipodi:type="arc"
       sodipodi:cx="90.05159"
       sodipodi:cy="84.841736"
       sodipodi:rx="2.4095981"
       sodipodi:ry="2.4095981"
       sodipodi:start="0.92998298"
       sodipodi:end="0.91831274"
       sodipodi:open="true"
       d="m 91.492162,86.773293 a 2.4095981,2.4095981 0 0 1 -3.367918,-0.485355 2.4095981,2.4095981 0 0 1 0.475527,-3.369321 2.4095981,2.4095981 0 0 1 3.370694,0.465695 2.4095981,2.4095981 0 0 1 -0.455859,3.372038" />
    <path
       style="fill:#ffffff;fill-opacity:1;stroke:#ff00ff;stroke-width:0.5;stroke-linecap:butt;stroke-linejoin:round;stroke-miterlimit:4;stroke-dasharray:none;stroke-dashoffset:0;stroke-opacity:1;paint-order:normal"
       d="m 92.791932,82.054164 -5.6224,5.62239"
       id="path1979-5"
       inkscape:connector-curvature="0" />
  </g>
</svg>
