<?xml version="1.0" encoding="UTF-8" standalone="no"?>
<!-- Created with Inkscape (http://www.inkscape.org/) -->

<svg
   xmlns:dc="http://purl.org/dc/elements/1.1/"
   xmlns:cc="http://creativecommons.org/ns#"
   xmlns:rdf="http://www.w3.org/1999/02/22-rdf-syntax-ns#"
   xmlns:svg="http://www.w3.org/2000/svg"
   xmlns="http://www.w3.org/2000/svg"
   xmlns:sodipodi="http://sodipodi.sourceforge.net/DTD/sodipodi-0.dtd"
   xmlns:inkscape="http://www.inkscape.org/namespaces/inkscape"
   width="162.45003mm"
   height="123.46022mm"
   viewBox="0 0 162.45003 123.46022"
   version="1.1"
   id="svg8"
   inkscape:version="0.92.5 (2060ec1f9f, 2020-04-08)"
   sodipodi:docname="strand8.svg">
  <defs
     id="defs2">
    <marker
       inkscape:stockid="Arrow2Mend"
       orient="auto"
       refY="0"
       refX="0"
       id="Arrow2Mend"
       style="overflow:visible"
       inkscape:isstock="true">
      <path
         id="path911"
         style="fill:#ff0000;fill-opacity:1;fill-rule:evenodd;stroke:#ff0000;stroke-width:0.625;stroke-linejoin:round;stroke-opacity:1"
         d="M 8.7185878,4.0337352 -2.2072895,0.01601326 8.7185884,-4.0017078 c -1.7454984,2.3720609 -1.7354408,5.6174519 -6e-7,8.035443 z"
         transform="scale(-0.6)"
         inkscape:connector-curvature="0" />
    </marker>
  </defs>
  <sodipodi:namedview
     id="base"
     pagecolor="#ffffff"
     bordercolor="#666666"
     borderopacity="1.0"
     inkscape:pageopacity="0.0"
     inkscape:pageshadow="2"
     inkscape:zoom="1.979899"
     inkscape:cx="323.81261"
     inkscape:cy="226.55256"
     inkscape:document-units="mm"
     inkscape:current-layer="layer1"
     showgrid="false"
     inkscape:window-width="1920"
     inkscape:window-height="1029"
     inkscape:window-x="0"
     inkscape:window-y="25"
     inkscape:window-maximized="1"
     fit-margin-top="0"
     fit-margin-left="0"
     fit-margin-right="0"
     fit-margin-bottom="0" />
  <metadata
     id="metadata5">
    <rdf:RDF>
      <cc:Work
         rdf:about="">
        <dc:format>image/svg+xml</dc:format>
        <dc:type
           rdf:resource="http://purl.org/dc/dcmitype/StillImage" />
        <dc:title />
      </cc:Work>
    </rdf:RDF>
  </metadata>
  <g
     inkscape:label="Layer 1"
     inkscape:groupmode="layer"
     id="layer1"
     transform="translate(-6.7414781,-22.682365)">
    <rect
       style="fill:#ffffff;fill-opacity:1;stroke:#000000;stroke-width:0.86509019;stroke-linecap:butt;stroke-linejoin:round;stroke-miterlimit:4;stroke-dasharray:none;stroke-dashoffset:0;stroke-opacity:1;paint-order:normal"
       id="rect815"
       width="20.57789"
       height="12.25425"
       x="27.144562"
       y="23.857756" />
    <text
       xml:space="preserve"
       style="font-style:normal;font-weight:normal;font-size:9.15553761px;line-height:1.25;font-family:sans-serif;letter-spacing:0px;word-spacing:0px;fill:#000000;fill-opacity:1;stroke:none;stroke-width:0.22888844"
       x="34.543354"
       y="33.33746"
       id="text819"><tspan
         sodipodi:role="line"
         id="tspan817"
         x="34.543354"
         y="33.33746"
         style="stroke-width:0.22888844">0</tspan></text>
    <path
       style="fill:#ff0000;fill-opacity:1;stroke:#ff0000;stroke-width:0.86509019;stroke-linecap:butt;stroke-linejoin:round;stroke-miterlimit:4;stroke-dasharray:none;stroke-dashoffset:0;stroke-opacity:1;marker-end:url(#Arrow2Mend);paint-order:normal"
       d="M 37.96668,54.589805 V 40.485901"
       id="path882"
       inkscape:connector-curvature="0" />
    <text
       xml:space="preserve"
       style="font-style:normal;font-weight:normal;font-size:9.15553761px;line-height:1.25;font-family:sans-serif;letter-spacing:0px;word-spacing:0px;fill:#000000;fill-opacity:1;stroke:none;stroke-width:0.22888844"
       x="18.52177"
       y="133.48355"
       id="text1864"><tspan
         sodipodi:role="line"
         x="18.52177"
         y="133.48355"
         style="stroke-width:0.22888844"
         id="tspan4089">Done</tspan></text>
    <path
       style="fill:#000000;fill-opacity:1;stroke:#000000;stroke-width:1;stroke-linecap:butt;stroke-linejoin:round;stroke-miterlimit:4;stroke-dasharray:none;stroke-dashoffset:0;stroke-opacity:1;paint-order:normal"
       d="M 129.78305,74.250925 141.36898,66.10428"
       id="path5075-8-8"
       inkscape:connector-curvature="0"
       sodipodi:nodetypes="cc" />
    <path
       style="fill:#000000;fill-opacity:1;stroke:#000000;stroke-width:1;stroke-linecap:butt;stroke-linejoin:round;stroke-miterlimit:4;stroke-dasharray:none;stroke-dashoffset:0;stroke-opacity:1;paint-order:normal"
       d="M 151.08402,74.384562 141.36898,66.10428"
       id="path5075-4-9-5"
       inkscape:connector-curvature="0"
       sodipodi:nodetypes="cc" />
    <path
       style="fill:#ffcc00;fill-opacity:1;stroke:#ffcc00;stroke-width:1;stroke-linecap:butt;stroke-linejoin:round;stroke-miterlimit:4;stroke-dasharray:none;stroke-dashoffset:0;stroke-opacity:1;paint-order:normal"
       id="path4920-75-8-1-3-06"
       sodipodi:type="arc"
       sodipodi:cx="141.23537"
       sodipodi:cy="62.621819"
       sodipodi:rx="2.6726952"
       sodipodi:ry="2.6726952"
       sodipodi:start="0.92998298"
       sodipodi:end="0.90224447"
       d="m 142.83323,64.764277 a 2.6726952,2.6726952 0 0 1 -3.72919,-0.529775 2.6726952,2.6726952 0 0 1 0.5039,-3.732775 2.6726952,2.6726952 0 0 1 3.73618,0.478005 2.6726952,2.6726952 0 0 1 -0.45208,3.739404 l -1.65667,-2.097317 z" />
    <path
       style="fill:#ff0000;fill-opacity:1;stroke:#ff0000;stroke-width:1;stroke-linecap:butt;stroke-linejoin:round;stroke-miterlimit:4;stroke-dasharray:none;stroke-dashoffset:0;stroke-opacity:1;paint-order:normal"
       id="path4920"
       sodipodi:type="arc"
       sodipodi:cx="157.38126"
       sodipodi:cy="116.86311"
       sodipodi:rx="2.6726952"
       sodipodi:ry="2.6726952"
       sodipodi:start="0.92998298"
       sodipodi:end="0.90224447"
       d="m 158.97912,119.00557 a 2.6726952,2.6726952 0 0 1 -3.72919,-0.52977 2.6726952,2.6726952 0 0 1 0.5039,-3.73278 2.6726952,2.6726952 0 0 1 3.73618,0.47801 2.6726952,2.6726952 0 0 1 -0.45208,3.7394 l -1.65667,-2.09732 z" />
    <path
       style="fill:#ff0000;fill-opacity:1;stroke:#ff0000;stroke-width:1;stroke-linecap:butt;stroke-linejoin:round;stroke-miterlimit:4;stroke-dasharray:none;stroke-dashoffset:0;stroke-opacity:1;paint-order:normal"
       id="path4920-4"
       sodipodi:type="arc"
       sodipodi:cx="143.21602"
       sodipodi:cy="91.27507"
       sodipodi:rx="2.6726952"
       sodipodi:ry="2.6726952"
       sodipodi:start="0.92998298"
       sodipodi:end="0.90224447"
       d="m 144.81388,93.417529 a 2.6726952,2.6726952 0 0 1 -3.72919,-0.529776 2.6726952,2.6726952 0 0 1 0.5039,-3.732775 2.6726952,2.6726952 0 0 1 3.73618,0.478005 2.6726952,2.6726952 0 0 1 -0.45208,3.739405 l -1.65667,-2.097318 z" />
    <path
       style="fill:#ff0000;fill-opacity:1;stroke:#ff0000;stroke-width:1;stroke-linecap:butt;stroke-linejoin:round;stroke-miterlimit:4;stroke-dasharray:none;stroke-dashoffset:0;stroke-opacity:1;paint-order:normal"
       id="path4920-7"
       sodipodi:type="arc"
       sodipodi:cx="127.98167"
       sodipodi:cy="103.82598"
       sodipodi:rx="2.6726952"
       sodipodi:ry="2.6726952"
       sodipodi:start="0.92998298"
       sodipodi:end="0.90224447"
       d="m 129.57953,105.96844 a 2.6726952,2.6726952 0 0 1 -3.72919,-0.52978 2.6726952,2.6726952 0 0 1 0.5039,-3.73277 2.6726952,2.6726952 0 0 1 3.73618,0.478 2.6726952,2.6726952 0 0 1 -0.45208,3.73941 l -1.65667,-2.09732 z" />
    <path
       style="fill:#0000ff;fill-opacity:1;stroke:#0000ff;stroke-width:1;stroke-linecap:butt;stroke-linejoin:round;stroke-miterlimit:4;stroke-dasharray:none;stroke-dashoffset:0;stroke-opacity:1;paint-order:normal"
       id="path4920-75"
       sodipodi:type="arc"
       sodipodi:cx="149.36319"
       sodipodi:cy="116.8631"
       sodipodi:rx="2.6726952"
       sodipodi:ry="2.6726952"
       sodipodi:start="0.92998298"
       sodipodi:end="0.90224447"
       d="m 150.96105,119.00556 a 2.6726952,2.6726952 0 0 1 -3.72919,-0.52978 2.6726952,2.6726952 0 0 1 0.50391,-3.73277 2.6726952,2.6726952 0 0 1 3.73618,0.478 2.6726952,2.6726952 0 0 1 -0.45209,3.73941 l -1.65667,-2.09732 z" />
    <path
       style="fill:#000000;fill-opacity:1;stroke:#000000;stroke-width:1;stroke-linecap:butt;stroke-linejoin:round;stroke-miterlimit:4;stroke-dasharray:none;stroke-dashoffset:0;stroke-opacity:1;paint-order:normal"
       d="m 149.64598,113.43816 3.96875,-6.14213"
       id="path5075"
       inkscape:connector-curvature="0" />
    <path
       style="fill:#000000;fill-opacity:1;stroke:#000000;stroke-width:1;stroke-linecap:butt;stroke-linejoin:round;stroke-miterlimit:4;stroke-dasharray:none;stroke-dashoffset:0;stroke-opacity:1;paint-order:normal"
       d="m 157.58348,113.43816 -3.96875,-6.14213"
       id="path5075-4"
       inkscape:connector-curvature="0" />
    <path
       style="fill:#ffcc00;fill-opacity:1;stroke:#ffcc00;stroke-width:1;stroke-linecap:butt;stroke-linejoin:round;stroke-miterlimit:4;stroke-dasharray:none;stroke-dashoffset:0;stroke-opacity:1;paint-order:normal"
       id="path4920-75-8"
       sodipodi:type="arc"
       sodipodi:cx="153.42572"
       sodipodi:cy="103.70526"
       sodipodi:rx="2.6726952"
       sodipodi:ry="2.6726952"
       sodipodi:start="0.92998298"
       sodipodi:end="0.90224447"
       d="m 155.02358,105.84772 a 2.6726952,2.6726952 0 0 1 -3.72919,-0.52978 2.6726952,2.6726952 0 0 1 0.50391,-3.73277 2.6726952,2.6726952 0 0 1 3.73618,0.478 2.6726952,2.6726952 0 0 1 -0.45209,3.73941 l -1.65667,-2.09732 z" />
    <path
       style="fill:#ffcc00;fill-opacity:1;stroke:#ffcc00;stroke-width:1;stroke-linecap:butt;stroke-linejoin:round;stroke-miterlimit:4;stroke-dasharray:none;stroke-dashoffset:0;stroke-opacity:1;paint-order:normal"
       id="path4920-75-8-1"
       sodipodi:type="arc"
       sodipodi:cx="160.72217"
       sodipodi:cy="91.392593"
       sodipodi:rx="2.6726952"
       sodipodi:ry="2.6726952"
       sodipodi:start="0.92998298"
       sodipodi:end="0.90224447"
       d="m 162.32003,93.535052 a 2.6726952,2.6726952 0 0 1 -3.72919,-0.529776 2.6726952,2.6726952 0 0 1 0.5039,-3.732775 2.6726952,2.6726952 0 0 1 3.73618,0.478005 2.6726952,2.6726952 0 0 1 -0.45208,3.739405 l -1.65667,-2.097318 z" />
    <path
       style="fill:#000000;fill-opacity:1;stroke:#000000;stroke-width:1;stroke-linecap:butt;stroke-linejoin:round;stroke-miterlimit:4;stroke-dasharray:none;stroke-dashoffset:0;stroke-opacity:1;paint-order:normal"
       d="m 154.72875,100.84595 3.96875,-6.142134"
       id="path5075-2"
       inkscape:connector-curvature="0" />
    <path
       style="fill:#000000;fill-opacity:1;stroke:#000000;stroke-width:1;stroke-linecap:butt;stroke-linejoin:round;stroke-miterlimit:4;stroke-dasharray:none;stroke-dashoffset:0;stroke-opacity:1;paint-order:normal"
       d="m 145.06034,88.428644 7.84417,-7.612107"
       id="path5075-8"
       inkscape:connector-curvature="0"
       sodipodi:nodetypes="cc" />
    <path
       style="fill:#000000;fill-opacity:1;stroke:#000000;stroke-width:1;stroke-linecap:butt;stroke-linejoin:round;stroke-miterlimit:4;stroke-dasharray:none;stroke-dashoffset:0;stroke-opacity:1;paint-order:normal"
       d="m 159.81322,88.29501 -6.90871,-7.478473"
       id="path5075-4-9"
       inkscape:connector-curvature="0"
       sodipodi:nodetypes="cc" />
    <path
       style="fill:#ffcc00;fill-opacity:1;stroke:#ffcc00;stroke-width:1;stroke-linecap:butt;stroke-linejoin:round;stroke-miterlimit:4;stroke-dasharray:none;stroke-dashoffset:0;stroke-opacity:1;paint-order:normal"
       id="path4920-75-8-1-3"
       sodipodi:type="arc"
       sodipodi:cx="152.77092"
       sodipodi:cy="77.334076"
       sodipodi:rx="2.6726952"
       sodipodi:ry="2.6726952"
       sodipodi:start="0.92998298"
       sodipodi:end="0.90224447"
       d="m 154.36878,79.476534 a 2.6726952,2.6726952 0 0 1 -3.72919,-0.529775 2.6726952,2.6726952 0 0 1 0.50391,-3.732775 2.6726952,2.6726952 0 0 1 3.73618,0.478005 2.6726952,2.6726952 0 0 1 -0.45209,3.739405 l -1.65667,-2.097318 z" />
    <path
       style="fill:#0000ff;fill-opacity:1;stroke:#0000ff;stroke-width:1;stroke-linecap:butt;stroke-linejoin:round;stroke-miterlimit:4;stroke-dasharray:none;stroke-dashoffset:0;stroke-opacity:1;paint-order:normal"
       id="path4920-75-6"
       sodipodi:type="arc"
       sodipodi:cx="118.9613"
       sodipodi:cy="104.04223"
       sodipodi:rx="2.6726952"
       sodipodi:ry="2.6726952"
       sodipodi:start="0.92998298"
       sodipodi:end="0.90224447"
       d="m 120.55917,106.18469 a 2.6726952,2.6726952 0 0 1 -3.72919,-0.52978 2.6726952,2.6726952 0 0 1 0.5039,-3.73277 2.6726952,2.6726952 0 0 1 3.73618,0.478 2.6726952,2.6726952 0 0 1 -0.45209,3.73941 l -1.65667,-2.09732 z" />
    <path
       style="fill:#000000;fill-opacity:1;stroke:#000000;stroke-width:1;stroke-linecap:butt;stroke-linejoin:round;stroke-miterlimit:4;stroke-dasharray:none;stroke-dashoffset:0;stroke-opacity:1;paint-order:normal"
       d="m 119.52284,100.72335 3.96875,-6.142134"
       id="path5075-80"
       inkscape:connector-curvature="0" />
    <path
       style="fill:#000000;fill-opacity:1;stroke:#000000;stroke-width:1;stroke-linecap:butt;stroke-linejoin:round;stroke-miterlimit:4;stroke-dasharray:none;stroke-dashoffset:0;stroke-opacity:1;paint-order:normal"
       d="m 127.46034,100.72335 -3.96875,-6.142134"
       id="path5075-4-2"
       inkscape:connector-curvature="0" />
    <path
       style="fill:#ffcc00;fill-opacity:1;stroke:#ffcc00;stroke-width:1;stroke-linecap:butt;stroke-linejoin:round;stroke-miterlimit:4;stroke-dasharray:none;stroke-dashoffset:0;stroke-opacity:1;paint-order:normal"
       id="path4920-75-8-10"
       sodipodi:type="arc"
       sodipodi:cx="123.39714"
       sodipodi:cy="90.943161"
       sodipodi:rx="2.6726952"
       sodipodi:ry="2.6726952"
       sodipodi:start="0.92998298"
       sodipodi:end="0.90224447"
       d="m 124.995,93.08562 a 2.6726952,2.6726952 0 0 1 -3.72919,-0.529776 2.6726952,2.6726952 0 0 1 0.50391,-3.732775 2.6726952,2.6726952 0 0 1 3.73618,0.478005 2.6726952,2.6726952 0 0 1 -0.45209,3.739405 l -1.65667,-2.097318 z" />
    <path
       style="fill:#0000ff;fill-opacity:1;stroke:#0000ff;stroke-width:1;stroke-linecap:butt;stroke-linejoin:round;stroke-miterlimit:4;stroke-dasharray:none;stroke-dashoffset:0;stroke-opacity:1;paint-order:normal"
       id="path4920-75-5"
       sodipodi:type="arc"
       sodipodi:cx="131.8071"
       sodipodi:cy="90.943161"
       sodipodi:rx="2.6726952"
       sodipodi:ry="2.6726952"
       sodipodi:start="0.92998298"
       sodipodi:end="0.90224447"
       d="m 133.40496,93.08562 a 2.6726952,2.6726952 0 0 1 -3.72919,-0.529776 2.6726952,2.6726952 0 0 1 0.5039,-3.732775 2.6726952,2.6726952 0 0 1 3.73618,0.478005 2.6726952,2.6726952 0 0 1 -0.45208,3.739405 l -1.65667,-2.097318 z" />
    <path
       style="fill:#000000;fill-opacity:1;stroke:#000000;stroke-width:1;stroke-linecap:butt;stroke-linejoin:round;stroke-miterlimit:4;stroke-dasharray:none;stroke-dashoffset:0;stroke-opacity:1;paint-order:normal"
       d="m 123.96406,87.210694 3.96876,-6.14213"
       id="path5075-1"
       inkscape:connector-curvature="0" />
    <path
       style="fill:#000000;fill-opacity:1;stroke:#000000;stroke-width:1;stroke-linecap:butt;stroke-linejoin:round;stroke-miterlimit:4;stroke-dasharray:none;stroke-dashoffset:0;stroke-opacity:1;paint-order:normal"
       d="m 131.90157,87.210694 -3.96875,-6.14213"
       id="path5075-4-1"
       inkscape:connector-curvature="0" />
    <path
       style="fill:#ffcc00;fill-opacity:1;stroke:#ffcc00;stroke-width:1;stroke-linecap:butt;stroke-linejoin:round;stroke-miterlimit:4;stroke-dasharray:none;stroke-dashoffset:0;stroke-opacity:1;paint-order:normal"
       id="path4920-75-8-1-3-0"
       sodipodi:type="arc"
       sodipodi:cx="127.74387"
       sodipodi:cy="77.525002"
       sodipodi:rx="2.6726952"
       sodipodi:ry="2.6726952"
       sodipodi:start="0.92998298"
       sodipodi:end="0.90224447"
       d="m 129.34174,79.66746 a 2.6726952,2.6726952 0 0 1 -3.72919,-0.529775 2.6726952,2.6726952 0 0 1 0.5039,-3.732775 2.6726952,2.6726952 0 0 1 3.73618,0.478005 2.6726952,2.6726952 0 0 1 -0.45209,3.739404 l -1.65667,-2.097317 z" />
  </g>
</svg>
