<?xml version="1.0" encoding="utf-8" standalone="no" ?>
<!DOCTYPE svg PUBLIC "-//W3C//DTD SVG 1.1//EN" "http://www.w3.org/Graphics/SVG/1.1/DTD/svg11.dtd"
[
	<!ENTITY tex-scale  "scale(1.7)">
	<!ENTITY grid-width  "0.25">
	<!ENTITY grid-width0 "1.0">
	<!ENTITY X_0 "-351">
	<!ENTITY Y_0 "-266">
]>
<svg version="1.1"
	xmlns="http://www.w3.org/2000/svg"
	xmlns:xlink="http://www.w3.org/1999/xlink"
	viewBox="&X_0; &Y_0; 670 470"
	width="670" height="470"
>

<title>si and cos functions</title>
<desc>
	The Extrema (small white Dots) of the red Function
	si(x) = sin(x)/x coincide with its Intersections with
	the blue Cosine Function cos(x).

	From Wikimedia Commons.

	Plotted with cubic Bézier-Curves.
	Symbols in "Computer Modern" (TeX) Font embedded.
	Created with a plain Text Editor.

	About: http://commons.wikimedia.org/wiki/Image:Si_cos.svg
	Source: http://commons.wikimedia.org/
	Rights: GNU Free Documentation License,
	Creative Commons Attribution ShareAlike License.
</desc>

<defs>

<path id="_1" d="M 2.328125 -4.4375 C 2.328125 -4.625 2.328125 -4.625 2.125 -4.625 C 1.671875 -4.1875 1.046875 -4.1875 0.765625 -4.1875 L 0.765625 -3.9375 C 0.921875 -3.9375 1.390625 -3.9375 1.765625 -4.125 L 1.765625 -0.578125 C 1.765625 -0.34375 1.765625 -0.25 1.078125 -0.25 L 0.8125 -0.25 L 0.8125 0 C 0.9375 0 1.796875 -0.03125 2.046875 -0.03125 C 2.265625 -0.03125 3.140625 0 3.296875 0 L 3.296875 -0.25 L 3.03125 -0.25 C 2.328125 -0.25 2.328125 -0.34375 2.328125 -0.578125 Z M 2.328125 -4.4375 "/>
<path id="_2" d="M 3.515625 -1.265625 L 3.28125 -1.265625 C 3.265625 -1.109375 3.1875 -0.703125 3.09375 -0.640625 C 3.046875 -0.59375 2.515625 -0.59375 2.40625 -0.59375 L 1.125 -0.59375 C 1.859375 -1.234375 2.109375 -1.4375 2.515625 -1.765625 C 3.03125 -2.171875 3.515625 -2.609375 3.515625 -3.265625 C 3.515625 -4.109375 2.78125 -4.625 1.890625 -4.625 C 1.03125 -4.625 0.4375 -4.015625 0.4375 -3.375 C 0.4375 -3.03125 0.734375 -2.984375 0.8125 -2.984375 C 0.96875 -2.984375 1.171875 -3.109375 1.171875 -3.359375 C 1.171875 -3.484375 1.125 -3.734375 0.765625 -3.734375 C 0.984375 -4.21875 1.453125 -4.375 1.78125 -4.375 C 2.484375 -4.375 2.84375 -3.828125 2.84375 -3.265625 C 2.84375 -2.65625 2.40625 -2.1875 2.1875 -1.9375 L 0.515625 -0.265625 C 0.4375 -0.203125 0.4375 -0.1875 0.4375 0 L 3.3125 0 Z M 3.515625 -1.265625 "/>
<path id="_3" d="M 1.90625 -2.328125 C 2.453125 -2.328125 2.84375 -1.953125 2.84375 -1.203125 C 2.84375 -0.34375 2.328125 -0.078125 1.9375 -0.078125 C 1.65625 -0.078125 1.03125 -0.15625 0.75 -0.578125 C 1.078125 -0.578125 1.15625 -0.8125 1.15625 -0.96875 C 1.15625 -1.1875 0.984375 -1.34375 0.765625 -1.34375 C 0.578125 -1.34375 0.375 -1.21875 0.375 -0.9375 C 0.375 -0.28125 1.09375 0.140625 1.9375 0.140625 C 2.90625 0.140625 3.578125 -0.515625 3.578125 -1.203125 C 3.578125 -1.75 3.140625 -2.296875 2.375 -2.453125 C 3.09375 -2.71875 3.359375 -3.234375 3.359375 -3.671875 C 3.359375 -4.21875 2.734375 -4.625 1.953125 -4.625 C 1.1875 -4.625 0.59375 -4.25 0.59375 -3.6875 C 0.59375 -3.453125 0.75 -3.328125 0.953125 -3.328125 C 1.171875 -3.328125 1.3125 -3.484375 1.3125 -3.671875 C 1.3125 -3.875 1.171875 -4.03125 0.953125 -4.046875 C 1.203125 -4.34375 1.671875 -4.421875 1.9375 -4.421875 C 2.25 -4.421875 2.6875 -4.265625 2.6875 -3.671875 C 2.6875 -3.375 2.59375 -3.046875 2.40625 -2.84375 C 2.1875 -2.578125 1.984375 -2.5625 1.640625 -2.53125 C 1.46875 -2.515625 1.453125 -2.515625 1.421875 -2.515625 C 1.40625 -2.515625 1.34375 -2.5 1.34375 -2.421875 C 1.34375 -2.328125 1.40625 -2.328125 1.53125 -2.328125 Z M 1.90625 -2.328125 "/>
<path id="_5" d="M 1.078125 -3.890625 C 1.4375 -3.796875 1.640625 -3.796875 1.75 -3.796875 C 2.671875 -3.796875 3.21875 -4.421875 3.21875 -4.53125 C 3.21875 -4.609375 3.171875 -4.625 3.140625 -4.625 C 3.125 -4.625 3.109375 -4.625 3.078125 -4.609375 C 2.90625 -4.546875 2.546875 -4.40625 2.03125 -4.40625 C 1.828125 -4.40625 1.46875 -4.421875 1.015625 -4.59375 C 0.9375 -4.625 0.921875 -4.625 0.921875 -4.625 C 0.828125 -4.625 0.828125 -4.546875 0.828125 -4.4375 L 0.828125 -2.390625 C 0.828125 -2.265625 0.828125 -2.1875 0.9375 -2.1875 C 1 -2.1875 1.015625 -2.1875 1.078125 -2.28125 C 1.375 -2.65625 1.8125 -2.71875 2.046875 -2.71875 C 2.46875 -2.71875 2.65625 -2.390625 2.6875 -2.328125 C 2.8125 -2.09375 2.859375 -1.828125 2.859375 -1.421875 C 2.859375 -1.21875 2.859375 -0.8125 2.640625 -0.5 C 2.46875 -0.25 2.171875 -0.078125 1.828125 -0.078125 C 1.375 -0.078125 0.90625 -0.328125 0.734375 -0.796875 C 1 -0.78125 1.140625 -0.953125 1.140625 -1.140625 C 1.140625 -1.4375 0.875 -1.484375 0.78125 -1.484375 C 0.78125 -1.484375 0.4375 -1.484375 0.4375 -1.109375 C 0.4375 -0.484375 1.015625 0.140625 1.84375 0.140625 C 2.734375 0.140625 3.515625 -0.515625 3.515625 -1.40625 C 3.515625 -2.1875 2.921875 -2.90625 2.0625 -2.90625 C 1.75 -2.90625 1.390625 -2.84375 1.078125 -2.578125 Z M 1.078125 -3.890625 "/>
<path id="_9" d="M 2.90625 -2.078125 C 2.90625 -0.34375 2.0625 -0.078125 1.640625 -0.078125 C 1.484375 -0.078125 1.109375 -0.09375 0.921875 -0.3125 C 1.21875 -0.34375 1.234375 -0.578125 1.234375 -0.640625 C 1.234375 -0.8125 1.109375 -0.96875 0.90625 -0.96875 C 0.703125 -0.96875 0.578125 -0.828125 0.578125 -0.625 C 0.578125 -0.15625 0.96875 0.140625 1.640625 0.140625 C 2.640625 0.140625 3.578125 -0.796875 3.578125 -2.296875 C 3.578125 -4.015625 2.8125 -4.625 2 -4.625 C 1.765625 -4.625 1.296875 -4.59375 0.890625 -4.203125 C 0.65625 -3.96875 0.375 -3.703125 0.375 -3.078125 C 0.375 -2.1875 1.078125 -1.53125 1.890625 -1.53125 C 2.453125 -1.53125 2.75 -1.90625 2.90625 -2.21875 Z M 1.9375 -1.734375 C 1.65625 -1.734375 1.40625 -1.8125 1.203125 -2.140625 C 1.046875 -2.390625 1.046875 -2.6875 1.046875 -3.078125 C 1.046875 -3.484375 1.046875 -3.75 1.25 -4.03125 C 1.421875 -4.28125 1.640625 -4.421875 2 -4.421875 C 2.359375 -4.421875 2.578125 -4.203125 2.6875 -4.015625 C 2.875 -3.734375 2.890625 -3.234375 2.890625 -3 C 2.890625 -2.09375 2.375 -1.734375 1.9375 -1.734375 Z M 1.9375 -1.734375 "/>
<path id="_pi" d="M 2.171875 -2.53125 L 3 -2.53125 C 2.890625 -2.109375 2.734375 -1.484375 2.734375 -0.921875 C 2.734375 -0.640625 2.78125 -0.453125 2.8125 -0.3125 C 2.921875 0.046875 3.015625 0.0625 3.125 0.0625 C 3.296875 0.0625 3.453125 -0.078125 3.453125 -0.25 C 3.453125 -0.296875 3.4375 -0.328125 3.40625 -0.390625 C 3.265625 -0.65625 3.140625 -1.046875 3.140625 -1.625 C 3.140625 -1.75 3.140625 -2.03125 3.234375 -2.53125 L 4.109375 -2.53125 C 4.234375 -2.53125 4.296875 -2.53125 4.375 -2.578125 C 4.46875 -2.65625 4.484375 -2.765625 4.484375 -2.796875 C 4.484375 -3 4.3125 -3 4.1875 -3 L 1.5625 -3 C 1.28125 -3 1.078125 -2.9375 0.765625 -2.640625 C 0.578125 -2.484375 0.3125 -2.109375 0.3125 -2.046875 C 0.3125 -1.96875 0.40625 -1.96875 0.4375 -1.96875 C 0.515625 -1.96875 0.515625 -1.984375 0.5625 -2.046875 C 0.90625 -2.53125 1.34375 -2.53125 1.5 -2.53125 L 1.921875 -2.53125 C 1.703125 -1.765625 1.328125 -0.9375 1.125 -0.515625 C 1.078125 -0.4375 1.015625 -0.28125 0.984375 -0.265625 C 0.984375 -0.234375 0.96875 -0.203125 0.96875 -0.15625 C 0.96875 -0.046875 1.046875 0.0625 1.21875 0.0625 C 1.484375 0.0625 1.5625 -0.25 1.734375 -0.875 Z M 2.171875 -2.53125 "/>

<path id="d0" d="M 4.578125 -3.1875 C 4.578125 -3.984375 4.53125 -4.78125 4.1875 -5.515625 C 3.734375 -6.484375 2.90625 -6.640625 2.5 -6.640625 C 1.890625 -6.640625 1.171875 -6.375 0.75 -5.453125 C 0.4375 -4.765625 0.390625 -3.984375 0.390625 -3.1875 C 0.390625 -2.4375 0.421875 -1.546875 0.84375 -0.78125 C 1.265625 0.015625 2 0.21875 2.484375 0.21875 C 3.015625 0.21875 3.78125 0.015625 4.21875 -0.9375 C 4.53125 -1.625 4.578125 -2.40625 4.578125 -3.1875 Z M 2.484375 0 C 2.09375 0 1.5 -0.25 1.328125 -1.203125 C 1.21875 -1.796875 1.21875 -2.71875 1.21875 -3.3125 C 1.21875 -3.953125 1.21875 -4.609375 1.296875 -5.140625 C 1.484375 -6.328125 2.234375 -6.421875 2.484375 -6.421875 C 2.8125 -6.421875 3.46875 -6.234375 3.65625 -5.25 C 3.765625 -4.6875 3.765625 -3.9375 3.765625 -3.3125 C 3.765625 -2.5625 3.765625 -1.890625 3.65625 -1.25 C 3.5 -0.296875 2.9375 0 2.484375 0 Z M 2.484375 0 "/>
<path id="d1" d="M 2.9375 -6.375 C 2.9375 -6.625 2.9375 -6.640625 2.703125 -6.640625 C 2.078125 -6 1.203125 -6 0.890625 -6 L 0.890625 -5.6875 C 1.09375 -5.6875 1.671875 -5.6875 2.1875 -5.953125 L 2.1875 -0.78125 C 2.1875 -0.421875 2.15625 -0.3125 1.265625 -0.3125 L 0.953125 -0.3125 L 0.953125 0 C 1.296875 -0.03125 2.15625 -0.03125 2.5625 -0.03125 C 2.953125 -0.03125 3.828125 -0.03125 4.171875 0 L 4.171875 -0.3125 L 3.859375 -0.3125 C 2.953125 -0.3125 2.9375 -0.421875 2.9375 -0.78125 L 2.9375 -6.375 Z M 2.9375 -6.375 "/>
<path id="d2" d="M 4.46875 -1.734375 L 4.234375 -1.734375 C 4.171875 -1.4375 4.109375 -1 4 -0.84375 C 3.9375 -0.765625 3.28125 -0.765625 3.0625 -0.765625 L 1.265625 -0.765625 L 2.328125 -1.796875 C 3.875 -3.171875 4.46875 -3.703125 4.46875 -4.703125 C 4.46875 -5.84375 3.578125 -6.640625 2.359375 -6.640625 C 1.234375 -6.640625 0.5 -5.71875 0.5 -4.828125 C 0.5 -4.28125 1 -4.28125 1.03125 -4.28125 C 1.203125 -4.28125 1.546875 -4.390625 1.546875 -4.8125 C 1.546875 -5.0625 1.359375 -5.328125 1.015625 -5.328125 C 0.9375 -5.328125 0.921875 -5.328125 0.890625 -5.3125 C 1.109375 -5.96875 1.65625 -6.328125 2.234375 -6.328125 C 3.140625 -6.328125 3.5625 -5.515625 3.5625 -4.703125 C 3.5625 -3.90625 3.078125 -3.125 2.515625 -2.5 L 0.609375 -0.375 C 0.5 -0.265625 0.5 -0.234375 0.5 0 L 4.203125 0 L 4.46875 -1.734375 Z M 4.46875 -1.734375 "/>
<path id="d4" d="M 2.9375 -1.640625 L 2.9375 -0.78125 C 2.9375 -0.421875 2.90625 -0.3125 2.171875 -0.3125 L 1.96875 -0.3125 L 1.96875 0 C 2.375 -0.03125 2.890625 -0.03125 3.3125 -0.03125 C 3.734375 -0.03125 4.25 -0.03125 4.671875 0 L 4.671875 -0.3125 L 4.453125 -0.3125 C 3.71875 -0.3125 3.703125 -0.421875 3.703125 -0.78125 L 3.703125 -1.640625 L 4.6875 -1.640625 L 4.6875 -1.953125 L 3.703125 -1.953125 L 3.703125 -6.484375 C 3.703125 -6.6875 3.703125 -6.75 3.53125 -6.75 C 3.453125 -6.75 3.421875 -6.75 3.34375 -6.625 L 0.28125 -1.953125 L 0.28125 -1.640625 Z M 2.984375 -1.953125 L 0.5625 -1.953125 L 2.984375 -5.671875 Z M 2.984375 -1.953125 "/>
<path id="d5" d="M 4.46875 -2 C 4.46875 -3.1875 3.65625 -4.1875 2.578125 -4.1875 C 2.109375 -4.1875 1.671875 -4.03125 1.3125 -3.671875 L 1.3125 -5.625 C 1.515625 -5.5625 1.84375 -5.5 2.15625 -5.5 C 3.390625 -5.5 4.09375 -6.40625 4.09375 -6.53125 C 4.09375 -6.59375 4.0625 -6.640625 3.984375 -6.640625 C 3.984375 -6.640625 3.953125 -6.640625 3.90625 -6.609375 C 3.703125 -6.515625 3.21875 -6.3125 2.546875 -6.3125 C 2.15625 -6.3125 1.6875 -6.390625 1.21875 -6.59375 C 1.140625 -6.625 1.125 -6.625 1.109375 -6.625 C 1 -6.625 1 -6.546875 1 -6.390625 L 1 -3.4375 C 1 -3.265625 1 -3.1875 1.140625 -3.1875 C 1.21875 -3.1875 1.234375 -3.203125 1.28125 -3.265625 C 1.390625 -3.421875 1.75 -3.96875 2.5625 -3.96875 C 3.078125 -3.96875 3.328125 -3.515625 3.40625 -3.328125 C 3.5625 -2.953125 3.59375 -2.578125 3.59375 -2.078125 C 3.59375 -1.71875 3.59375 -1.125 3.34375 -0.703125 C 3.109375 -0.3125 2.734375 -0.0625 2.28125 -0.0625 C 1.5625 -0.0625 0.984375 -0.59375 0.8125 -1.171875 C 0.84375 -1.171875 0.875 -1.15625 0.984375 -1.15625 C 1.3125 -1.15625 1.484375 -1.40625 1.484375 -1.640625 C 1.484375 -1.890625 1.3125 -2.140625 0.984375 -2.140625 C 0.84375 -2.140625 0.5 -2.0625 0.5 -1.609375 C 0.5 -0.75 1.1875 0.21875 2.296875 0.21875 C 3.453125 0.21875 4.46875 -0.734375 4.46875 -2 Z M 4.46875 -2 "/>
<path id="d6" d="M 1.3125 -3.265625 L 1.3125 -3.515625 C 1.3125 -6.03125 2.546875 -6.390625 3.0625 -6.390625 C 3.296875 -6.390625 3.71875 -6.328125 3.9375 -5.984375 C 3.78125 -5.984375 3.390625 -5.984375 3.390625 -5.546875 C 3.390625 -5.234375 3.625 -5.078125 3.84375 -5.078125 C 4 -5.078125 4.3125 -5.171875 4.3125 -5.5625 C 4.3125 -6.15625 3.875 -6.640625 3.046875 -6.640625 C 1.765625 -6.640625 0.421875 -5.359375 0.421875 -3.15625 C 0.421875 -0.484375 1.578125 0.21875 2.5 0.21875 C 3.609375 0.21875 4.5625 -0.71875 4.5625 -2.03125 C 4.5625 -3.296875 3.671875 -4.25 2.5625 -4.25 C 1.890625 -4.25 1.515625 -3.75 1.3125 -3.265625 Z M 2.5 -0.0625 C 1.875 -0.0625 1.578125 -0.65625 1.515625 -0.8125 C 1.328125 -1.28125 1.328125 -2.078125 1.328125 -2.25 C 1.328125 -3.03125 1.65625 -4.03125 2.546875 -4.03125 C 2.71875 -4.03125 3.171875 -4.03125 3.484375 -3.40625 C 3.65625 -3.046875 3.65625 -2.53125 3.65625 -2.046875 C 3.65625 -1.5625 3.65625 -1.0625 3.484375 -0.703125 C 3.1875 -0.109375 2.734375 -0.0625 2.5 -0.0625 Z M 2.5 -0.0625 "/>

<path id="minus" d="M 6.59375 -2.296875 C 6.734375 -2.296875 6.921875 -2.296875 6.921875 -2.5 C 6.921875 -2.6875 6.734375 -2.6875 6.59375 -2.6875 L 1.15625 -2.6875 C 1.015625 -2.6875 0.828125 -2.6875 0.828125 -2.5 C 0.828125 -2.296875 1.015625 -2.296875 1.15625 -2.296875 L 6.59375 -2.296875 Z M 6.59375 -2.296875 "/>
<path id="lparen" d="M 3.296875 2.390625 C 3.296875 2.359375 3.296875 2.34375 3.125 2.171875 C 1.890625 0.921875 1.5625 -0.96875 1.5625 -2.5 C 1.5625 -4.234375 1.9375 -5.96875 3.171875 -7.203125 C 3.296875 -7.328125 3.296875 -7.34375 3.296875 -7.375 C 3.296875 -7.453125 3.265625 -7.484375 3.203125 -7.484375 C 3.09375 -7.484375 2.203125 -6.796875 1.609375 -5.53125 C 1.109375 -4.4375 0.984375 -3.328125 0.984375 -2.5 C 0.984375 -1.71875 1.09375 -0.515625 1.640625 0.625 C 2.25 1.84375 3.09375 2.5 3.203125 2.5 C 3.265625 2.5 3.296875 2.46875 3.296875 2.390625 Z M 3.296875 2.390625 "/>
<path id="rparen" d="M 2.875 -2.5 C 2.875 -3.265625 2.765625 -4.46875 2.21875 -5.609375 C 1.625 -6.828125 0.765625 -7.484375 0.671875 -7.484375 C 0.609375 -7.484375 0.5625 -7.4375 0.5625 -7.375 C 0.5625 -7.34375 0.5625 -7.328125 0.75 -7.140625 C 1.734375 -6.15625 2.296875 -4.578125 2.296875 -2.5 C 2.296875 -0.78125 1.9375 0.96875 0.703125 2.21875 C 0.5625 2.34375 0.5625 2.359375 0.5625 2.390625 C 0.5625 2.453125 0.609375 2.5 0.671875 2.5 C 0.765625 2.5 1.671875 1.8125 2.25 0.546875 C 2.765625 -0.546875 2.875 -1.65625 2.875 -2.5 Z M 2.875 -2.5 "/>
<path id="dot" d="M 1.90625 -0.53125 C 1.90625 -0.8125 1.671875 -1.0625 1.390625 -1.0625 C 1.09375 -1.0625 0.859375 -0.8125 0.859375 -0.53125 C 0.859375 -0.234375 1.09375 0 1.390625 0 C 1.671875 0 1.90625 -0.234375 1.90625 -0.53125 Z M 1.90625 -0.53125 "/>

<path id="it-x" d="M 3.328125 -3.015625 C 3.390625 -3.265625 3.625 -4.1875 4.3125 -4.1875 C 4.359375 -4.1875 4.609375 -4.1875 4.8125 -4.0625 C 4.53125 -4 4.34375 -3.765625 4.34375 -3.515625 C 4.34375 -3.359375 4.453125 -3.171875 4.71875 -3.171875 C 4.9375 -3.171875 5.25 -3.34375 5.25 -3.75 C 5.25 -4.265625 4.671875 -4.40625 4.328125 -4.40625 C 3.75 -4.40625 3.40625 -3.875 3.28125 -3.65625 C 3.03125 -4.3125 2.5 -4.40625 2.203125 -4.40625 C 1.171875 -4.40625 0.59375 -3.125 0.59375 -2.875 C 0.59375 -2.765625 0.703125 -2.765625 0.71875 -2.765625 C 0.796875 -2.765625 0.828125 -2.796875 0.84375 -2.875 C 1.1875 -3.9375 1.84375 -4.1875 2.1875 -4.1875 C 2.375 -4.1875 2.71875 -4.09375 2.71875 -3.515625 C 2.71875 -3.203125 2.546875 -2.546875 2.1875 -1.140625 C 2.03125 -0.53125 1.671875 -0.109375 1.234375 -0.109375 C 1.171875 -0.109375 0.953125 -0.109375 0.734375 -0.234375 C 0.984375 -0.296875 1.203125 -0.5 1.203125 -0.78125 C 1.203125 -1.046875 0.984375 -1.125 0.84375 -1.125 C 0.53125 -1.125 0.296875 -0.875 0.296875 -0.546875 C 0.296875 -0.09375 0.78125 0.109375 1.21875 0.109375 C 1.890625 0.109375 2.25 -0.59375 2.265625 -0.640625 C 2.390625 -0.28125 2.75 0.109375 3.34375 0.109375 C 4.375 0.109375 4.9375 -1.171875 4.9375 -1.421875 C 4.9375 -1.53125 4.859375 -1.53125 4.828125 -1.53125 C 4.734375 -1.53125 4.71875 -1.484375 4.6875 -1.421875 C 4.359375 -0.34375 3.6875 -0.109375 3.375 -0.109375 C 2.984375 -0.109375 2.828125 -0.421875 2.828125 -0.765625 C 2.828125 -0.984375 2.875 -1.203125 2.984375 -1.640625 L 3.328125 -3.015625 Z M 3.328125 -3.015625 "/>
<path id="pi" d="M 2.640625 -3.71875 L 3.765625 -3.71875 C 3.4375 -2.25 3.34375 -1.8125 3.34375 -1.140625 C 3.34375 -1 3.34375 -0.734375 3.421875 -0.390625 C 3.53125 0.046875 3.640625 0.109375 3.78125 0.109375 C 3.984375 0.109375 4.203125 -0.0625 4.203125 -0.265625 C 4.203125 -0.328125 4.203125 -0.34375 4.140625 -0.484375 C 3.84375 -1.203125 3.84375 -1.859375 3.84375 -2.140625 C 3.84375 -2.65625 3.921875 -3.203125 4.03125 -3.71875 L 5.15625 -3.71875 C 5.296875 -3.71875 5.65625 -3.71875 5.65625 -4.0625 C 5.65625 -4.296875 5.4375 -4.296875 5.25 -4.296875 L 1.90625 -4.296875 C 1.6875 -4.296875 1.3125 -4.296875 0.875 -3.828125 C 0.53125 -3.4375 0.265625 -2.984375 0.265625 -2.9375 C 0.265625 -2.921875 0.265625 -2.828125 0.390625 -2.828125 C 0.46875 -2.828125 0.484375 -2.875 0.546875 -2.953125 C 1.03125 -3.71875 1.609375 -3.71875 1.8125 -3.71875 L 2.375 -3.71875 C 2.0625 -2.515625 1.53125 -1.3125 1.109375 -0.40625 C 1.03125 -0.25 1.03125 -0.234375 1.03125 -0.15625 C 1.03125 0.03125 1.1875 0.109375 1.3125 0.109375 C 1.609375 0.109375 1.6875 -0.171875 1.8125 -0.53125 C 1.953125 -1 1.953125 -1.015625 2.078125 -1.515625 Z M 2.640625 -3.71875 "/>
<path id="c" d="M 1.171875 -2.171875 C 1.171875 -3.796875 1.984375 -4.21875 2.515625 -4.21875 C 2.609375 -4.21875 3.234375 -4.203125 3.578125 -3.84375 C 3.171875 -3.8125 3.109375 -3.515625 3.109375 -3.390625 C 3.109375 -3.125 3.296875 -2.9375 3.5625 -2.9375 C 3.828125 -2.9375 4.03125 -3.09375 4.03125 -3.40625 C 4.03125 -4.078125 3.265625 -4.46875 2.5 -4.46875 C 1.25 -4.46875 0.34375 -3.390625 0.34375 -2.15625 C 0.34375 -0.875 1.328125 0.109375 2.484375 0.109375 C 3.8125 0.109375 4.140625 -1.09375 4.140625 -1.1875 C 4.140625 -1.28125 4.03125 -1.28125 4 -1.28125 C 3.921875 -1.28125 3.890625 -1.25 3.875 -1.1875 C 3.59375 -0.265625 2.9375 -0.140625 2.578125 -0.140625 C 2.046875 -0.140625 1.171875 -0.5625 1.171875 -2.171875 Z M 1.171875 -2.171875 "/>
<path id="o" d="M 4.6875 -2.140625 C 4.6875 -3.40625 3.703125 -4.46875 2.5 -4.46875 C 1.25 -4.46875 0.28125 -3.375 0.28125 -2.140625 C 0.28125 -0.84375 1.3125 0.109375 2.484375 0.109375 C 3.6875 0.109375 4.6875 -0.875 4.6875 -2.140625 Z M 2.5 -0.140625 C 2.0625 -0.140625 1.625 -0.34375 1.359375 -0.8125 C 1.109375 -1.25 1.109375 -1.859375 1.109375 -2.21875 C 1.109375 -2.609375 1.109375 -3.140625 1.34375 -3.578125 C 1.609375 -4.03125 2.078125 -4.25 2.484375 -4.25 C 2.921875 -4.25 3.34375 -4.03125 3.609375 -3.59375 C 3.875 -3.171875 3.875 -2.59375 3.875 -2.21875 C 3.875 -1.859375 3.875 -1.3125 3.65625 -0.875 C 3.421875 -0.421875 2.984375 -0.140625 2.5 -0.140625 Z M 2.5 -0.140625 "/>
<path id="s" d="M 2.078125 -1.9375 C 2.296875 -1.890625 3.109375 -1.734375 3.109375 -1.015625 C 3.109375 -0.515625 2.765625 -0.109375 1.984375 -0.109375 C 1.140625 -0.109375 0.78125 -0.671875 0.59375 -1.53125 C 0.5625 -1.65625 0.5625 -1.6875 0.453125 -1.6875 C 0.328125 -1.6875 0.328125 -1.625 0.328125 -1.453125 L 0.328125 -0.125 C 0.328125 0.046875 0.328125 0.109375 0.4375 0.109375 C 0.484375 0.109375 0.5 0.09375 0.6875 -0.09375 C 0.703125 -0.109375 0.703125 -0.125 0.890625 -0.3125 C 1.328125 0.09375 1.78125 0.109375 1.984375 0.109375 C 3.125 0.109375 3.59375 -0.5625 3.59375 -1.28125 C 3.59375 -1.796875 3.296875 -2.109375 3.171875 -2.21875 C 2.84375 -2.546875 2.453125 -2.625 2.03125 -2.703125 C 1.46875 -2.8125 0.8125 -2.9375 0.8125 -3.515625 C 0.8125 -3.875 1.0625 -4.28125 1.921875 -4.28125 C 3.015625 -4.28125 3.078125 -3.375 3.09375 -3.078125 C 3.09375 -2.984375 3.1875 -2.984375 3.203125 -2.984375 C 3.34375 -2.984375 3.34375 -3.03125 3.34375 -3.21875 L 3.34375 -4.234375 C 3.34375 -4.390625 3.34375 -4.46875 3.234375 -4.46875 C 3.1875 -4.46875 3.15625 -4.46875 3.03125 -4.34375 C 3 -4.3125 2.90625 -4.21875 2.859375 -4.1875 C 2.484375 -4.46875 2.078125 -4.46875 1.921875 -4.46875 C 0.703125 -4.46875 0.328125 -3.796875 0.328125 -3.234375 C 0.328125 -2.890625 0.484375 -2.609375 0.75 -2.390625 C 1.078125 -2.140625 1.359375 -2.078125 2.078125 -1.9375 Z M 2.078125 -1.9375 "/>
<path id="i" d="M 1.765625 -4.40625 L 0.375 -4.296875 L 0.375 -3.984375 C 1.015625 -3.984375 1.109375 -3.921875 1.109375 -3.4375 L 1.109375 -0.75 C 1.109375 -0.3125 1 -0.3125 0.328125 -0.3125 L 0.328125 0 C 0.640625 -0.015625 1.1875 -0.03125 1.421875 -0.03125 C 1.78125 -0.03125 2.125 -0.015625 2.46875 0 L 2.46875 -0.3125 C 1.796875 -0.3125 1.765625 -0.359375 1.765625 -0.75 Z M 1.796875 -6.140625 C 1.796875 -6.453125 1.5625 -6.671875 1.28125 -6.671875 C 0.96875 -6.671875 0.75 -6.40625 0.75 -6.140625 C 0.75 -5.875 0.96875 -5.609375 1.28125 -5.609375 C 1.5625 -5.609375 1.796875 -5.828125 1.796875 -6.140625 Z M 1.796875 -6.140625 "/>
<path id="n" d="M 1.09375 -3.421875 L 1.09375 -0.75 C 1.09375 -0.3125 0.984375 -0.3125 0.3125 -0.3125 L 0.3125 0 C 0.671875 -0.015625 1.171875 -0.03125 1.453125 -0.03125 C 1.703125 -0.03125 2.21875 -0.015625 2.5625 0 L 2.5625 -0.3125 C 1.890625 -0.3125 1.78125 -0.3125 1.78125 -0.75 L 1.78125 -2.59375 C 1.78125 -3.625 2.5 -4.1875 3.125 -4.1875 C 3.765625 -4.1875 3.875 -3.65625 3.875 -3.078125 L 3.875 -0.75 C 3.875 -0.3125 3.765625 -0.3125 3.09375 -0.3125 L 3.09375 0 C 3.4375 -0.015625 3.953125 -0.03125 4.21875 -0.03125 C 4.46875 -0.03125 5 -0.015625 5.328125 0 L 5.328125 -0.3125 C 4.8125 -0.3125 4.5625 -0.3125 4.5625 -0.609375 L 4.5625 -2.515625 C 4.5625 -3.375 4.5625 -3.671875 4.25 -4.03125 C 4.109375 -4.203125 3.78125 -4.40625 3.203125 -4.40625 C 2.46875 -4.40625 2 -3.984375 1.71875 -3.359375 L 1.71875 -4.40625 L 0.3125 -4.296875 L 0.3125 -3.984375 C 1.015625 -3.984375 1.09375 -3.921875 1.09375 -3.421875 Z M 1.09375 -3.421875 "/>

<path id="leg" d="M0 0 H-16" stroke-width="2" stroke-opacity="0.8"/>
<path id="tick-yl" d="M-8 0 H0" />
<path id="tick-xl" d="M 0 0 V8" />

<path id="x-axis" d="M -220 0 H220" />
<path id="y-axis" d="M 0 120 V-170" />
<path id="y-grid" d="M 0 0 V-170" />

<marker id="fex" refX="0.5" refY="0.5" markerUnits="userSpaceOnUse"
	markerWidth="1" markerHeight="1" orient="auto">
	<!--circle style="stroke:black; stroke-width:0.08; fill:white; fill-opacity:0;"
	r="0.3" cx="0.5" cy="0.5"/-->
	<circle style="stroke:none; fill:white;" r="0.09" cx="0.5" cy="0.5"/>
</marker>
<marker id="xex" refX="0.5" refY="0.5" markerUnits="userSpaceOnUse"
	markerWidth="1.5" markerHeight="1" orient="auto">
	<circle style="stroke:none; fill:#f00" r="0.09" cx="0.5" cy="0.5"/>
</marker>

<style type="text/css">
.ex0 { stroke:white; stroke-width:0.13; marker-end:url(#fex); marker-start:url(#xex);
	   stroke-dasharray:0.13,0.1; }
.ex  { stroke:black; stroke-width:0.1; marker-end:url(#fex); marker-start:url(#xex);
	   stroke-dasharray:0.1,0.13; }
.bar { fill:none; stroke-width:3; stroke:black; }
.C0 { stroke:#04d; }
.C1 { stroke:#e00; }
.axis  {stroke:black; fill:none; stroke-linecap:square;}
.graph {fill:none; stroke-opacity:0.8; stroke-linejoin:round; }
.tick  {fill:none; stroke-width:1; }
.grid-x0   {stroke:black; fill:none; stroke-width:&grid-width0;;}
.grid-y0   {stroke:black; fill:none; stroke-width:&grid-width0;;}
.grid-x    {stroke:black; fill:none; stroke-width:&grid-width;;}
.grid-y-pi  {stroke:#d00; fill:none; stroke-width:&grid-width;;}
.grid-y-pi2 {stroke:#04d; fill:none; stroke-width:&grid-width;;}
</style>

<clipPath id="canvas">
	<path d="M-220 120 H220 V-170 H-220 z" />
</clipPath>

</defs>

<rect fill="white" fill-opacity="0.8" x="&X_0;" y="&Y_0;" width="100%" height="100%"/>

<g transform="scale(1.333)">

<g clip-path="url(#canvas)">
	<g class="grid-y-pi">
		<g id="grid-yu">
			<g id="grid-yur">
				<use x="219.9" xlink:href="#y-grid" />
				<use x="188.5" xlink:href="#y-grid" />
				<use x="157"   xlink:href="#y-grid" />
				<use x="125.7" xlink:href="#y-grid" />
				<use x="94.2"  xlink:href="#y-grid" />
				<use x="62.8"  xlink:href="#y-grid" />
				<use x="31.4"  xlink:href="#y-grid" />
				<use x="0"     xlink:href="#y-grid" />
			</g>
			<use xlink:href="#grid-yur" transform="scale(-1 1)" />
		</g>
	</g>

	<g class="grid-y-pi2" transform="translate(15.708 0) rotate(180)">
		<use xlink:href="#grid-yu" transform="scale(-1 1)" />
		<use x="219.9" xlink:href="#y-grid" />
	</g>
</g>

<use xlink:href="#y-axis" class="grid-y0"/>
<g transform="translate(0 -170)">

<!-- upper x-Axis -->
<g style="stroke:#d00">
	<g id="upper-x-axis">
		<g class="tick">
			<use xlink:href="#tick-xl" x="0" />
			<g id="tick-xlp">
				<use xlink:href="#tick-xl" x="31.4" />
				<use xlink:href="#tick-xl" x="62.8" />
				<use xlink:href="#tick-xl" x="94.2" />
				<use xlink:href="#tick-xl" x="125.7" />
				<use xlink:href="#tick-xl" x="157" />
				<use xlink:href="#tick-xl" x="188.5" />
			</g>
			<use xlink:href="#tick-xlp" transform="scale(-1 1)" />
		</g>
	</g>
	<use xlink:href="#x-axis" class="axis" />
</g>

<g transform="translate (0 -2)">
	<!-- -6 pi -->
	<g transform="translate (-188 0) &tex-scale; translate (-104 -100)">
		<use xlink:href="#minus" x="90.6168" y="96.17"/>
		<use xlink:href="#d6" x="98.36563" y="96.17"/>
		<use xlink:href="#pi" x="103.34688" y="96.17"/>
	</g>
	<!-- -4 pi -->
	<g transform="translate (-125.7 0) &tex-scale; translate (-104 -100)">
		<use xlink:href="#minus" x="90.6168" y="96.17"/>
		<use xlink:href="#d4" x="98.36563" y="96.17"/>
		<use xlink:href="#pi" x="103.34688" y="96.17"/>
	</g>
	<!-- -2 pi -->
	<g transform="translate (-62.8 0) &tex-scale; translate (-104 -100)">
		<use xlink:href="#minus" x="90.6168" y="96.17"/>
		<use xlink:href="#d2" x="98.36563" y="96.17"/>
		<use xlink:href="#pi" x="103.34688" y="96.17"/>
	</g>
	<g transform="translate (0 0) &tex-scale; translate (-102.5 -100)">
	  <use xlink:href="#d0" x="100" y="97"/>
	</g>
	<!-- 2 pi -->
	<g transform="translate (62.8 0) &tex-scale; translate (-100 -100)">
		<use xlink:href="#d2" x="94.49099" y="97.000078"/>
		<use xlink:href="#pi" x="99.47224" y="97.000078"/>
	</g>
	<!-- 4 pi -->
	<g transform="translate (125.7 0) &tex-scale; translate (-100 -100)">
		<use xlink:href="#d4" x="94.49099" y="97.000078"/>
		<use xlink:href="#pi" x="99.47224" y="97.000078"/>
	</g>
	<!-- 6 pi -->
	<g transform="translate (188 0) &tex-scale; translate (-100 -100)">
		<use xlink:href="#d6" x="94.49099" y="97.000078"/>
		<use xlink:href="#pi" x="99.47224" y="97.000078"/>
	</g>
</g>
</g>

<g class="grid-x">
	<use xlink:href="#x-axis" class="grid-x0"/>
	<use y="-20" xlink:href="#x-axis" />
	<use y="20"  xlink:href="#x-axis" />
</g>

<use xlink:href="#grid-yl" transform="scale(-1 1)" />

<g  transform="translate(0 120)">
	<!-- lower x-Axis -->
	<g transform="translate(15.708 0) rotate(180)" style="stroke:#04d">
		<use xlink:href="#upper-x-axis" />
		<use xlink:href="#tick-xl" x="219.9" />
	</g>
	<use xlink:href="#x-axis" class="axis" />

	<!-- x-Labels -->

	<g transform="translate (3 1)">
		<g transform="translate (17 -1) scale(1.05) &tex-scale; translate (-100 -100)">
			<use xlink:href="#_pi" x="94.9961" y="107.4941"/>
			<path class="bar" d="M 949.960938 910.742188 L 989.6875 910.742188 " transform="matrix(0.1,0,0,-0.1,0,200)"/>
			<use xlink:href="#_2" x="94.9961" y="114.8523"/>
		</g>
		<g transform="translate (78.5 0) &tex-scale; translate (-100 -100)">
			<use xlink:href="#_5" x="94.9961" y="107.4941"/>
			<path class="bar" d="M 949.960938 910.742188 L 989.6875 910.742188 " transform="matrix(0.1,0,0,-0.1,0,200)"/>
			<use xlink:href="#_2" x="94.9961" y="114.8523"/>
			<use xlink:href="#pi" x="100" y="111.41675"/>
		</g>
		<g transform="translate (141.4 0) &tex-scale; translate (-100 -100)">
			<use xlink:href="#_9" x="94.9961" y="107.4941"/>
			<path class="bar" d="M 949.960938 910.742188 L 989.6875 910.742188 " transform="matrix(0.1,0,0,-0.1,0,200)"/>
			<use xlink:href="#_2" x="94.9961" y="114.8523"/>
			<use xlink:href="#pi" x="100" y="111.41675"/>
		</g>
		<g transform="translate (204.2 0) &tex-scale; translate (-100 -100)">
			<use xlink:href="#_1" x="93.0105" y="107.4941"/>
			<use xlink:href="#_3" x="96.978621" y="107.4941"/>
			<path class="bar" d="M 930.117188 910.742188 L 1009.53125 910.742188" transform="matrix(0.1,0,0,-0.1,0,200)"/>
			<use xlink:href="#_2" x="94.9961" y="114.8523"/>
			<use xlink:href="#pi" x="102" y="111.41675"/>
		</g>
	</g>
	<g transform="translate (-2 1)">
		<g transform="translate (-16 -1) scale(1.05) &tex-scale; translate (-100 -100)">
			<use xlink:href="#minus" x="89.9262" y="111.4168"/>
			<use xlink:href="#_pi" x="98.87073" y="107.49414"/>
			<path class="bar" d="M 988.710938 910.742188 L 1028.4375 910.742188 " transform="matrix(0.1,0,0,-0.1,0,200)"/>
			<use xlink:href="#_2" x="98.8707" y="114.8523"/>
		</g>
		<g transform="translate (-78.5 0) &tex-scale; translate (-100 -100)">
			<use xlink:href="#minus" x="89.9262" y="111.4168"/>
			<use xlink:href="#_5" x="98.87073" y="107.49414"/>
			<path class="bar" d="M 988.710938 910.742188 L 1028.4375 910.742188 " transform="matrix(0.1,0,0,-0.1,0,200)"/>
			<use xlink:href="#_2" x="98.8707" y="114.8523"/>
			<use xlink:href="#pi" x="104" y="111.41675"/>
		</g>
		<g transform="translate (-141.4 0) &tex-scale; translate (-100 -100)">
			<use xlink:href="#minus" x="89.9262" y="111.4168"/>
			<use xlink:href="#_9" x="98.87073" y="107.49414"/>
			<path class="bar" d="M 988.710938 910.742188 L 1028.4375 910.742188 " transform="matrix(0.1,0,0,-0.1,0,200)"/>
			<use xlink:href="#_2" x="98.8707" y="114.8523"/>
			<use xlink:href="#pi" x="104" y="111.41675"/>
		</g>
		<g transform="translate (-204.2 0) &tex-scale; translate (-100 -100)">
			<use xlink:href="#minus" x="87.9406" y="111.4168"/>
			<use xlink:href="#_1" x="96.88474" y="107.49414"/>
			<use xlink:href="#_3" x="100.852861" y="107.49414"/>
			<path class="bar" d="M 968.867188 910.742188 L 1048.28125 910.742188 " transform="matrix(0.1,0,0,-0.1,0,200)"/>
			<use xlink:href="#_2" x="98.8707" y="114.8523"/>
			<use xlink:href="#pi" x="106" y="111.41675"/>
		</g>
	</g>
</g>

<g transform="scale(10 -10)">
	<!--  t = -7*pi ... 7*pi -->
	<!-- 10 * sin(t)/t -->
	<path class="graph C1" style="stroke-width:0.25"
		d="M -21.9911,0 C -21.7348,0.1166 -21.4721,0.2404 -21.2058,0.3335 C -20.95,0.4227 -20.6926,0.4832 -20.4204,0.4897 C -20.1478,0.4962 -19.892,0.448 -19.635,0.3601 C -19.363,0.2672 -19.1026,0.1342 -18.8496,0 C -18.5953,-0.1349 -18.3307,-0.2813 -18.0642,-0.3914 C -17.812,-0.4956 -17.5535,-0.5695 -17.2788,-0.5787 C -17.0035,-0.588 -16.7474,-0.531 -16.4934,-0.4287 C -16.2188,-0.3181 -15.9565,-0.1582 -15.708,0 C -15.4567,0.16 -15.1891,0.3391 -14.9226,0.4739 C -14.6765,0.5983 -14.4161,0.6934 -14.1372,0.7074 C -13.8573,0.7214 -13.6008,0.6516 -13.3518,0.5296 C -13.073,0.393 -12.8077,0.1921 -12.5664,0 C -12.3187,-0.1971 -12.0469,-0.4271 -11.781,-0.6002 C -11.546,-0.7532 -11.2815,-0.8858 -10.9956,-0.9095 C -10.7075,-0.9333 -10.4503,-0.8425 -10.2102,-0.6926 C -9.9238,-0.5137 -9.6542,-0.2435 -9.4248,0 C -9.18,0.2597 -8.9035,0.5773 -8.6394,0.8185 C -8.4261,1.0132 -8.152,1.2249 -7.854,1.2732 C -7.5489,1.3227 -7.2903,1.1908 -7.0686,1.0004 C -6.7672,0.7415 -6.4917,0.3319 -6.2832,0 C -6.0239,-0.4127 -5.7658,-0.8787 -5.4978,-1.2862 C -5.3215,-1.5541 -5.0243,-1.9816 -4.7124,-2.1221 C -4.3685,-2.2769 -4.1081,-2.0437 -3.927,-1.8006 C -3.587,-1.3443 -3.3086,-0.5317 -3.1416,0 C -2.8475,0.9361 -2.5795,2.0464 -2.3562,3.0011 C -2.0958,4.1143 -1.8447,5.2562 -1.5708,6.3662 C -1.375,7.1597 -1.0943,8.2434 -0.7854,9.0032 C -0.6928,9.2309 -0.3815,10 0,10 C 0.3815,10 0.6928,9.2309 0.7854,9.0032 C 1.0943,8.2434 1.375,7.1597 1.5708,6.3662 C 1.8447,5.2562 2.0958,4.1143 2.3562,3.0011 C 2.5795,2.0464 2.8475,0.9361 3.1416,0 C 3.3086,-0.5317 3.587,-1.3443 3.927,-1.8006 C 4.1081,-2.0437 4.3685,-2.2769 4.7124,-2.1221 C 5.0243,-1.9816 5.3215,-1.5541 5.4978,-1.2862 C 5.7658,-0.8787 6.0239,-0.4127 6.2832,0 C 6.4917,0.3319 6.7672,0.7415 7.0686,1.0004 C 7.2903,1.1908 7.5489,1.3227 7.854,1.2732 C 8.152,1.2249 8.4261,1.0132 8.6394,0.8185 C 8.9035,0.5773 9.18,0.2597 9.4248,0 C 9.6542,-0.2435 9.9238,-0.5137 10.2102,-0.6926 C 10.4503,-0.8425 10.7075,-0.9333 10.9956,-0.9095 C 11.2815,-0.8858 11.546,-0.7532 11.781,-0.6002 C 12.0469,-0.4271 12.3187,-0.1971 12.5664,0 C 12.8077,0.1921 13.073,0.393 13.3518,0.5296 C 13.6008,0.6516 13.8573,0.7214 14.1372,0.7074 C 14.4161,0.6934 14.6765,0.5983 14.9226,0.4739 C 15.1891,0.3391 15.4567,0.16 15.708,0 C 15.9565,-0.1582 16.2188,-0.3181 16.4934,-0.4287 C 16.7474,-0.531 17.0035,-0.588 17.2788,-0.5787 C 17.5535,-0.5695 17.812,-0.4956 18.0642,-0.3914 C 18.3307,-0.2813 18.5953,-0.1349 18.8496,0 C 19.1026,0.1342 19.363,0.2672 19.635,0.3601 C 19.892,0.448 20.1478,0.4962 20.4204,0.4897 C 20.6926,0.4832 20.95,0.4227 21.2058,0.3335 C 21.4721,0.2404 21.7348,0.1166 21.9911,0" />
	<!-- 10 * cos(t) -->
	<path class="graph C0" style="stroke-width:0.1"
		d="M -21.9911,-10 C -21.5821,-10 -21.2208,-7.1774 -21.2058,-7.0711 C -20.898,-4.8951 -20.6389,-2.1858 -20.4204,0 C -20.2018,2.1858 -19.9427,4.8951 -19.635,7.0711 C -19.6199,7.1774 -19.2587,10 -18.8496,10 C -18.4405,10 -18.0792,7.1774 -18.0642,7.0711 C -17.7564,4.8951 -17.4973,2.1858 -17.2788,0 C -17.0602,-2.1858 -16.8011,-4.8951 -16.4934,-7.0711 C -16.4783,-7.1774 -16.1171,-10 -15.708,-10 C -15.2989,-10 -14.9376,-7.1774 -14.9226,-7.0711 C -14.6148,-4.8951 -14.3558,-2.1858 -14.1372,0 C -13.9186,2.1858 -13.6595,4.8951 -13.3518,7.0711 C -13.3367,7.1774 -12.9755,10 -12.5664,10 C -12.1573,10 -11.796,7.1774 -11.781,7.0711 C -11.4733,4.8951 -11.2142,2.1858 -10.9956,0 C -10.777,-2.1858 -10.5179,-4.8951 -10.2102,-7.0711 C -10.1951,-7.1774 -9.8339,-10 -9.4248,-10 C -9.0157,-10 -8.6544,-7.1774 -8.6394,-7.0711 C -8.3317,-4.8951 -8.0726,-2.1858 -7.854,0 C -7.6354,2.1858 -7.3763,4.8951 -7.0686,7.0711 C -7.0535,7.1774 -6.6923,10 -6.2832,10 C -5.8741,10 -5.5128,7.1774 -5.4978,7.0711 C -5.1901,4.8951 -4.931,2.1858 -4.7124,0 C -4.4938,-2.1858 -4.2347,-4.8951 -3.927,-7.0711 C -3.912,-7.1774 -3.5507,-10 -3.1416,-10 C -2.7325,-10 -2.3712,-7.1774 -2.3562,-7.0711 C -2.0485,-4.8951 -1.7894,-2.1858 -1.5708,0 C -1.3522,2.1858 -1.0931,4.8951 -0.7854,7.0711 C -0.7704,7.1774 -0.4091,10 0,10 C 0.4091,10 0.7704,7.1774 0.7854,7.0711 C 1.0931,4.8951 1.3522,2.1858 1.5708,0 C 1.7894,-2.1858 2.0485,-4.8951 2.3562,-7.0711 C 2.3712,-7.1774 2.7325,-10 3.1416,-10 C 3.5507,-10 3.912,-7.1774 3.927,-7.0711 C 4.2347,-4.8951 4.4938,-2.1858 4.7124,0 C 4.931,2.1858 5.1901,4.8951 5.4978,7.0711 C 5.5128,7.1774 5.8741,10 6.2832,10 C 6.6923,10 7.0535,7.1774 7.0686,7.0711 C 7.3763,4.8951 7.6354,2.1858 7.854,0 C 8.0726,-2.1858 8.3317,-4.8951 8.6394,-7.0711 C 8.6544,-7.1774 9.0157,-10 9.4248,-10 C 9.8339,-10 10.1951,-7.1774 10.2102,-7.0711 C 10.5179,-4.8951 10.777,-2.1858 10.9956,0 C 11.2142,2.1858 11.4733,4.8951 11.781,7.0711 C 11.796,7.1774 12.1573,10 12.5664,10 C 12.9755,10 13.3367,7.1774 13.3518,7.0711 C 13.6595,4.8951 13.9186,2.1858 14.1372,0 C 14.3558,-2.1858 14.6148,-4.8951 14.9226,-7.0711 C 14.9376,-7.1774 15.2989,-10 15.708,-10 C 16.1171,-10 16.4783,-7.1774 16.4934,-7.0711 C 16.8011,-4.8951 17.0602,-2.1858 17.2788,0 C 17.4973,2.1858 17.7564,4.8951 18.0642,7.0711 C 18.0792,7.1774 18.4405,10 18.8496,10 C 19.2587,10 19.6199,7.1774 19.635,7.0711 C 19.9427,4.8951 20.2018,2.1858 20.4204,0 C 20.6389,-2.1858 20.898,-4.8951 21.2058,-7.0711 C 21.2208,-7.1774 21.5821,-10 21.9911,-10" />
</g>

<g transform="scale(10 -10)">
	<path class="ex0" d="M 0,0 V10"/>
	<g class="ex" id="ex-p">
		<path d="M 4.4934,0 V-2.17234"/>
		<path d="M 7.7252,0 V1.28375"/>
		<path d="M 10.904,0 V-0.91325"/>
		<path d="M 14.066,0 V0.70913"/>
		<path d="M 17.227,0 V-0.57971"/>
		<path d="M 20.371,0 V0.4903"/>
	</g>
	<use xlink:href="#ex-p" transform="scale(-1 1)" />
</g>

<!-- left y-Axis -->
<g transform="translate(-220 0)">
	<use xlink:href="#y-axis" class="axis" />
	<use xlink:href="#y-ticks" transform="scale(-1 1)" />
	<g id="y-labels" transform="translate (0 0)">
		<!-- 1.0 -->
		<g transform="translate (0 -100) &tex-scale; translate (-100 -100)">
			<use xlink:href="#d1" x="84.2699" y="103.2102"/>
			<use xlink:href="#dot" x="89.25115" y="103.2102"/>
			<use xlink:href="#d0" x="92.01873" y="103.2102"/>
		</g>
		<!-- 0.5 -->
		<g transform="translate (0 -50) &tex-scale; translate (-100 -100)">
			<use xlink:href="#d0" x="84.2699" y="103.2102"/>
			<use xlink:href="#dot" x="89.25115" y="103.2102"/>
			<use xlink:href="#d5" x="92.01873" y="103.2102"/>
		</g>
		<!-- 0.2 -->
		<g transform="translate (0 -20) &tex-scale; translate (-100 -100)">
			<use xlink:href="#d0" x="84.2699" y="103.2102"/>
			<use xlink:href="#dot" x="89.25115" y="103.2102"/>
			<use xlink:href="#d2" x="92.01873" y="103.2102"/>
		</g>
		<!-- -0.2 -->
		<g transform="translate (0 20) &tex-scale; translate (-100 -100)">
			<use xlink:href="#minus" x="76.52106" y="102.7949"/>
			<use xlink:href="#d0" x="84.26989" y="102.7949"/>
			<use xlink:href="#dot" x="89.25114" y="102.7949"/>
			<use xlink:href="#d2" x="92.01872" y="102.7949"/>
		</g>
		<!-- -0.5 -->
		<g transform="translate (0 50) &tex-scale; translate (-100 -100)">
			<use xlink:href="#minus" x="76.52106" y="102.7949"/>
			<use xlink:href="#d0" x="84.26989" y="102.7949"/>
			<use xlink:href="#dot" x="89.25114" y="102.7949"/>
			<use xlink:href="#d5" x="92.01872" y="102.7949"/>
		</g>
		<!-- -1.0 -->
		<g transform="translate (0 100) &tex-scale; translate (-100 -100)">
			<use xlink:href="#minus" x="76.52106" y="102.7949"/>
			<use xlink:href="#d1" x="84.26989" y="102.7949"/>
			<use xlink:href="#dot" x="89.25114" y="102.7949"/>
			<use xlink:href="#d0" x="92.01872" y="102.7949"/>
		</g>
	</g>
</g>

<!-- right y-Axis -->
<g transform="translate(220 0)">
	<use xlink:href="#y-axis" class="axis" />
	<!-- Ticks -->
	<g id="y-ticks" class="tick" style="stroke:black">
		<use xlink:href="#tick-yl" y="100" />
		<use xlink:href="#tick-yl" y="50" />
		<use xlink:href="#tick-yl" y="20" />
		<use xlink:href="#tick-yl" y="-20" />
		<use xlink:href="#tick-yl" y="-50" />
		<use xlink:href="#tick-yl" y="-100" />
		<use xlink:href="#tick-yl" y="-150" />
	</g>
</g>

<!-- Legend -->
<g fill="black" transform="translate(110 -105) scale(1.4)">
	<rect x="-36" y="-26" width="95" height="66" style="fill:white; stroke:black; stroke-width:0.5; opacity:0.8" />

	<g transform="translate(0 0) scale(1)">
		<use xlink:href="#leg" class="graph C1" y="-2"/>
		<g transform="translate (0 -3.3) scale(1.3) translate (-100 -100)">
			<use xlink:href="#s" x="104.195" y="96.949"/>
			<use xlink:href="#i" x="108.120284" y="96.949"/>
			<use xlink:href="#n" x="110.879938" y="96.949"/>
			<use xlink:href="#lparen" x="116.409209" y="96.949"/>
			<use xlink:href="#it-x" x="120.3016" y="96.949"/>
			<use xlink:href="#rparen" x="125.99535" y="96.949"/>
			<path class="bar" d="M 1041.953125 988.007812 L 1298.710938 988.007812 " transform="matrix(0.1,0,0,-0.1,0,200)"/>
			<use xlink:href="#it-x" x="114.186" y="110.523"/>
		</g>
	</g>

	<g transform="translate(0 26) scale(1)">
		<use xlink:href="#leg" class="graph C0" y="-2"/>
		<g transform="translate (0 -3) scale(1.3) translate (-100 -100)">
			<use xlink:href="#c" x="103" y="102.5"/>
			<use xlink:href="#o" x="107.42" y="102.5"/>
			<use xlink:href="#s" x="112.40" y="102.5"/>
			<use xlink:href="#lparen" x="116.33" y="102.5"/>
			<use xlink:href="#it-x"   x="120.21" y="102.5"/>
			<use xlink:href="#rparen" x="125.90" y="102.5"/>

		</g>
	</g>
</g>

</g>
</svg>
